<svg width="172" height="81" viewBox="0 0 172 81" fill="none" xmlns="http://www.w3.org/2000/svg">
<path d="M51.0664 49.0132V31.6532H59.1197C61.1197 31.6532 62.6397 32.1599 63.6531 33.1999C64.4531 33.9999 64.8531 34.9865 64.8531 36.2132C64.8531 37.8399 64.0797 39.0932 62.5597 39.9732C63.6264 40.3732 64.4531 40.9332 64.9864 41.5999C65.5197 42.2665 65.8131 43.1732 65.8131 44.2932C65.8131 45.8399 65.2264 47.0399 64.0797 47.8399C62.9331 48.6399 61.3331 49.0665 59.3064 49.0665L51.0664 49.0132ZM54.7731 38.6665H58.2931C60.1331 38.6665 61.0397 38.0265 61.0397 36.7732C61.0397 36.1865 60.8264 35.7599 60.3997 35.4399C59.9731 35.1465 59.3597 34.9865 58.5331 34.9865H54.7731V38.6665ZM54.7731 45.6532H59.3064C61.1197 45.6532 61.9997 45.0132 61.9997 43.7332C61.9997 42.4799 61.0664 41.8399 59.1731 41.8399H54.7464L54.7731 45.6532Z" fill="black"/>
<path d="M68.7461 49.0134V34.6667C68.7461 32.5867 70.4261 30.9067 72.5061 30.9067V49.0134H68.7461Z" fill="black"/>
<path d="M80.4786 49.2532C79.0653 49.2532 77.9453 48.8265 77.1453 47.9465C76.3453 47.0665 75.9453 45.8665 75.9453 44.3199V39.4665C75.9453 37.3865 77.6253 35.7065 79.7053 35.7065V43.1199C79.7053 43.9999 79.9187 44.6665 80.292 45.1199C80.692 45.5732 81.252 45.8132 81.972 45.8132C82.692 45.8132 83.2786 45.5732 83.7053 45.1199C84.132 44.6665 84.3453 43.9999 84.3453 43.1199V39.4665C84.3453 37.3865 86.0253 35.7065 88.1053 35.7065V49.0132H84.3453V47.1199C83.252 48.5332 81.972 49.2532 80.4786 49.2532Z" fill="black"/>
<path d="M97.8428 49.3065C95.8161 49.3065 94.1628 48.6665 92.8562 47.3865C91.5495 46.1065 90.8828 44.4265 90.8828 42.3998C90.8828 40.4798 91.4961 38.8265 92.7495 37.4932C94.0028 36.1598 95.5495 35.4932 97.4695 35.4932C99.5761 35.4932 101.176 36.1865 102.269 37.5732C103.389 38.9598 103.923 40.6665 103.923 42.7198C103.923 42.9332 103.896 43.2532 103.869 43.7065H94.6161C94.8028 44.5598 95.1761 45.1998 95.7361 45.6265C96.2961 46.0798 97.0161 46.2932 97.8695 46.2932C98.3761 46.2932 98.8561 46.2132 99.3095 46.0532C100.616 45.5998 102.056 45.8132 103.096 46.7198L103.229 46.8532C101.923 48.4798 100.109 49.3065 97.8428 49.3065ZM94.5895 41.3065H100.269C100.163 40.4532 99.8428 39.7598 99.3628 39.2532C98.8828 38.7465 98.2428 38.4798 97.4695 38.4798C96.6961 38.4798 96.0828 38.7465 95.5761 39.2532C95.0428 39.7598 94.7228 40.4532 94.5895 41.3065Z" fill="black"/>
<path d="M106.613 49.0132V46.1065L116.16 34.9865H106.907C106.907 33.1198 108.4 31.6265 110.267 31.6265H121.093V34.5332L111.547 45.6532H117.733C119.6 45.6532 121.093 47.1465 121.093 49.0132H106.613Z" fill="black"/>
<path d="M124.375 34.2399V30.8799H128.348V34.2399H124.375ZM124.482 49.0132V35.7065H128.242V49.0132H124.482Z" fill="black"/>
<path d="M131.973 49.0134V34.6667C131.973 32.5867 133.653 30.9067 135.733 30.9067V49.0134H131.973Z" fill="black"/>
<path d="M139.469 49.0134V34.6667C139.469 32.5867 141.149 30.9067 143.229 30.9067V49.0134H139.469Z" fill="black"/>
<path d="M150.56 49.2531C149.253 49.2531 148.16 48.8797 147.307 48.1597C146.453 47.4397 146 46.4264 146 45.1197C146 43.7064 146.48 42.6397 147.44 41.9464C148.4 41.2531 149.707 40.8797 151.36 40.8797C152.48 40.8797 153.573 41.0664 154.613 41.4131V41.1997C154.613 39.5731 153.653 38.7731 151.76 38.7731C150.613 38.7731 149.387 39.0131 148.08 39.4931C147.52 37.7597 148.64 35.9197 150.427 35.6797C151.04 35.5997 151.68 35.5464 152.293 35.5464C154.293 35.5464 155.787 36.0531 156.8 37.0397C157.76 37.9997 158.24 39.4131 158.24 41.2797V48.9864H154.587V47.5464C153.573 48.6931 152.213 49.2531 150.56 49.2531ZM151.68 46.6397C152.56 46.6397 153.28 46.4264 153.813 45.9731C154.347 45.5731 154.64 44.9597 154.64 44.2931V43.6264C153.92 43.2797 153.12 43.1197 152.24 43.1197C151.413 43.1197 150.773 43.2797 150.32 43.5997C149.867 43.9197 149.627 44.3997 149.627 45.0131C149.627 45.5197 149.813 45.8931 150.213 46.1864C150.587 46.5064 151.067 46.6397 151.68 46.6397Z" fill="black"/>
<path d="M34.0018 39.4934C36.4818 37.9734 37.7084 35.7068 37.7084 32.6668C37.7084 29.9468 36.7484 27.7601 34.8018 26.1068C32.8551 24.4534 30.3218 23.6001 27.1751 23.6001H14.0018V27.7334C14.0018 29.1468 14.2151 30.4268 15.5751 30.7734C15.7884 30.8268 16.0284 30.8534 16.2418 30.8534C17.3884 30.7734 24.8818 28.6934 26.9351 28.5868C27.4151 28.5601 27.8684 28.8268 28.0551 29.2801C28.2684 29.7334 28.5884 30.2934 28.9618 30.4268C29.6018 30.6401 32.8284 30.2668 33.2284 31.6801C33.6018 33.0401 33.0418 34.5868 32.3218 34.9868L31.6284 36.1868L30.9351 35.4134C30.9084 35.4134 30.9084 35.4134 30.8818 35.4134L30.2418 36.5334L29.5484 35.7601C29.5218 35.7601 29.4951 35.7601 29.4684 35.7601L28.8018 36.9068L28.1084 36.1068C28.0818 36.1068 28.0818 36.1068 28.0551 36.1068L26.7218 36.5334C26.1618 36.7201 25.7884 36.9068 25.7618 37.0668C25.7351 37.2001 26.0018 37.5201 26.4018 37.9468L27.3884 38.8801C27.4151 38.9068 27.4151 38.9068 27.4151 38.9334L28.6951 38.8534L28.4284 39.8134C28.4551 39.8401 28.4818 39.8668 28.5084 39.8934L29.8151 39.8134L29.5484 40.7734C29.5751 40.8001 29.6018 40.8268 29.6284 40.8801L30.9351 40.8001L30.6418 41.8668C30.7218 41.9468 30.7751 42.0268 30.8018 42.1334C30.9351 42.8268 30.4018 43.7601 28.5884 43.6001C26.7751 43.4401 27.0951 42.0801 23.0684 43.2801C19.3084 44.4001 16.9351 46.0534 15.3351 49.3601C13.8951 52.2668 14.0018 56.5868 14.0018 56.5868H27.9484C31.3084 56.5868 33.9751 56.0801 35.8951 54.4001C37.8151 52.7201 38.8018 50.4001 38.8018 47.3868C38.8018 43.8134 37.2018 41.1734 34.0018 39.4934Z" fill="#417CBF"/>
</svg>
