<svg width="172" height="80" viewBox="0 0 172 80" fill="none" xmlns="http://www.w3.org/2000/svg">
<path d="M52.044 31.7668L51.3233 30.5125C51.2668 30.4142 51.1881 30.3302 51.0934 30.267C50.9987 30.2038 50.8905 30.1632 50.7774 30.1482C50.6642 30.1333 50.5491 30.1445 50.441 30.1809C50.3329 30.2173 50.2348 30.278 50.1543 30.3583L48.4966 31.9997C48.3754 32.1204 48.3 32.2789 48.2832 32.4484C48.2664 32.6179 48.3092 32.7879 48.4044 32.9297C49.0088 33.8451 49.4932 34.833 49.8458 35.8697C50.5046 37.8076 50.6886 39.8731 50.3825 41.8954C50.0765 43.9177 49.2891 45.8388 48.0856 47.4998C46.8822 49.1609 45.297 50.5142 43.4613 51.448C41.6256 52.3817 39.5921 52.869 37.5287 52.8697C35.4046 52.8755 33.312 52.3607 31.4372 51.3711L34.2408 48.5911C35.978 49.2423 37.8725 49.3622 39.6792 48.9351C41.4859 48.508 43.1218 47.5537 44.3755 46.1955C45.6292 44.8374 46.4431 43.1377 46.7119 41.3163C46.9807 39.4948 46.692 37.6354 45.8833 35.9783C45.8319 35.8721 45.7557 35.7798 45.6609 35.7089C45.566 35.6381 45.4555 35.5908 45.3384 35.5711C45.2213 35.5513 45.1012 35.5597 44.9881 35.5955C44.875 35.6313 44.7722 35.6935 44.6883 35.7768L43.0105 37.4283C42.921 37.5168 42.8559 37.6265 42.8214 37.7471C42.7868 37.8676 42.7839 37.9949 42.813 38.1168L42.9572 38.714C43.2052 39.76 43.1397 40.855 42.7688 41.8647C42.3978 42.8744 41.7375 43.7547 40.8688 44.3978C40.0002 45.0408 38.9611 45.4185 37.8789 45.4846C36.7968 45.5507 35.7187 45.3022 34.777 44.7697L34.0375 44.3497C33.8962 44.269 33.732 44.2369 33.5703 44.2584C33.4087 44.2798 33.2588 44.3536 33.1438 44.4683L26.2955 51.254C26.2208 51.3281 26.1629 51.4171 26.1256 51.5152C26.0884 51.6133 26.0728 51.7181 26.0797 51.8226C26.0867 51.9272 26.1161 52.029 26.166 52.1214C26.2159 52.2138 26.2851 52.2945 26.3691 52.3583L27.3781 53.1254C30.2879 55.3478 33.8609 56.5479 37.5345 56.5368C40.4592 56.5331 43.3317 55.7692 45.8654 54.3213C48.399 52.8734 50.5052 50.7922 51.9736 48.2854C53.442 45.7786 54.2213 42.934 54.2336 40.0354C54.246 37.1369 53.491 34.2858 52.044 31.7668Z" fill="url(#paint0_linear_44_9910)"/>
<path d="M47.6883 26.8314C44.7789 24.6082 41.2058 23.4076 37.5319 23.4185C34.6058 23.4208 31.7316 24.184 29.1963 25.632C26.661 27.0799 24.5535 29.1619 23.0844 31.6699C21.6153 34.1779 20.836 37.024 20.8244 39.924C20.8127 42.824 21.5691 45.6762 23.0181 48.1957L23.7388 49.4485C23.7955 49.5467 23.8744 49.6307 23.9691 49.6938C24.0639 49.757 24.1721 49.7977 24.2852 49.8127C24.3984 49.8278 24.5136 49.8168 24.6218 49.7807C24.73 49.7445 24.8284 49.6841 24.9092 49.6042L26.564 47.9642C26.6844 47.8434 26.7592 47.6852 26.776 47.5161C26.7928 47.3471 26.7505 47.1775 26.6563 47.0357C26.0513 46.1206 25.5669 45.1326 25.2148 44.0957C24.556 42.1578 24.372 40.0923 24.6781 38.07C24.9842 36.0477 25.7715 34.1266 26.975 32.4655C28.1785 30.8045 29.7636 29.4511 31.5993 28.5174C33.435 27.5837 35.4686 27.0963 37.5319 27.0957C39.656 27.0909 41.7482 27.6072 43.622 28.5985L40.817 31.3771C39.4118 30.8493 37.8984 30.6675 36.4067 30.8474C34.915 31.0272 33.4897 31.5634 32.2532 32.4097C31.0167 33.256 30.0061 34.3872 29.3081 35.7061C28.6101 37.025 28.2457 38.4921 28.2462 39.9814C28.2462 40.1342 28.288 40.8314 28.301 40.9514C28.4146 42.0065 28.7106 43.0343 29.1759 43.99C29.2274 44.0961 29.3039 44.1884 29.3988 44.2593C29.4937 44.3301 29.6044 44.3774 29.7216 44.3971C29.8387 44.4168 29.959 44.4084 30.0722 44.3727C30.1854 44.3369 30.2883 44.2747 30.3723 44.1914L32.0501 42.5271C32.1395 42.4388 32.2047 42.3293 32.2395 42.2091C32.2743 42.0889 32.2776 41.9618 32.2491 41.84L32.1049 41.2414C31.8566 40.1953 31.9218 39.1002 32.2927 38.0904C32.6637 37.0806 33.3241 36.2001 34.1928 35.5571C35.0616 34.9141 36.101 34.5366 37.1832 34.4708C38.2655 34.4051 39.3436 34.6541 40.2851 35.1871L41.0246 35.6071C41.1661 35.6871 41.3301 35.7188 41.4916 35.6973C41.653 35.6759 41.8029 35.6026 41.9182 35.4885L48.7651 28.7028C48.84 28.6287 48.898 28.5396 48.9354 28.4415C48.9727 28.3433 48.9885 28.2384 48.9817 28.1338C48.9749 28.0291 48.9456 27.9271 48.8958 27.8346C48.846 27.742 48.7769 27.6611 48.693 27.5971L47.6883 26.8314Z" fill="url(#paint1_linear_44_9910)"/>
<path d="M75.8328 44.5486C75.7079 44.4481 75.551 44.3949 75.3901 44.3986C75.2293 44.4023 75.075 44.4625 74.9549 44.5686C73.8811 45.3943 72.6357 46.1586 70.8151 46.1586C67.4825 46.1586 64.7711 43.3772 64.7711 39.9558C64.7711 36.5343 67.4724 33.7286 70.7906 33.7286C72.232 33.7286 73.7888 34.33 74.9333 35.3258C74.9978 35.3999 75.078 35.4591 75.1682 35.4991C75.2584 35.5391 75.3563 35.5589 75.4551 35.5572C75.5407 35.5504 75.6238 35.5252 75.6985 35.4833C75.7732 35.4413 75.8377 35.3836 75.8875 35.3143L76.9715 34.2086C77.0405 34.1425 77.0949 34.0629 77.1314 33.9749C77.1679 33.8868 77.1856 33.7923 77.1834 33.6972C77.1793 33.6005 77.1552 33.5058 77.1126 33.4187C77.0699 33.3317 77.0096 33.2544 76.9355 33.1915C75.0429 31.5572 73.1416 30.8286 70.7647 30.8286C65.6908 30.8286 61.5625 34.9458 61.5625 40.0058C61.5644 42.4246 62.5343 44.744 64.2594 46.455C65.9845 48.1661 68.324 49.1291 70.7647 49.1329C71.9112 49.1463 73.0491 48.9349 74.1128 48.5107C75.1766 48.0866 76.1452 47.4581 76.9629 46.6615C77.0346 46.589 77.091 46.5029 77.1286 46.4085C77.1662 46.314 77.1844 46.213 77.182 46.1115C77.18 46.0306 77.1617 45.951 77.128 45.8774C77.0943 45.8038 77.046 45.7376 76.9859 45.6829L75.8328 44.5486Z" fill="#3D3652"/>
<path d="M83.7208 31.0771H82.079C81.8958 31.0832 81.7219 31.1583 81.5925 31.287C81.4632 31.4157 81.3882 31.5884 81.3828 31.77V48.1986C81.3878 48.3804 81.4627 48.5535 81.5921 48.6825C81.7214 48.8115 81.8956 48.8867 82.079 48.8929H83.7208C83.9043 48.8867 84.0784 48.8115 84.2078 48.6825C84.3372 48.5535 84.412 48.3804 84.417 48.1986V31.77C84.4116 31.5884 84.3367 31.4157 84.2073 31.287C84.078 31.1583 83.904 31.0832 83.7208 31.0771Z" fill="#3D3652"/>
<path d="M103.152 36.607C103.152 33.5585 100.619 31.077 97.5057 31.077H90.7353C90.5504 31.0778 90.3733 31.1511 90.2428 31.281C90.1123 31.4108 90.0391 31.5866 90.0391 31.7699V48.1985C90.0387 48.382 90.1118 48.5582 90.2423 48.6883C90.3728 48.8185 90.5501 48.892 90.7353 48.8928H92.3526C92.536 48.8866 92.7102 48.8114 92.8395 48.6824C92.9689 48.5534 93.0438 48.3803 93.0488 48.1985V42.0885H96.4419L99.6924 48.5385C99.7516 48.6442 99.8383 48.7321 99.9435 48.7932C100.049 48.8543 100.169 48.8862 100.291 48.8856H102.231C102.353 48.8897 102.475 48.8615 102.583 48.8041C102.691 48.7466 102.782 48.6619 102.846 48.5585C102.908 48.4493 102.94 48.3263 102.94 48.2013C102.94 48.0763 102.908 47.9534 102.846 47.8442L99.5482 41.7528C101.777 40.7713 103.152 38.8199 103.152 36.607ZM100.118 36.6571C100.118 38.2042 98.8304 39.5142 97.3068 39.5142H93.0992V33.927H97.301C98.8275 33.927 100.112 35.1771 100.112 36.6571H100.118Z" fill="#3D3652"/>
<path d="M120.82 44.5486C120.695 44.4481 120.538 44.3949 120.378 44.3986C120.217 44.4023 120.062 44.4625 119.942 44.5686C118.869 45.3943 117.623 46.1586 115.803 46.1586C112.47 46.1586 109.759 43.3772 109.759 39.9558C109.759 36.5343 112.458 33.7286 115.777 33.7286C117.218 33.7286 118.775 34.33 119.921 35.3258C119.986 35.4006 120.066 35.4603 120.157 35.5003C120.248 35.5403 120.347 35.5598 120.447 35.5572C120.532 35.5504 120.616 35.5252 120.69 35.4833C120.765 35.4413 120.829 35.3836 120.879 35.3143L121.963 34.2086C122.032 34.1424 122.086 34.0627 122.123 33.9747C122.159 33.8867 122.176 33.7922 122.174 33.6972C122.17 33.6006 122.147 33.5057 122.104 33.4186C122.062 33.3316 122.001 33.2542 121.927 33.1915C120.039 31.5572 118.138 30.8286 115.761 30.8286C110.687 30.8286 106.559 34.9458 106.559 40.0058C106.56 42.4246 107.53 44.744 109.256 46.455C110.981 48.1661 113.32 49.1291 115.761 49.1329C116.907 49.1462 118.045 48.9347 119.109 48.5105C120.173 48.0864 121.141 47.458 121.959 46.6615C122.031 46.5887 122.087 46.5025 122.125 46.4077C122.162 46.313 122.181 46.2118 122.178 46.11C122.176 46.0292 122.158 45.9496 122.124 45.8759C122.091 45.8023 122.042 45.7361 121.982 45.6815L120.82 44.5486Z" fill="#3D3652"/>
<path d="M135.921 46.1343H129.405V31.77C129.4 31.5884 129.325 31.4157 129.196 31.287C129.066 31.1583 128.892 31.0832 128.709 31.0771H127.067C126.882 31.0779 126.705 31.1512 126.575 31.2811C126.444 31.4109 126.371 31.5867 126.371 31.77V48.1986C126.371 48.3821 126.444 48.5583 126.574 48.6884C126.705 48.8186 126.882 48.8921 127.067 48.8929H135.921C136.012 48.8927 136.103 48.8746 136.188 48.8396C136.273 48.8046 136.35 48.7534 136.415 48.6889C136.479 48.6245 136.531 48.548 136.566 48.4638C136.601 48.3797 136.618 48.2896 136.618 48.1986V46.8343C136.619 46.7428 136.602 46.6521 136.567 46.5673C136.533 46.4825 136.481 46.4053 136.417 46.3403C136.352 46.2752 136.275 46.2235 136.189 46.1881C136.104 46.1528 136.013 46.1345 135.921 46.1343Z" fill="#3D3652"/>
<path d="M150.669 33.8573C150.854 33.8565 151.031 33.7832 151.162 33.6533C151.292 33.5235 151.366 33.3477 151.366 33.1644V31.7744C151.366 31.5911 151.292 31.4153 151.162 31.2855C151.031 31.1556 150.854 31.0823 150.669 31.0815H140.724C140.539 31.0823 140.362 31.1556 140.231 31.2855C140.101 31.4153 140.027 31.5911 140.027 31.7744V48.203C140.027 48.3865 140.1 48.5626 140.231 48.6928C140.361 48.823 140.538 48.8965 140.724 48.8973H150.669C150.855 48.8965 151.032 48.823 151.162 48.6928C151.293 48.5626 151.366 48.3865 151.366 48.203V46.8387C151.366 46.6554 151.292 46.4796 151.162 46.3498C151.031 46.2199 150.854 46.1466 150.669 46.1458H143.03V41.2444H149.446C149.631 41.244 149.808 41.1709 149.939 41.041C150.07 40.9111 150.143 40.7351 150.143 40.5515V39.163C150.138 38.9809 150.063 38.8076 149.934 38.6786C149.804 38.5495 149.629 38.4744 149.446 38.4687H143.034V33.8573H150.669Z" fill="#3D3652"/>
<defs>
<linearGradient id="paint0_linear_44_9910" x1="31.6375" y1="57.5968" x2="54.9509" y2="34.0734" gradientUnits="userSpaceOnUse">
<stop stop-color="#B090F5"/>
<stop offset="1" stop-color="#5FBFFF"/>
</linearGradient>
<linearGradient id="paint1_linear_44_9910" x1="19.9002" y1="45.6785" x2="43.215" y2="22.1551" gradientUnits="userSpaceOnUse">
<stop stop-color="#68D7FA"/>
<stop offset="1" stop-color="#7EF1B3"/>
</linearGradient>
</defs>
</svg>
