<svg width="172" height="80" viewBox="0 0 172 80" fill="none" xmlns="http://www.w3.org/2000/svg">
<g clip-path="url(#clip0_44_9977)">
<path d="M21.8077 25.8689L9 33.1845V47.8155L21.8077 55.1311L34.6153 47.8155V33.1845L21.8077 25.8689ZM21.8077 25.8689L9 33.1845V47.8155L21.8077 55.1311L34.6153 47.8155V33.1845L21.8077 25.8689Z" fill="white"/>
<path d="M26.864 49.4158H25.0417L22.86 47.4345V46.4185L25.1187 44.2848V40.9064L28.0703 39.0013L31.4327 41.516L26.864 49.4158ZM19.318 44.0816L19.6517 40.9064L18.548 38.0615H25.0673L23.9893 40.9064L24.2973 44.0816H21.782H19.318ZM20.8067 47.4345L18.625 49.4412H16.777L12.1827 41.516L15.5707 39.0267L18.548 40.9064V44.2848L20.8067 46.4185V47.4345ZM16.7513 32.1938H26.8383L28.0447 37.2741H15.5707L16.7513 32.1938ZM21.8077 25.8689L9 33.1845V47.8155L21.8077 55.1311L34.6153 47.8155V33.1845L21.8077 25.8689Z" fill="#03316C"/>
<path d="M48.9886 47.282C45.6006 47.282 43.111 44.6656 43.111 41.4397C43.111 38.2137 45.6263 35.5212 49.0143 35.5212C51.1703 35.5212 52.505 36.3086 53.5573 37.4517L51.9403 39.179C51.1446 38.3407 50.2976 37.7819 48.9886 37.7819C47.0893 37.7819 45.7033 39.4076 45.7033 41.3889C45.7033 43.421 47.115 45.0466 49.117 45.0466C50.349 45.0466 51.2473 44.4624 52.0686 43.6496L53.6343 45.1991C52.505 46.3929 51.196 47.282 48.9886 47.282Z" fill="#002E73"/>
<path d="M58.588 47.2821H55.97V35.5468H58.588V38.2901C59.3067 36.6136 60.6157 35.4452 62.6177 35.5468V38.2901H62.4637C60.1794 38.2901 58.588 39.7634 58.588 42.7607V47.2821Z" fill="#002E73"/>
<path d="M76.2981 35.4961L70.5231 50.4319H67.8794L69.1371 47.2822L64.1834 35.4961H66.9811L70.3434 44.2087L73.5774 35.4961H76.2981Z" fill="#002E73"/>
<path d="M83.998 37.7568C82.227 37.7568 80.687 39.1792 80.687 41.3891C80.687 43.599 82.2527 45.0215 83.998 45.0215C85.7947 45.0215 87.2577 43.6244 87.2577 41.3891C87.2577 39.1538 85.769 37.7568 83.998 37.7568ZM84.5884 47.2568C82.7147 47.2568 81.534 46.317 80.7384 45.2755V50.4319H78.1204V35.4961H80.7384V37.6044C81.5854 36.4359 82.766 35.4961 84.5884 35.4961C87.2834 35.4961 89.9014 37.6044 89.9014 41.3637C89.9014 45.1231 87.309 47.2568 84.5884 47.2568Z" fill="#002E73"/>
<path d="M95.6249 37.9599V43.4973C95.6249 44.488 96.1382 44.8944 97.0365 44.8944H98.0632V47.2059H96.2665C94.3672 47.2059 93.0069 46.3677 93.0069 43.9037V37.9599H91.5695V35.75H93.0069V32.651H95.6249V35.75H98.0632V37.9599H95.6249Z" fill="#002E73"/>
<path d="M106.302 37.7565C104.198 37.7565 102.863 39.3822 102.863 41.3635C102.863 43.3702 104.3 45.0212 106.328 45.0212C108.433 45.0212 109.767 43.3956 109.767 41.4143C109.819 39.4076 108.356 37.7565 106.302 37.7565ZM106.302 47.282C102.837 47.282 100.271 44.6656 100.271 41.4397C100.271 38.1883 102.863 35.5212 106.354 35.5212C109.844 35.5212 112.411 38.1375 112.411 41.3889C112.411 44.5894 109.844 47.282 106.302 47.282Z" fill="#002E73"/>
<path d="M137.385 37.7565C135.28 37.7565 133.945 39.3822 133.945 41.3635C133.945 43.3702 135.383 45.0212 137.41 45.0212C139.515 45.0212 140.85 43.3956 140.85 41.4143C140.875 39.4076 139.438 37.7565 137.385 37.7565ZM137.385 47.282C133.92 47.282 131.353 44.6656 131.353 41.4397C131.353 38.1883 133.945 35.5212 137.436 35.5212C140.927 35.5212 143.493 38.1375 143.493 41.3889C143.493 44.5894 140.901 47.282 137.385 47.282Z" fill="#002E73"/>
<path d="M158.996 35.4961C161.486 35.4961 163 37.0455 163 39.8143V47.2568H160.382V40.6017C160.382 38.7982 159.535 37.8584 158.072 37.8584C156.66 37.8584 155.634 38.849 155.634 40.6525V47.2822H153.016V40.6017C153.016 38.849 152.143 37.8584 150.706 37.8584C149.268 37.8584 148.267 38.9252 148.267 40.6779V47.2822H145.649V35.5215H148.267V37.4519C149.012 36.4613 149.987 35.5215 151.732 35.5215C153.375 35.5215 154.504 36.3089 155.12 37.5028C156.07 36.2835 157.276 35.4961 158.996 35.4961Z" fill="#002E73"/>
<path d="M114.695 44.7669L115.825 44.1318H115.979L117.134 44.7669L117.211 44.8939V46.2147L117.134 46.3417L115.979 46.9768H115.825L114.695 46.3417L114.618 46.2147V44.8939L114.695 44.7669Z" fill="#002E73"/>
<path d="M125.142 47.2567C121.754 47.1805 119.315 44.5134 119.367 41.2874C119.418 38.0615 121.985 35.4198 125.398 35.496C127.554 35.5468 128.889 36.3596 129.916 37.5281L128.273 39.2299C127.503 38.3917 126.656 37.7821 125.347 37.7567C123.448 37.7313 122.036 39.3061 122.01 41.3128C121.959 43.3449 123.345 44.996 125.347 45.0214C126.579 45.0468 127.503 44.488 128.324 43.6751L129.864 45.25C128.709 46.4439 127.375 47.3075 125.142 47.2567Z" fill="#002E73"/>
</g>
<defs>
<clipPath id="clip0_44_9977">
<rect width="154" height="29.2621" fill="white" transform="translate(9 25.8689)"/>
</clipPath>
</defs>
</svg>
