<svg width="172" height="80" viewBox="0 0 172 80" fill="none" xmlns="http://www.w3.org/2000/svg">
<path d="M72.3057 43.6155H73.9908V51.7926H73.4221L68.6617 46.8317V51.6455H66.9766V43.4684H67.5242L72.3057 48.4083V43.6155ZM79.4253 51.6455V43.6155H84.965V45.108H81.1104V46.7476H83.9329V48.156H81.1104V50.195H85.1125V51.6875H79.4253V51.6455ZM92.0004 51.6455V45.087H89.3674V43.5945H96.3184V45.087H93.6644V51.6455H92.0004ZM110.789 43.6155H112.664L109.378 51.7926H108.83L106.534 46.7476L104.217 51.7926H103.67L100.384 43.6155H102.258L104.091 48.3662L106.261 43.4684H106.829L108.999 48.3452L110.789 43.6155ZM116.75 47.6305C116.729 46.4954 117.151 45.5074 118.014 44.6666C118.878 43.8468 119.91 43.4474 121.111 43.4684C122.29 43.4474 123.322 43.8468 124.207 44.6666C125.092 45.4864 125.513 46.4744 125.513 47.6305C125.534 48.7656 125.092 49.7536 124.207 50.5944C123.343 51.4142 122.311 51.8136 121.111 51.7926C119.931 51.8136 118.899 51.4142 118.014 50.5944C117.151 49.7536 116.729 48.7656 116.75 47.6305ZM123.786 47.6305C123.786 46.8737 123.533 46.2431 123.027 45.7386C122.522 45.2341 121.89 44.9819 121.153 44.9819C120.394 44.9819 119.762 45.2341 119.257 45.7176C118.751 46.2221 118.499 46.8527 118.499 47.6095C118.499 48.3872 118.751 49.0179 119.257 49.5014C119.762 50.0059 120.394 50.2371 121.153 50.2371C121.911 50.2371 122.543 49.9848 123.027 49.5014C123.533 49.0389 123.786 48.3872 123.786 47.6305ZM137.456 51.6455H135.56L133.433 48.8077H132.19V51.6455H130.505V43.6155H133.601C134.465 43.6155 135.181 43.8468 135.729 44.3302C136.276 44.8137 136.571 45.4443 136.571 46.2011C136.571 46.7056 136.445 47.168 136.192 47.5674C135.939 47.9668 135.581 48.2821 135.139 48.4924L137.456 51.6455ZM132.19 45.066V47.3572H133.601C134.002 47.3572 134.296 47.2521 134.507 47.0419C134.739 46.8317 134.844 46.5584 134.844 46.2011C134.844 45.8648 134.718 45.5915 134.486 45.3813C134.254 45.1711 133.959 45.066 133.58 45.066H132.19ZM149.294 51.6455H147.251L143.712 47.4623V51.6455H142.027V43.6155H143.712V47.3362L146.85 43.6155H148.852L145.692 47.3993L149.294 51.6455Z" fill="#D8A574"/>
<path d="M67.2344 40.0208V29.8047H74.1222V31.6966H69.3829V34.2611H73.2797V36.153H69.3829V40.0419H67.2344V40.0208ZM80.3361 40.0208V29.8047H87.3924V31.6966H82.4846V33.7777H86.0865V35.5644H82.4846V38.15H87.582V40.0419H80.3361V40.0208ZM102.895 40.0208H100.473L97.7558 36.4053H96.176V40.0208H94.0275V29.8047H97.9664C99.0618 29.8047 99.9675 30.099 100.684 30.7086C101.4 31.3182 101.758 32.117 101.758 33.105C101.758 33.7356 101.589 34.3242 101.273 34.8497C100.958 35.3542 100.515 35.7536 99.9254 36.0269L102.895 40.0208ZM96.1971 31.6335V34.5554H97.9875C98.493 34.5554 98.8722 34.4293 99.146 34.156C99.4409 33.8828 99.5673 33.5254 99.5673 33.084C99.5673 32.6425 99.4198 32.3062 99.125 32.0329C98.8301 31.7597 98.4509 31.6335 97.9875 31.6335H96.1971ZM117.661 40.0208H115.239L112.543 36.4053H110.963V40.0208H108.814V29.8047H112.753C113.849 29.8047 114.754 30.099 115.47 30.7086C116.187 31.3182 116.545 32.117 116.545 33.105C116.545 33.7356 116.376 34.3242 116.06 34.8497C115.744 35.3542 115.302 35.7536 114.712 36.0269L117.661 40.0208ZM110.963 31.6335V34.5554H112.753C113.259 34.5554 113.638 34.4293 113.912 34.156C114.207 33.8828 114.333 33.5254 114.333 33.084C114.333 32.6425 114.186 32.3062 113.891 32.0329C113.596 31.7597 113.217 31.6335 112.753 31.6335H110.963ZM123.18 35.7957V29.8047H125.328V35.9638C125.328 36.6995 125.539 37.2671 125.96 37.6875C126.382 38.0869 126.95 38.2971 127.624 38.2971C128.319 38.2971 128.888 38.0869 129.288 37.6875C129.71 37.2671 129.92 36.6995 129.92 35.9638V29.8047H132.069V35.7957C132.069 37.12 131.647 38.192 130.805 39.0118C129.962 39.8106 128.909 40.21 127.603 40.21C126.297 40.21 125.223 39.8106 124.402 39.0118C123.601 38.192 123.18 37.12 123.18 35.7957ZM148.562 29.6155H149.257V40.0208H147.108V34.5765L144.475 37.7926H143.78L141.147 34.5765V40.0208H138.999V29.6155H139.694L144.117 35.144L148.562 29.6155Z" fill="#D0CED1"/>
<path d="M22.9141 50.174L24.873 51.204L26.8319 50.174V41.8918L54.1517 26.0421L49.7704 23.7298L26.8109 37.078V32.0751L45.347 21.3965L41.9347 19.5467L22.9141 29.7628V50.174Z" fill="url(#paint0_linear_44_9948)"/>
<path d="M52.1919 36.6995V31.8857L30.7069 44.0568V48.8916L52.1919 36.6995Z" fill="url(#paint1_linear_44_9948)"/>
<path d="M34.1391 56.2488L29.7578 53.9365L52.2118 40.9036V45.7384L34.1391 56.2488Z" fill="url(#paint2_linear_44_9948)"/>
<path d="M59.0168 28.7327L60.9757 29.7627V50.1739L41.7445 60.3901L37.8477 58.2459L57.0789 47.8406V42.8377V38.0239V29.7417L59.0168 28.7327Z" fill="url(#paint3_linear_44_9948)"/>
<defs>
<linearGradient id="paint0_linear_44_9948" x1="21.3653" y1="42.2001" x2="49.3534" y2="24.2442" gradientUnits="userSpaceOnUse">
<stop offset="0.0458446" stop-color="#C5C3C5"/>
<stop offset="0.3021" stop-color="#F2F2F2"/>
<stop offset="0.895" stop-color="#BEBBBE"/>
</linearGradient>
<linearGradient id="paint1_linear_44_9948" x1="27.844" y1="46.926" x2="57.0726" y2="32.8194" gradientUnits="userSpaceOnUse">
<stop offset="0.197" stop-color="#CAA467"/>
<stop offset="0.6183" stop-color="#ECC77C"/>
<stop offset="0.9196" stop-color="#CCA362"/>
</linearGradient>
<linearGradient id="paint2_linear_44_9948" x1="14.9804" y1="68.2822" x2="32.1467" y2="56.0367" gradientUnits="userSpaceOnUse">
<stop offset="0.197" stop-color="#CAA467"/>
<stop offset="0.6183" stop-color="#ECC77C"/>
<stop offset="0.9196" stop-color="#CCA362"/>
</linearGradient>
<linearGradient id="paint3_linear_44_9948" x1="1.05907" y1="68.2678" x2="30.2875" y2="54.1612" gradientUnits="userSpaceOnUse">
<stop offset="0.197" stop-color="#CAA467"/>
<stop offset="0.6183" stop-color="#ECC77C"/>
<stop offset="0.9196" stop-color="#CCA362"/>
</linearGradient>
</defs>
</svg>
