<svg width="172" height="80" viewBox="0 0 172 80" fill="none" xmlns="http://www.w3.org/2000/svg">
<path d="M25.5483 28.5557C28.1201 28.3826 30.7414 28.9019 33.0412 30.0641C36.4538 31.7457 39.174 34.7626 40.4352 38.3236C41.0039 39.9063 41.3007 41.5631 41.3007 43.2447V49.4517C41.3007 49.699 41.3007 49.971 41.2512 50.2183C41.1028 50.8365 40.6577 51.4053 40.0642 51.6773C39.6438 51.8751 39.174 51.8999 38.7536 51.8257C37.8139 51.6526 37.072 50.7623 37.072 49.7979C37.072 47.869 37.072 45.9402 37.072 44.0113C37.0967 43.4673 37.0967 42.8738 36.8 42.4039C36.3301 41.5137 35.1431 41.0933 34.2282 41.4642C33.4368 41.7362 32.8681 42.5523 32.8433 43.3931C32.8433 45.3467 32.8433 47.3003 32.8433 49.2539C32.8433 49.6248 32.8681 49.9957 32.7444 50.3419C32.5466 51.0343 31.9778 51.5784 31.2854 51.7762C30.3704 52.0235 29.3318 51.6278 28.8867 50.7871C28.5652 50.2925 28.59 49.6742 28.6147 49.1055C28.6147 47.1519 28.6147 45.223 28.6147 43.2694C28.59 42.2803 27.7739 41.39 26.8095 41.2664C26.1665 41.1675 25.4988 41.39 25.029 41.8351C24.6086 42.2308 24.386 42.7996 24.386 43.3683V49.0313C24.386 49.5011 24.4355 49.9957 24.2624 50.4408C23.9904 51.2569 23.1743 51.8504 22.3088 51.8257C21.4185 51.8751 20.553 51.2569 20.281 50.4408C20.1326 50.0205 20.1574 49.6001 20.1574 49.1549C20.1574 47.2013 20.1574 45.2477 20.1574 43.2942C20.1574 42.3297 19.3908 41.4395 18.4511 41.2664C17.5855 41.0933 16.6458 41.5137 16.2007 42.305C16.0276 42.6265 15.9287 42.9974 15.9287 43.3683V49.7237C15.9287 50.3419 15.6567 50.9602 15.1868 51.3558C14.4697 51.974 13.3074 52.0235 12.5655 51.4547C12.0215 51.0838 11.7 50.4408 11.7 49.7732V43.3436C11.7 40.9202 12.3183 38.4967 13.4805 36.3453C14.4202 34.5895 15.7309 33.0316 17.2888 31.7952C19.5886 29.8663 22.5313 28.7288 25.5483 28.5557Z" fill="#5741D9"/>
<path d="M83.3401 35.999H80.1253C80.249 33.7487 80.7188 31.7209 82.7713 30.435C84.8239 29.1738 87.0742 28.8771 89.4235 29.0749C90.6846 29.1738 91.9458 29.4458 93.1081 29.9899C95.1606 30.9296 96.1745 32.537 96.1745 34.7873C96.1745 38.7687 96.1745 42.7501 96.1745 46.7314C96.1745 48.1904 96.4712 48.4625 97.9302 48.3141C98.0786 48.2894 98.2517 48.2646 98.4001 48.2399C98.4248 48.3141 98.4248 48.3883 98.4248 48.4377V50.8612C97.2626 51.2568 96.0756 51.3805 94.9133 51.059C94.0478 50.8117 93.5037 50.1935 93.207 49.3774C93.0586 48.957 92.9597 48.5119 92.8361 48.0421C92.7124 48.1904 92.6135 48.3141 92.4899 48.4377C89.9428 51.0096 86.9258 52.0976 83.3648 51.1827C80.8425 50.5397 79.1114 48.2399 79.0373 45.6186C79.0125 44.7778 79.0867 43.9371 79.2846 43.121C79.7544 41.2416 81.0898 40.104 82.7713 39.3375C83.9583 38.7934 85.2443 38.645 86.5302 38.4719C88.0386 38.2741 89.5224 38.101 91.0308 37.8784C92.0447 37.7301 92.564 37.186 92.7124 36.1721C93.0339 34.1196 92.1189 32.7595 90.1406 32.265C88.9536 31.9682 87.7419 31.9187 86.5302 32.1413C84.7497 32.4628 83.7605 33.4767 83.4143 35.2324C83.439 35.4797 83.3896 35.727 83.3401 35.999ZM92.8113 39.9557C91.3276 40.747 89.8933 40.9448 88.4343 41.1674C87.2226 41.3652 85.9861 41.5383 84.7991 41.9093C83.2412 42.4286 82.5241 43.7145 82.6724 45.4455C82.7961 46.8798 83.7605 48.0421 85.3184 48.2894C87.7172 48.685 89.8438 48.0173 91.5254 46.2369C92.02 45.7175 92.4157 44.9757 92.5146 44.2833C92.7371 42.8984 92.7124 41.4889 92.8113 39.9557ZM138.634 44.1102C138.56 44.4564 138.511 44.7531 138.436 45.0251C137.052 49.2538 134.232 51.059 130.82 51.4547C124.91 52.0976 121.522 48.2399 120.656 44.1349C119.964 40.8707 120.063 37.6312 121.497 34.5648C122.857 31.6715 125.033 29.7673 128.273 29.1985C132.155 28.5061 137.645 30.435 138.56 36.4936C138.807 38.0515 138.857 39.6589 139.005 41.291H123.97C124.094 43.5167 124.44 45.5939 126.072 47.2013C126.74 47.869 127.605 48.1904 128.545 48.3635C131.586 48.9076 134.109 47.4486 135.098 44.5058C135.197 44.1843 135.345 44.0854 135.667 44.1102C136.631 44.1102 137.596 44.1102 138.634 44.1102ZM124.094 38.4225H135.345C135.222 37.1118 134.999 35.9001 134.381 34.7626C133.787 33.6745 132.922 32.8832 131.735 32.4875C127.852 31.1521 123.846 34.2433 124.094 38.4225ZM146.721 50.7375H143.308V29.52H146.548V32.4875C146.795 32.2155 146.943 32.0424 147.092 31.8693C149.416 29.2233 152.334 28.5309 155.648 29.3469C157.948 29.9157 159.234 31.5478 159.679 33.8229C159.852 34.7626 159.975 35.727 159.975 36.6667C160 41.2169 160 45.767 160 50.3171C160 50.4408 159.975 50.5644 159.975 50.7128H156.489V50.144C156.489 45.8906 156.513 41.6373 156.464 37.3839C156.464 36.4442 156.315 35.4797 156.043 34.5648C155.598 33.081 154.411 32.2897 152.853 32.2155C150.01 32.1166 147.759 33.625 147.067 36.1474C146.82 37.0624 146.745 38.0268 146.745 38.9912C146.721 42.7253 146.721 46.4347 146.721 50.1193V50.7375ZM101.739 29.52H105.027V38.5214C105.225 38.3236 105.349 38.2246 105.473 38.101C108.168 35.3561 110.864 32.5864 113.559 29.8415C113.782 29.5942 114.004 29.4953 114.35 29.4953C115.612 29.52 116.897 29.4953 118.282 29.4953C118.084 29.6931 117.985 29.8168 117.862 29.9404C115.488 32.3144 113.139 34.7131 110.74 37.0624C110.468 37.3344 110.468 37.5075 110.641 37.8043C113.238 41.934 115.809 46.0638 118.381 50.1935C118.48 50.3419 118.554 50.4902 118.678 50.7128C118.505 50.7375 118.381 50.7375 118.233 50.7375C117.046 50.7375 115.884 50.7375 114.697 50.7375C114.375 50.7375 114.227 50.6139 114.054 50.3666C112.075 47.0529 110.097 43.7392 108.119 40.4008C108.02 40.2524 107.946 40.1041 107.822 39.931C106.907 40.8459 106.017 41.7114 105.126 42.6264C105.003 42.7501 104.978 42.9726 104.978 43.1457C104.978 45.4703 104.978 47.7948 104.978 50.1193V50.7128C104.335 50.7128 103.692 50.7128 103.074 50.7128C102.629 50.7128 102.011 50.8365 101.763 50.5892C101.541 50.3913 101.664 49.7484 101.664 49.3033V30.0888C101.739 29.9651 101.739 29.7673 101.739 29.52ZM63.7795 29.4953C61.1087 32.1413 58.5122 34.7379 55.8909 37.3344C58.71 41.8351 61.4549 46.2369 64.2493 50.7375C64.0267 50.7375 63.8784 50.7623 63.73 50.7623C62.5925 50.7623 61.4302 50.7623 60.2927 50.7623C59.9712 50.7623 59.7733 50.6386 59.6002 50.3666C57.6219 47.0529 55.6436 43.7392 53.6653 40.4008C53.5911 40.2524 53.4922 40.1288 53.3685 39.931C52.8739 40.4503 52.4288 41.019 51.8848 41.4147C50.772 42.2555 50.4505 43.2941 50.5247 44.6789C50.6483 46.4841 50.5494 48.3141 50.5494 50.1193V50.7128H47.2852V29.52H50.5494V38.373C50.6236 38.4225 50.6978 38.4719 50.7473 38.5214C50.8462 38.373 50.8956 38.1999 50.9945 38.0763C53.6653 35.3314 56.3607 32.6112 59.0315 29.8415C59.2788 29.5942 59.5013 29.4706 59.8723 29.4953C60.9851 29.52 62.0979 29.4953 63.2107 29.4953C63.3838 29.4953 63.5322 29.4953 63.7795 29.4953ZM70.3079 33.0315C71.9648 30.6081 73.7205 28.5803 76.9848 29.1738V32.809C76.1192 32.8584 75.2537 32.8337 74.4377 33.0068C72.4346 33.4272 70.8767 35.2572 70.5552 37.4828C70.5057 37.9279 70.4563 38.373 70.4563 38.8181C70.4563 42.6017 70.4563 46.3852 70.4563 50.1688V50.7623H67.0931V29.5695H70.3079C70.3079 30.6823 70.3079 31.7951 70.3079 33.0315Z" fill="#5741D9"/>
</svg>
