<svg width="172" height="80" viewBox="0 0 172 80" fill="none" xmlns="http://www.w3.org/2000/svg">
<path d="M43.017 46.003C42.6664 46.003 42.4912 45.9154 42.3159 45.8278C42.2283 45.6525 42.1407 45.4773 42.1407 45.2144V35.3998C42.1407 35.1369 42.2283 34.8741 42.3159 34.7864C42.4912 34.6112 42.6664 34.5235 43.017 34.5235H47.1356C48.7129 34.5235 49.8521 34.8741 50.6408 35.4875C51.3418 36.1885 51.7799 37.1524 51.7799 38.4669C51.7799 39.7813 51.4294 40.7453 50.6408 41.4463C49.9397 42.0597 48.7129 42.4102 47.1356 42.4102H45.5582V45.1267C45.5582 45.3896 45.4706 45.6525 45.383 45.7402C45.2077 45.9154 45.0324 45.9154 44.6819 45.9154H43.017V46.003ZM46.8727 39.9566C47.3108 39.9566 47.6613 39.869 47.9242 39.6061C48.1871 39.3432 48.2747 38.9927 48.2747 38.4669C48.2747 37.9411 48.1871 37.5906 47.9242 37.3277C47.6613 37.0648 47.3108 36.9772 46.8727 36.9772H45.5582V39.9566H46.8727Z" fill="black"/>
<path d="M55.724 46.2663C54.6724 46.2663 53.7961 45.9158 53.1827 45.2147C52.5693 44.5137 52.2188 43.5497 52.2188 42.3229C52.2188 41.359 52.394 40.5703 52.8322 39.8693C53.2703 39.1683 53.8837 38.6425 54.6724 38.2043C55.4611 37.8538 56.425 37.5909 57.3889 37.5909C58.2652 37.5909 58.9663 37.6785 59.6673 37.8538C60.3684 38.0291 60.8941 38.292 61.5075 38.6425V45.39C61.5075 45.5652 61.5075 45.7405 61.4199 45.8281C61.3323 45.9158 61.157 45.9158 60.9818 45.9158H59.2292C59.1415 45.9158 58.9663 45.9158 58.9663 45.8281C58.8787 45.7405 58.8787 45.7405 58.791 45.6529L58.5281 45.1271C58.1776 45.4776 57.8271 45.7405 57.3889 45.9158C56.9508 46.1786 56.3374 46.2663 55.724 46.2663ZM56.9508 43.9879C57.3889 43.9879 57.7395 43.9003 58.0024 43.6374C58.2652 43.4621 58.3529 43.1116 58.3529 42.7611V40.1322C58.1776 40.0445 57.8271 39.9569 57.5642 39.9569C56.9508 39.9569 56.5126 40.1322 56.1621 40.5703C55.8116 41.0085 55.6363 41.5343 55.6363 42.3229C55.6363 43.3745 56.0745 43.9879 56.9508 43.9879Z" fill="black"/>
<path d="M63.8724 46.0031C63.5219 46.0031 63.3466 45.9155 63.1714 45.8279C62.9961 45.6526 62.9961 45.4774 62.9961 45.2145V38.3794C62.9961 38.2041 62.9961 38.0288 63.0838 37.9412C63.1714 37.8536 63.3466 37.8536 63.5219 37.8536H65.2745C65.4498 37.8536 65.5374 37.8536 65.5374 37.9412C65.625 37.9412 65.625 38.0288 65.7126 38.1165L65.8003 38.6422C66.1508 38.2917 66.5013 38.1165 67.0271 37.9412C67.5529 37.7659 68.0787 37.6783 68.7797 37.6783C69.656 37.6783 70.4447 37.9412 70.9704 38.467C71.4962 38.9928 71.8467 39.6938 71.8467 40.7454V45.2145C71.8467 45.4774 71.7591 45.7403 71.6715 45.8279C71.5838 46.0032 71.321 46.0031 70.9704 46.0031H69.3055C68.955 46.0031 68.7797 45.9155 68.6044 45.8279C68.4292 45.6526 68.4292 45.4774 68.4292 45.2145V40.9206C68.4292 40.5701 68.3415 40.3072 68.1663 40.2196C67.991 40.0443 67.8158 39.9567 67.4652 39.9567C67.1147 39.9567 66.8518 40.0443 66.6766 40.2196C66.5013 40.3948 66.4137 40.6577 66.4137 40.9206V45.1269C66.4137 45.3897 66.3261 45.6526 66.2384 45.7403C66.1508 45.9155 65.8879 45.9155 65.5374 45.9155H63.8724V46.0031Z" fill="black"/>
<path d="M77.8074 46.266C76.2301 46.266 75.0033 45.9155 74.127 45.1269C73.2507 44.4258 72.8125 43.3743 72.8125 41.9722C72.8125 41.0959 72.9878 40.3948 73.4259 39.6938C73.7765 39.0804 74.3899 38.5546 75.0909 38.2041C75.8796 37.8536 76.7559 37.6783 77.7198 37.6783C78.5085 37.6783 79.1219 37.7659 79.6477 37.9412C80.1734 38.1165 80.6992 38.2917 81.0497 38.6422C81.1374 38.7299 81.225 38.8175 81.225 38.9051C81.225 38.9928 81.1374 39.0804 81.0497 39.2557L80.3487 40.4825C80.2611 40.6577 80.1734 40.7454 80.0858 40.7454C79.9982 40.7454 79.9106 40.6577 79.7353 40.5701C79.4724 40.3948 79.1219 40.2196 78.859 40.132C78.5961 40.0443 78.2456 39.9567 77.8951 39.9567C77.3693 39.9567 76.8435 40.132 76.493 40.4825C76.1425 40.833 75.9672 41.3588 75.9672 41.9722C75.9672 42.5856 76.1425 43.1114 76.493 43.4619C76.8435 43.8124 77.2817 43.9877 77.8951 43.9877C78.2456 43.9877 78.5961 43.9 78.859 43.8124C79.1219 43.7248 79.4724 43.5495 79.7353 43.3743C79.9106 43.2866 79.9982 43.199 80.0858 43.199C80.1734 43.199 80.2611 43.2866 80.3487 43.4619L81.1374 44.7763C81.225 44.864 81.225 44.9516 81.225 45.0392C81.225 45.1269 81.1374 45.2145 81.0497 45.3021C80.6116 45.565 80.0858 45.8279 79.4724 46.0031C79.2095 46.1784 78.5961 46.266 77.8074 46.266Z" fill="black"/>
<path d="M85.7787 46.2663C84.7271 46.2663 83.8508 45.9158 83.2374 45.2147C82.624 44.5137 82.2735 43.5497 82.2735 42.3229C82.2735 41.359 82.4487 40.5703 82.8869 39.8693C83.325 39.1683 83.9384 38.6425 84.7271 38.2043C85.5158 37.8538 86.4797 37.5909 87.4436 37.5909C88.3199 37.5909 89.021 37.6785 89.722 37.8538C90.423 38.0291 90.9488 38.292 91.5622 38.6425V45.39C91.5622 45.5652 91.5622 45.7405 91.4746 45.8281C91.387 45.9158 91.2117 45.9158 91.0365 45.9158H89.2839C89.1962 45.9158 89.021 45.9158 89.021 45.8281C88.9333 45.7405 88.9333 45.7405 88.8457 45.6529L88.5828 45.1271C88.2323 45.4776 87.8818 45.7405 87.4436 45.9158C87.0055 46.1786 86.4797 46.2663 85.7787 46.2663ZM87.0931 43.9879C87.5313 43.9879 87.8818 43.9003 88.1447 43.6374C88.4076 43.4621 88.4952 43.1116 88.4952 42.7611V40.1322C88.3199 40.0445 87.9694 39.9569 87.7065 39.9569C87.0931 39.9569 86.655 40.1322 86.3044 40.5703C85.9539 41.0085 85.7787 41.5343 85.7787 42.3229C85.691 43.3745 86.1292 43.9879 87.0931 43.9879Z" fill="black"/>
<path d="M102.252 45.3896C102.34 45.4773 102.34 45.5649 102.34 45.6525C102.34 45.7402 102.34 45.8278 102.252 45.9154C102.164 46.003 102.077 46.003 101.989 46.003H99.3602C99.1849 46.003 99.0973 46.003 99.0096 46.003C98.922 46.003 98.8344 45.9154 98.7468 45.8278L96.4684 42.6731V45.1267C96.4684 45.3896 96.3808 45.6525 96.2931 45.7402C96.1179 45.9154 95.9426 45.9154 95.5921 45.9154H93.9271C93.5766 45.9154 93.4013 45.8278 93.2261 45.7402C93.1384 45.5649 93.0508 45.3896 93.0508 45.1267V35.3998C93.0508 35.1369 93.1384 34.8741 93.2261 34.7864C93.4013 34.6112 93.5766 34.5235 93.9271 34.5235H95.5921C95.9426 34.5235 96.1179 34.6112 96.2931 34.7864C96.4684 34.9617 96.4684 35.1369 96.4684 35.3998V41.0081L98.6591 38.1164C98.7468 38.0287 98.8344 37.9411 98.922 37.9411C99.0096 37.9411 99.0973 37.8535 99.2725 37.8535H101.901C101.989 37.8535 102.077 37.8535 102.164 37.9411C102.252 38.0287 102.252 38.1164 102.252 38.204C102.252 38.2916 102.252 38.3792 102.164 38.4669L99.2725 41.7968L102.252 45.3896Z" fill="black"/>
<path d="M107.689 46.2658C106.725 46.2658 105.936 46.0906 105.147 45.8277C104.446 45.4771 103.833 45.039 103.395 44.4256C102.957 43.8122 102.781 43.0235 102.781 42.1472C102.781 40.7451 103.219 39.6059 104.008 38.9049C104.797 38.1162 106.024 37.7657 107.513 37.7657C109.003 37.7657 110.142 38.1162 110.843 38.9049C111.632 39.6059 111.982 40.6575 111.982 41.972C111.982 42.4977 111.72 42.8482 111.281 42.8482H106.024C106.024 43.374 106.199 43.7246 106.549 43.9874C106.9 44.2503 107.513 44.338 108.214 44.338C108.652 44.338 109.091 44.338 109.354 44.2503C109.704 44.1627 109.967 43.9874 110.317 43.8998C110.493 43.8122 110.58 43.8122 110.58 43.8122C110.668 43.8122 110.756 43.8998 110.843 43.9874L111.457 45.039C111.544 45.1266 111.544 45.2143 111.544 45.3019C111.544 45.3895 111.457 45.4771 111.369 45.5648C110.931 45.8277 110.405 46.0906 109.792 46.2658C109.091 46.1782 108.477 46.2658 107.689 46.2658ZM109.003 41.008C109.003 40.5699 108.915 40.2194 108.652 40.0441C108.39 39.7812 108.039 39.6936 107.513 39.6936C106.988 39.6936 106.637 39.7812 106.374 40.0441C106.111 40.307 106.024 40.5699 106.024 41.008H109.003Z" fill="black"/>
<path d="M117.854 46.2662C116.89 46.2662 116.014 46.1785 115.138 46.0033C114.261 45.828 113.648 45.4775 113.122 45.127C112.947 45.0393 112.859 44.8641 112.859 44.7765C112.859 44.6888 112.859 44.6012 112.947 44.5136L113.736 43.1991C113.823 43.0239 113.911 43.0239 113.999 43.0239C114.086 43.0239 114.174 43.0239 114.261 43.1115C114.7 43.3744 115.138 43.5496 115.664 43.7249C116.189 43.9002 116.715 43.9878 117.241 43.9878C117.767 43.9878 118.117 43.9002 118.38 43.7249C118.643 43.5496 118.731 43.2867 118.731 42.9362C118.731 42.5857 118.555 42.3228 118.292 42.1476C118.03 41.9723 117.504 41.7094 116.715 41.4465C115.576 41.0084 114.7 40.5702 114.086 40.0444C113.473 39.5187 113.122 38.73 113.122 37.8537C113.122 36.7145 113.56 35.9258 114.349 35.3124C115.138 34.699 116.189 34.4361 117.504 34.4361C118.468 34.4361 119.256 34.5238 119.87 34.699C120.571 34.8743 121.097 35.1372 121.535 35.4001C121.71 35.5753 121.798 35.6629 121.798 35.8382C121.798 35.9258 121.798 36.0135 121.71 36.1011L120.921 37.4155C120.834 37.5908 120.746 37.5908 120.658 37.5908C120.571 37.5908 120.483 37.5908 120.396 37.5032C119.782 37.065 118.994 36.8898 118.03 36.8898C117.504 36.8898 117.153 36.9774 116.89 37.1527C116.627 37.3279 116.54 37.5908 116.54 37.9413C116.54 38.2042 116.627 38.3795 116.715 38.5547C116.89 38.73 117.066 38.8176 117.241 38.9929C117.504 39.0805 117.854 39.2558 118.292 39.431L118.643 39.5187C119.432 39.8692 120.133 40.1321 120.571 40.4826C121.097 40.7455 121.447 41.1836 121.71 41.6218C121.973 42.0599 122.061 42.5857 122.061 43.1991C122.061 44.163 121.71 45.0393 120.921 45.5651C120.396 45.9156 119.256 46.2662 117.854 46.2662Z" fill="black"/>
<path d="M125.826 46.0027C125.651 46.0027 125.563 46.0027 125.475 45.9151C125.388 45.8274 125.3 45.7398 125.3 45.5645L123.109 38.2913C123.109 38.2036 123.109 38.2036 123.109 38.116C123.109 37.9407 123.197 37.8531 123.46 37.8531H125.651C125.826 37.8531 125.914 37.8531 126.001 37.9407C126.089 38.0284 126.089 38.0284 126.176 38.2036L127.053 42.0594L128.192 38.9923C128.28 38.817 128.28 38.7294 128.367 38.7294C128.455 38.6418 128.542 38.6418 128.718 38.6418H129.769C129.945 38.6418 130.032 38.6418 130.12 38.7294C130.207 38.817 130.207 38.9047 130.295 38.9923L131.434 42.0594L132.398 38.2036C132.398 38.116 132.486 38.0284 132.573 37.9407C132.661 37.8531 132.749 37.8531 132.836 37.8531H135.115C135.378 37.8531 135.465 37.9407 135.465 38.116C135.465 38.116 135.465 38.2036 135.465 38.2913L133.274 45.5645C133.187 45.7398 133.187 45.8274 133.099 45.9151C133.012 46.0027 132.924 46.0027 132.749 46.0027H131.084C130.908 46.0027 130.821 46.0027 130.733 45.9151C130.646 45.8274 130.558 45.7398 130.558 45.5645L129.419 42.4975L128.28 45.5645C128.192 45.7398 128.192 45.8274 128.104 45.9151C128.017 46.0027 127.929 46.0027 127.754 46.0027H125.826Z" fill="black"/>
<path d="M139.497 46.2663C138.446 46.2663 137.57 45.9158 136.956 45.2147C136.343 44.5137 135.992 43.5497 135.992 42.3229C135.992 41.359 136.167 40.5703 136.606 39.8693C137.044 39.1683 137.657 38.6425 138.446 38.2043C139.235 37.8538 140.198 37.5909 141.162 37.5909C142.039 37.5909 142.74 37.6785 143.441 37.8538C144.142 38.0291 144.668 38.292 145.281 38.6425V45.39C145.281 45.5652 145.281 45.7405 145.193 45.8281C145.106 45.9158 144.93 45.9158 144.755 45.9158H143.003C142.915 45.9158 142.827 45.9158 142.74 45.8281C142.652 45.7405 142.652 45.7405 142.564 45.6529L142.302 45.1271C141.951 45.4776 141.601 45.7405 141.162 45.9158C140.724 46.1786 140.198 46.2663 139.497 46.2663ZM140.812 43.9879C141.25 43.9879 141.601 43.9003 141.863 43.6374C142.126 43.4621 142.214 43.1116 142.214 42.7611V40.1322C142.039 40.0445 141.688 39.9569 141.425 39.9569C140.812 39.9569 140.374 40.1322 140.023 40.5703C139.673 41.0085 139.497 41.5343 139.497 42.3229C139.41 43.3745 139.848 43.9879 140.812 43.9879Z" fill="black"/>
<path d="M147.65 49.4205C147.299 49.4205 147.124 49.3329 146.949 49.2452C146.861 49.07 146.773 48.8947 146.773 48.6318V38.9925C147.299 38.642 147.913 38.2915 148.701 38.1162C149.49 37.8533 150.279 37.7657 151.067 37.7657C154.485 37.7657 156.15 39.1678 156.15 42.0596C156.15 43.374 155.799 44.4256 155.098 45.2143C154.397 46.0029 153.346 46.3534 152.031 46.3534C151.681 46.3534 151.33 46.2658 150.98 46.1782C150.629 46.0906 150.366 46.0029 150.103 45.8277V48.6318C150.103 48.8947 150.016 49.1576 149.928 49.2452C149.753 49.4205 149.578 49.4205 149.227 49.4205H147.65ZM151.33 43.9874C151.856 43.9874 152.207 43.8122 152.382 43.4617C152.645 43.1111 152.732 42.5854 152.732 41.972C152.732 41.2709 152.557 40.7451 152.294 40.3946C152.031 40.1317 151.593 39.9565 150.98 39.9565C150.629 39.9565 150.279 40.0441 150.103 40.1317V42.7606C150.103 43.1111 150.191 43.4617 150.454 43.6369C150.629 43.8998 150.98 43.9874 151.33 43.9874Z" fill="black"/>
<path fill-rule="evenodd" clip-rule="evenodd" d="M19.7949 32.5954C19.4444 30.8428 20.8465 29.1778 22.5991 29.1778C24.1764 29.1778 25.4909 30.4923 25.4909 32.0696V35.5748C25.929 35.5748 26.2795 35.5748 26.7177 35.5748C27.0682 35.5748 27.5064 35.5748 27.8569 35.5748V32.0696C27.8569 30.4923 29.1713 29.1778 30.7487 29.1778C32.5013 29.1778 33.9034 30.8428 33.5528 32.5954L32.7642 36.714C35.3931 37.8532 37.4085 39.8687 37.4085 42.4099V43.8996C37.4085 46.0028 36.0065 47.7554 34.0786 48.8946C32.1508 50.1214 29.5219 50.8224 26.6301 50.8224C23.7383 50.8224 21.1094 50.1214 19.1815 48.8946C17.2537 47.7554 15.8516 46.0028 15.8516 43.8996V42.4099C15.8516 39.8687 17.8671 37.8532 20.496 36.714L19.7949 32.5954ZM31.8002 37.3274L32.6765 32.5078C32.9394 31.2809 31.9755 30.1418 30.7487 30.1418C29.6095 30.1418 28.7332 31.0181 28.7332 32.1572V36.6264C28.4703 36.6264 28.1198 36.5387 27.8569 36.5387C27.5064 36.5387 27.0682 36.5387 26.7177 36.5387C26.2795 36.5387 25.929 36.5387 25.4909 36.6264C25.228 36.6264 24.8775 36.714 24.6146 36.714V32.2449C24.6146 31.1057 23.7383 30.2294 22.5991 30.2294C21.3723 30.2294 20.4083 31.3686 20.6712 32.5954L21.5475 37.5027C18.7434 38.5542 16.8155 40.4821 16.8155 42.6728V44.1625C16.8155 47.4925 21.197 50.209 26.6301 50.209C32.0631 50.209 36.4446 47.4925 36.4446 44.1625V42.6728C36.5322 40.3068 34.6044 38.379 31.8002 37.3274Z" fill="#633001"/>
<path d="M36.5315 43.9878C36.5315 47.3178 32.15 50.0343 26.7169 50.0343C21.2839 50.0343 16.9024 47.3178 16.9024 43.9878V42.4981H36.6191V43.9878H36.5315Z" fill="#FEDC90"/>
<path fill-rule="evenodd" clip-rule="evenodd" d="M20.6727 32.4203C20.4098 31.1935 21.3737 30.0543 22.6005 30.0543C23.7397 30.0543 24.616 30.9306 24.616 32.0698V36.6265C25.3171 36.5389 26.0181 36.4513 26.7191 36.4513C27.4202 36.4513 28.1212 36.5389 28.7346 36.5389V32.0698C28.7346 30.9306 29.6109 30.0543 30.7501 30.0543C31.9769 30.0543 32.9409 31.1935 32.678 32.4203L31.8017 37.2399C34.6935 38.2915 36.6213 40.2194 36.6213 42.4101C36.6213 45.74 32.2398 48.4566 26.8068 48.4566C21.3737 48.4566 16.9922 45.74 16.9922 42.4101C16.9922 40.2194 18.9201 38.2915 21.7242 37.2399L20.6727 32.4203Z" fill="#D1884F"/>
<path d="M24.0016 42.0596C24.0016 42.9359 23.4758 43.7246 22.95 43.7246C22.4242 43.7246 21.8985 43.0235 21.8985 42.0596C21.8985 41.1833 22.4242 40.3946 22.95 40.3946C23.4758 40.3946 24.0016 41.0957 24.0016 42.0596Z" fill="#633001"/>
<path d="M31.5406 42.0596C31.5406 42.9359 31.0149 43.7246 30.4891 43.7246C29.8757 43.7246 29.4375 43.0235 29.4375 42.0596C29.4375 41.1833 29.9633 40.3946 30.4891 40.3946C31.0149 40.3946 31.5406 41.0957 31.5406 42.0596Z" fill="#633001"/>
</svg>
