<svg width="172" height="80" viewBox="0 0 172 80" fill="none" xmlns="http://www.w3.org/2000/svg">
<path d="M61.208 32.432V31.12H68.936V32.432H65.768V42H64.376V32.432H61.208ZM78.2134 35.36V37.744C78.2134 39.0987 77.872 40.176 77.1894 40.976C76.5174 41.7653 75.5467 42.16 74.2774 42.16C73.008 42.16 72.032 41.7653 71.3494 40.976C70.6774 40.176 70.3414 39.0987 70.3414 37.744V35.36C70.3414 34.016 70.6774 32.9493 71.3494 32.16C72.032 31.36 73.008 30.96 74.2774 30.96C75.5467 30.96 76.5174 31.36 77.1894 32.16C77.872 32.9493 78.2134 34.016 78.2134 35.36ZM76.7734 35.36C76.7734 34.368 76.56 33.6053 76.1334 33.072C75.7174 32.528 75.0987 32.256 74.2774 32.256C73.4667 32.256 72.848 32.528 72.4214 33.072C71.9947 33.6053 71.7814 34.368 71.7814 35.36V37.744C71.7814 38.7467 71.9947 39.52 72.4214 40.064C72.848 40.608 73.4667 40.88 74.2774 40.88C75.0987 40.88 75.7174 40.608 76.1334 40.064C76.56 39.52 76.7734 38.7467 76.7734 37.744V35.36ZM87.1008 42L83.9968 36.864C83.7728 37.0987 83.5381 37.3387 83.2928 37.584C83.0581 37.8293 82.8128 38.0747 82.5568 38.32V42H81.1648V31.12H82.5568V36.768C83.5594 35.7547 84.3968 34.7947 85.0688 33.888C85.7408 32.9813 86.3114 32.0587 86.7808 31.12H88.2847C87.8048 32.0587 87.3034 32.912 86.7808 33.68C86.2688 34.4373 85.6821 35.1947 85.0208 35.952L88.7968 42H87.1008ZM96.776 40.704V42H90.696V31.12H96.616V32.432H92.088V35.84H96.136V37.152H92.088V40.704H96.776ZM99.196 42V31.12H100.652C101.623 32.5067 102.513 33.904 103.324 35.312C104.145 36.7093 104.913 38.1707 105.628 39.696L105.468 35.536V31.12H106.828V42H105.372C104.625 40.4427 103.852 38.928 103.052 37.456C102.263 35.9733 101.399 34.528 100.46 33.12L100.556 37.552V42H99.196ZM117.651 35.36V37.744C117.651 39.0987 117.31 40.176 116.627 40.976C115.955 41.7653 114.984 42.16 113.715 42.16C112.446 42.16 111.47 41.7653 110.787 40.976C110.115 40.176 109.779 39.0987 109.779 37.744V35.36C109.779 34.016 110.115 32.9493 110.787 32.16C111.47 31.36 112.446 30.96 113.715 30.96C114.984 30.96 115.955 31.36 116.627 32.16C117.31 32.9493 117.651 34.016 117.651 35.36ZM116.211 35.36C116.211 34.368 115.998 33.6053 115.571 33.072C115.155 32.528 114.536 32.256 113.715 32.256C112.904 32.256 112.286 32.528 111.859 33.072C111.432 33.6053 111.219 34.368 111.219 35.36V37.744C111.219 38.7467 111.432 39.52 111.859 40.064C112.286 40.608 112.904 40.88 113.715 40.88C114.536 40.88 115.155 40.608 115.571 40.064C115.998 39.52 116.211 38.7467 116.211 37.744V35.36ZM122.234 31.12L125.546 39.184L128.874 31.12H130.458V42H129.098V37.344L129.274 33.152L126.154 40.72H124.842L121.786 33.12L121.962 37.344V42H120.602V31.12H122.234ZM135.26 42H133.868V31.12H135.26V42ZM144.601 42L141.497 36.864C141.273 37.0987 141.038 37.3387 140.793 37.584C140.558 37.8293 140.313 38.0747 140.057 38.32V42H138.665V31.12H140.057V36.768C141.059 35.7547 141.897 34.7947 142.569 33.888C143.241 32.9813 143.811 32.0587 144.281 31.12H145.785C145.305 32.0587 144.803 32.912 144.281 33.68C143.769 34.4373 143.182 35.1947 142.521 35.952L146.297 42H144.601Z" fill="black"/>
<g clip-path="url(#clip0_186_32982)">
<path d="M35.7467 17.056C30.5627 17.3947 25.8133 19.6587 22.2987 23.4667C18.424 27.6667 16.5467 33.3147 17.12 39.04C18.0347 48.1253 25.0747 55.4747 34.12 56.7867C35.4187 56.9733 36.7867 57.04 37.976 56.9733C39.9627 56.8613 41.6827 56.5307 43.4773 55.92C50.76 53.4373 56.0187 46.9013 56.864 39.28C56.9627 38.4053 56.984 37.984 56.984 37.0133C56.984 35.792 56.9173 34.9173 56.7333 33.776C55.9707 29.0587 53.4907 24.728 49.7867 21.6427C46.4987 18.904 42.5253 17.3307 38.1867 17.0533C37.696 17.0213 36.2373 17.024 35.7467 17.056ZM20.6267 32.032C20.84 32.112 21.0747 32.2 21.1467 32.2267C21.2933 32.28 22.7173 32.8373 28.5867 35.128C30.728 35.9653 32.568 36.6853 32.6747 36.728C32.936 36.8347 33.0347 36.9173 33.1253 37.0987L33.2 37.2533V37.8133C33.2 38.608 33.1947 38.6107 32.6347 38.4027C32.4613 38.3387 31.6187 38.008 30.76 37.672C29.9013 37.336 28.4933 36.7813 27.6267 36.44C25.8453 35.7387 25.7947 35.72 25.768 35.72C25.7547 35.72 25.7467 38.4667 25.7467 41.824C25.7467 45.648 25.736 47.9547 25.72 47.9973C25.6667 48.1387 25.6 48.1493 24.8 48.1413C24.08 48.1333 24.0667 48.1333 24.008 48.072L23.9467 48.0107L23.9333 41.504L23.92 34.9973L22.2133 34.336C21.2747 33.9733 20.448 33.6533 20.376 33.6267C20.304 33.6 20.1947 33.528 20.1333 33.4667C19.968 33.304 19.9307 33.1653 19.9147 32.7013C19.8907 32 19.936 31.8267 20.1413 31.8667C20.1947 31.8773 20.4133 31.952 20.6267 32.032ZM28.5653 37.8587C29.0587 38.0587 29.1973 38.144 29.3387 38.328C29.4427 38.4667 29.48 38.5893 29.48 38.8027V38.9653L30.9013 39.5173L32.32 40.0693L33.68 39.5387L35.04 39.0107L35.048 38.784C35.0613 38.3227 35.104 37.9093 35.1467 37.8293C35.2587 37.6107 35.4 37.6187 36.0267 37.88C36.5467 38.096 36.704 38.2027 36.824 38.4133L36.9067 38.56L36.8987 41.3867C36.896 42.9413 36.8853 45.3813 36.8773 46.8053L36.8613 49.4L36.7973 49.4667L36.736 49.5333H35.976H35.216L35.1413 49.4693L35.0667 49.4053L35.0587 45.0453L35.0533 40.688L34.432 40.9253C34.0933 41.056 33.672 41.216 33.5013 41.2827L33.1867 41.4053L33.1813 44.6827L33.1733 47.96L33.0987 48.032L33.0267 48.1067H32.2667C31.512 48.1067 31.5067 48.1067 31.448 48.0453L31.3867 47.984L31.3733 44.6773L31.36 41.368L30.4267 41.0107C29.9147 40.8133 29.4853 40.6533 29.4773 40.6533C29.4693 40.6533 29.456 42.6133 29.448 45.0053C29.4347 49.6907 29.4427 49.44 29.3013 49.504C29.2613 49.5227 28.976 49.5333 28.5307 49.5333C27.7547 49.5333 27.688 49.5227 27.648 49.3787C27.6347 49.3387 27.6267 46.792 27.6267 43.72C27.6267 37.7013 27.6213 37.9147 27.7653 37.7467C27.8773 37.6133 28.008 37.632 28.5653 37.8587ZM39.7067 39.3387C40.1867 39.5333 40.3493 39.6267 40.4667 39.7733C40.6373 39.9893 40.632 39.9173 40.6133 41.9387C40.6027 42.9493 40.5973 43.7733 40.6053 43.7733C40.6107 43.7733 41.408 43.4827 42.376 43.1307C44.4613 42.368 44.3627 42.4027 44.4453 42.4213C44.5573 42.4507 44.5733 42.536 44.5733 43.0907C44.5733 43.6773 44.5493 43.8053 44.4 43.9787C44.2853 44.1147 44.248 44.128 42.808 44.6427C42.1947 44.8587 41.6933 45.0453 41.6933 45.0533C41.6933 45.0613 42.4587 45.3653 43.3947 45.7307C44.328 46.096 45.1307 46.4107 45.176 46.4267C45.2907 46.4747 45.448 46.6187 45.5067 46.736C45.5893 46.8933 45.6213 47.1867 45.6053 47.616C45.5947 47.9867 45.5707 48.1013 45.496 48.1547C45.4213 48.2053 45.352 48.1813 42.52 47.0693L40.5867 46.3093L40.5733 47.2293L40.56 48.152L40.4853 48.216L40.4107 48.28H39.6773H38.9413L38.864 48.2027L38.7867 48.1253V43.888C38.7867 41.2453 38.7973 39.592 38.8133 39.4933C38.856 39.2347 38.976 39.12 39.1733 39.1493C39.232 39.1573 39.472 39.2427 39.7067 39.3387ZM48.2133 46.6667C48.832 46.8293 49.256 47.408 49.2053 48.0267C49.1307 48.9627 48.152 49.5173 47.3147 49.0987C47.1147 49 46.856 48.752 46.7547 48.5573C46.5493 48.176 46.5493 47.688 46.7547 47.3093C46.856 47.12 47.12 46.864 47.304 46.7733C47.6 46.6293 47.92 46.592 48.2133 46.6667Z" fill="#0087FF"/>
</g>
<defs>
<clipPath id="clip0_186_32982">
<rect width="40" height="40" fill="white" transform="translate(17 17)"/>
</clipPath>
</defs>
</svg>
