<svg width="172" height="80" viewBox="0 0 172 80" fill="none" xmlns="http://www.w3.org/2000/svg">
<path fill-rule="evenodd" clip-rule="evenodd" d="M6.62715 20.7837C10.6196 25.6782 15.0032 31.8272 15.7123 32.8218C15.7501 32.8748 15.7774 32.9132 15.7937 32.936C16.1717 33.4636 16.4837 33.8559 16.7207 34.1538C17.2467 34.8151 17.4028 35.0113 17.0889 35.1916C16.8358 35.3369 16.5746 35.3849 16.314 35.3849C16.0192 35.3849 15.6871 35.2415 15.4453 35.0098C15.2743 34.8461 14.1048 33.1303 12.5122 30.6344C11.2937 28.7245 10.2739 27.1402 10.2461 27.1137C10.1818 27.0523 10.1829 27.0544 12.388 31.0397C13.7726 33.5421 14.7197 35.3914 14.7197 35.5097C14.7197 35.7504 14.6547 35.8769 14.3608 36.208C13.8708 36.7602 13.6518 37.3806 13.4937 38.6644C13.3165 40.1036 12.818 41.1203 11.4368 42.8602C10.6282 43.8788 10.4959 44.0654 10.2919 44.476C10.035 44.993 9.96428 45.2825 9.93564 45.9353C9.90538 46.6256 9.96433 47.0715 10.1731 47.7313C10.3559 48.309 10.5466 48.6906 11.0343 49.4537C11.4552 50.112 11.6976 50.6013 11.6976 50.7928C11.6976 50.9451 11.7264 50.9453 12.3786 50.7966C13.9394 50.4405 15.2068 49.8144 15.9195 49.0471C16.3607 48.5721 16.4643 48.3098 16.4676 47.659C16.4698 47.2333 16.455 47.1442 16.3411 46.8993C16.1556 46.5006 15.818 46.1692 15.0739 45.6554C14.0989 44.9821 13.6825 44.4402 13.5674 43.6948C13.4731 43.0833 13.5825 42.6517 14.1219 41.5099C14.6802 40.328 14.8185 39.8244 14.9121 38.6329C14.9726 37.8632 15.0563 37.5597 15.2752 37.3161C15.5036 37.0621 15.7091 36.976 16.2742 36.8979C17.1955 36.7709 17.7821 36.5301 18.2643 36.0813C18.6826 35.6919 18.8576 35.3168 18.8845 34.752L18.9049 34.3239L18.6711 34.0486C17.8246 33.0517 6.06023 20 6.00813 20C5.99701 20 6.27557 20.3527 6.62715 20.7837ZM12.1728 46.7163C12.3642 46.3739 12.2625 45.9338 11.9423 45.7187C11.6398 45.5156 11.1699 45.6113 11.1699 45.876C11.1699 45.9568 11.2141 46.0156 11.3138 46.0675C11.4817 46.1548 11.4939 46.2528 11.3618 46.4533C11.2281 46.6564 11.2389 46.8349 11.3923 46.9561C11.6395 47.1517 11.9895 47.0442 12.1728 46.7163ZM17.9337 28.0457C17.5561 27.9865 17.5401 27.9796 17.7179 27.952C18.0584 27.8991 18.8627 27.9712 19.4169 28.1043C20.7107 28.4149 21.888 29.2107 23.1446 30.624L23.4784 30.9995L23.9561 30.9219C25.9682 30.5953 28.015 30.8549 29.7271 31.6537C30.1981 31.8735 30.9407 32.311 31.0334 32.4234C31.0629 32.4592 31.1173 32.6899 31.1539 32.936C31.2811 33.7874 31.2175 34.44 30.9596 34.9275C30.8195 35.1927 30.8116 35.2768 30.9059 35.5038C30.9811 35.6849 31.1911 35.819 31.399 35.8187C31.8244 35.8181 32.2823 35.1235 32.4945 34.1569L32.5788 33.7729L32.7458 33.964C33.6615 35.012 34.3809 36.4413 34.5045 37.4586L34.5366 37.7239L34.3827 37.4828C34.1177 37.0679 33.8516 36.7853 33.5107 36.5575C32.8963 36.1469 32.2465 36.0071 30.5259 35.9155C28.9719 35.8328 28.0925 35.6987 27.2204 35.4115C25.7364 34.9228 24.9885 34.272 23.2259 31.9362C22.443 30.8987 21.9592 30.3247 21.4778 29.8625C20.3841 28.8121 19.3094 28.2612 17.9337 28.0457ZM31.3839 30.3622C31.423 29.6669 31.5164 29.2084 31.704 28.7896C31.7783 28.6239 31.8479 28.4882 31.8585 28.4882C31.8694 28.4882 31.8371 28.6105 31.7868 28.7601C31.6504 29.1665 31.6279 29.7224 31.722 30.3691C31.8412 31.1897 31.9092 31.3081 32.7678 32.1945C33.1705 32.6103 33.639 33.1347 33.8088 33.3598L34.1177 33.7692L33.8088 33.4767C33.4312 33.1189 32.5628 32.4212 32.371 32.3214C32.2423 32.2546 32.2232 32.2557 32.1439 32.3355C32.0708 32.409 32.0553 32.5194 32.0452 33.0415C32.0294 33.8553 31.9196 34.3776 31.6546 34.8999C31.5112 35.1824 31.4886 35.1221 31.6183 34.8032C31.7152 34.5652 31.725 34.4605 31.7243 33.6728C31.7228 32.0899 31.5367 31.7094 30.4457 31.0576C30.1695 30.8924 29.7139 30.6543 29.4337 30.5283C29.1537 30.4023 28.9311 30.2926 28.9391 30.2844C28.9701 30.2534 30.0341 30.567 30.4623 30.7334C31.0993 30.9809 31.2044 31.013 31.2818 30.9831C31.3336 30.9631 31.3587 30.8106 31.3839 30.3622ZM17.529 29.147C17.4263 30.369 17.9006 32.0037 18.6673 33.0699C19.2617 33.8964 20.183 34.5386 20.8632 34.6007C21.3085 34.6413 21.4424 34.5004 21.2409 34.2033C20.9612 33.7906 20.6171 33.1553 20.5261 32.8832C20.4695 32.7143 20.3466 32.2151 20.2529 31.774C19.9331 30.2681 19.6188 29.6816 18.8926 29.2362C18.628 29.0738 18.063 28.8614 17.7352 28.801L17.5607 28.7688L17.529 29.147ZM30.454 41.005C26.8709 39.5478 25.6089 38.283 25.6089 36.1488C25.6089 35.8347 25.6197 35.5778 25.6327 35.5778C25.6458 35.5778 25.7844 35.6814 25.9407 35.8081C26.6673 36.3967 27.4809 36.6482 29.7334 36.98C31.0587 37.1754 31.8046 37.3331 32.4927 37.5637C34.6796 38.2963 36.0327 39.7829 36.3554 41.8079C36.4491 42.3963 36.3941 43.4997 36.2421 44.0812C36.1221 44.5406 35.7558 45.3684 35.6588 45.4002C35.6318 45.409 35.6053 45.3048 35.5985 45.163C35.5617 44.4026 35.1812 43.6624 34.5424 43.1078C33.816 42.4773 32.84 41.9754 30.454 41.005ZM27.7655 40.8446C27.8158 40.996 27.8937 41.3404 27.9385 41.6103C28.2255 43.3355 27.3289 44.7294 25.5849 45.2695C25.4003 45.3266 24.673 45.4705 23.9688 45.5888C22.5431 45.8286 21.9069 45.9984 21.2677 46.3094C20.8143 46.53 20.2655 46.8604 20.2981 46.8932C20.3086 46.9038 20.4121 46.8788 20.528 46.8377C21.3341 46.5518 22.2312 46.4038 23.5942 46.3322C24.1351 46.3039 24.7503 46.2586 24.9614 46.2318C26.1756 46.0773 27.0173 45.7047 27.6717 45.0319C28.0359 44.6575 28.253 44.3087 28.4279 43.8169C28.5388 43.5049 28.5538 43.389 28.5546 42.8362C28.5556 42.273 28.5422 42.1699 28.422 41.8234C28.2646 41.3692 28.079 41.0284 27.8439 40.7619L27.6741 40.5694L27.7655 40.8446ZM29.5811 44.5568C29.1049 43.523 28.9957 42.525 29.2564 41.5943C29.2844 41.4948 29.3292 41.4134 29.3563 41.4134C29.3833 41.4134 29.4955 41.4748 29.6059 41.5497C29.8252 41.6989 30.2652 41.9501 31.4373 42.5956C32.9001 43.4011 33.7341 44.0248 34.3012 44.7376C34.7978 45.3616 35.1052 46.0723 35.253 46.9391C35.3369 47.4301 35.2878 48.6115 35.1631 49.1058C34.7698 50.6647 33.8558 51.8891 32.5522 52.6037C32.3612 52.7083 32.1897 52.7942 32.171 52.7947C32.1526 52.795 32.2222 52.6164 32.3257 52.3974C32.7643 51.4714 32.8142 50.5707 32.4827 49.5682C32.2796 48.9543 31.8657 48.2053 31.0299 46.9393C30.0583 45.4675 29.82 45.0757 29.5811 44.5568ZM20.6138 47.9472C19.1068 48.1945 17.4524 49 16.1228 50.1339L15.7269 50.4716L16.0748 50.5265C17.8903 50.8127 18.3791 51.0666 19.6384 52.3769C20.3631 53.1308 20.6078 53.2986 21.2089 53.4537C22.0917 53.6812 22.962 53.263 23.2605 52.4675C23.3939 52.112 23.376 51.5235 23.223 51.228C22.8591 50.5242 21.7987 50.2968 21.286 50.8122C20.8589 51.2416 20.9833 51.8884 21.5145 51.9997C21.6361 52.0253 21.6327 52.0198 21.4835 51.9517C21.2511 51.8455 21.1501 51.6983 21.1488 51.4641C21.1458 50.9148 21.7681 50.6065 22.347 50.8702C22.7708 51.0635 22.9392 51.3159 22.9392 51.7584C22.9392 52.4399 22.365 52.9533 21.6967 52.8694C21.3396 52.8245 20.9028 52.5937 20.6685 52.3263C20.0791 51.6532 20.3087 50.591 21.1316 50.1834C21.7581 49.8732 22.5908 49.9496 23.2365 50.3767C23.9784 50.8675 24.2939 51.316 24.9329 52.7882C25.141 53.2675 25.4088 53.8071 25.5278 53.9873C26.1332 54.9025 26.8584 55.3513 27.732 55.3513C28.2138 55.3513 28.5763 55.2624 29.0323 55.0325C29.3711 54.8615 29.8515 54.5367 29.8168 54.5019C29.807 54.4921 29.6665 54.5362 29.5045 54.6C28.5507 54.9757 27.581 54.9499 27.0179 54.5335C26.6633 54.2715 26.3773 53.7493 26.2302 53.0964C26.2048 52.9833 26.1209 52.4842 26.0436 51.987C25.8478 50.727 25.6598 50.1606 25.2215 49.5106C24.7729 48.8456 23.9107 48.2875 22.9467 48.0383C22.3452 47.8828 21.2633 47.8405 20.6138 47.9472ZM18.5032 38.2052C18.6334 37.7197 19.0538 37.2567 19.4863 37.1225C19.7613 37.0373 20.3298 37.0917 20.597 37.2289C21.115 37.4949 21.4911 38.1008 21.4095 38.5382C21.3099 39.0715 20.4537 39.4982 19.4688 39.5052C18.9657 39.5087 18.7799 39.4404 18.5878 39.1814C18.4689 39.0209 18.4238 38.5014 18.5032 38.2052ZM20.4648 37.419C20.7231 37.5784 20.7895 37.8139 20.6377 38.0319C20.533 38.1821 20.2091 38.3247 19.9725 38.3247C19.6169 38.3247 19.2289 38.0697 19.2289 37.8361C19.2289 37.3667 19.9728 37.1155 20.4648 37.419ZM97.6677 38.763C96.8642 36.0903 98.1893 33.8734 101.017 33.1611C101.827 32.9567 105.499 33.0489 106.128 33.2896C106.359 33.3777 106.46 33.7162 106.462 34.4119C106.464 34.9597 106.523 35.6251 106.595 35.8904C106.703 36.2926 106.639 36.3717 106.215 36.3653C105.831 36.3593 105.599 36.1343 105.275 35.4537C104.757 34.3666 104.13 34.0208 102.67 34.0167C100.805 34.0114 99.4406 35.2669 99.6628 36.7838C99.8074 37.771 100.794 38.7423 103.007 40.0776C105.113 41.3478 106.342 42.3923 106.832 43.3282C108.142 45.8303 107.023 48.5078 104.105 49.8569C102.608 50.5493 100.097 50.6209 98.3326 50.0216L97.2025 49.6376V47.8318C97.2025 46.1964 97.2414 46.0257 97.6142 46.0257C97.9261 46.0257 98.0607 46.2318 98.1701 46.8775C98.4425 48.483 99.6626 49.4576 101.4 49.4576C103.102 49.4576 104.292 48.5276 104.748 46.8412C104.942 46.1228 104.909 45.8579 104.524 45.0654C104.062 44.1152 103.268 43.4847 100.569 41.9277C99.071 41.0636 98.012 39.9083 97.6677 38.763ZM44.7594 34.228C44.3912 34.228 44.2475 34.1077 44.2475 33.799C44.2475 33.3904 44.3912 33.37 47.277 33.37C49.9555 33.37 50.2983 33.4103 50.2369 33.7177C50.1984 33.909 49.8283 34.1744 49.4139 34.3076L48.6604 34.5498L48.5961 40.0196C48.553 43.6695 48.6136 45.775 48.7779 46.3474C49.2666 48.0498 50.7572 49.0288 52.8603 49.0288C54.3245 49.0288 55.1797 48.6865 56.2543 47.6698C57.4101 46.577 57.5944 45.5386 57.5907 40.1415C57.5872 34.8179 57.4945 34.3786 56.3512 34.2681C55.8309 34.2177 55.6566 34.0965 55.6566 33.7855C55.6566 33.3977 55.8282 33.37 58.2397 33.37C60.6794 33.37 60.8229 33.3938 60.8229 33.799C60.8229 34.0633 60.6782 34.2293 60.4461 34.2312C59.4491 34.24 59.4308 34.3349 59.2966 40.1723C59.1574 46.2343 59.0274 46.9521 57.7989 48.437C57.4446 48.8654 56.5996 49.4874 55.9213 49.8194C54.816 50.3604 54.4643 50.4225 52.5352 50.419C50.7569 50.4153 50.1954 50.3294 49.3062 49.9247C48.0082 49.3338 47.1641 48.5691 46.5417 47.4199C46.1074 46.6178 46.0702 46.1837 45.9697 40.7489C45.8545 34.5279 45.7987 34.228 44.7594 34.228ZM64.9028 34.228C64.4106 34.228 64.2671 34.1311 64.2671 33.799C64.2671 33.3968 64.4046 33.3711 66.4735 33.3876L68.68 33.4052L69.7358 34.621C70.316 35.2896 72.208 37.3812 73.9397 39.2688C75.6716 41.1565 77.6598 43.3523 78.3579 44.1487C79.0562 44.9452 79.7134 45.5967 79.8184 45.5967C79.9263 45.5967 79.9801 43.347 79.9416 40.4297L79.8737 35.2628L79.2697 34.7454C78.9375 34.4608 78.4292 34.228 78.1397 34.228C77.7546 34.228 77.6135 34.1113 77.6135 33.793C77.6135 33.3741 77.7234 33.3601 80.5733 33.4176C82.9966 33.4665 83.5332 33.5341 83.5332 33.7902C83.5332 33.9728 83.2335 34.1643 82.8136 34.2499C82.418 34.3306 81.982 34.5082 81.845 34.6446C81.6682 34.8207 81.5781 37.0977 81.5343 42.4969L81.4725 50.1011H80.8487C80.3116 50.1011 79.6722 49.4968 76.2541 45.7575C74.0702 43.3683 71.5211 40.5289 70.5894 39.4477C69.6575 38.3664 68.8225 37.4735 68.7338 37.4636C68.4839 37.4357 68.5443 47.0966 68.7999 48.0137C68.9992 48.7282 69.1362 48.8513 69.9828 49.077C70.6646 49.2587 70.9403 49.443 70.9403 49.7167C70.9403 50.0682 70.6804 50.1011 67.9266 50.1011C65.1234 50.1011 64.9129 50.0732 64.9129 49.6991C64.9129 49.4252 65.1157 49.2565 65.5489 49.1701C66.8634 48.9082 66.9507 48.4925 67.0244 42.1374C67.0657 38.5781 67.0051 36.0878 66.8641 35.5663C66.6163 34.6493 65.999 34.228 64.9028 34.228ZM87.4746 34.228C87.0134 34.228 86.8699 34.1261 86.8699 33.799C86.8699 33.3891 87.0134 33.37 90.0989 33.37C93.1842 33.37 93.3278 33.3891 93.3278 33.799C93.3278 34.1137 93.1842 34.228 92.7896 34.228C92.4937 34.228 92.0538 34.425 91.8123 34.6656C91.3859 35.0905 91.3749 35.3018 91.4357 41.8691C91.4948 48.2799 91.5201 48.6508 91.9158 48.939C92.1457 49.1063 92.5573 49.2432 92.8307 49.2432C93.1842 49.2432 93.3278 49.3669 93.3278 49.6723C93.3278 50.0822 93.1842 50.1011 90.0989 50.1011C87.0868 50.1011 86.8699 50.0742 86.8699 49.6997C86.8699 49.3977 87.0812 49.2643 87.7227 49.1621C88.9965 48.9592 89.0616 48.5436 88.9822 41.1282C88.9188 35.1897 88.8915 34.8194 88.497 34.5322C88.2671 34.3649 87.8071 34.228 87.4746 34.228ZM109.998 34.228C109.704 34.228 109.48 34.0648 109.41 33.799C109.302 33.3842 109.404 33.37 112.507 33.37C115.572 33.37 115.715 33.3891 115.715 33.799C115.715 34.1287 115.572 34.228 115.096 34.228C113.741 34.228 113.771 34.4734 115.822 40.0831C116.866 42.9386 117.88 45.6511 118.074 46.1108L118.429 46.9468L120.073 42.5715C122.008 37.4214 122.26 36.4689 121.931 35.5296C121.702 34.875 120.811 34.228 120.139 34.228C119.949 34.228 119.805 34.0436 119.805 33.799C119.805 33.3885 119.949 33.37 123.142 33.37C126.335 33.37 126.478 33.3885 126.478 33.799C126.478 34.1043 126.335 34.228 125.981 34.228C125.076 34.228 124.677 34.7089 124.807 35.6433C124.941 36.6052 128.644 46.9426 128.799 46.7879C129.051 46.5364 133.152 35.408 133.152 34.9743C133.152 34.4545 132.787 34.228 131.95 34.228C131.573 34.228 131.429 34.1098 131.429 33.799C131.429 33.3938 131.573 33.37 134.013 33.37C136.204 33.37 136.596 33.4207 136.596 33.7029C136.596 33.8861 136.328 34.1291 135.999 34.243C135.262 34.4994 135.076 34.7919 134.15 37.162C133.744 38.2027 132.472 41.46 131.323 44.3999C130.175 47.3402 129.186 49.874 129.125 50.0307C129.065 50.1876 128.709 50.3158 128.334 50.3158H127.653L126.107 46.2938C125.256 44.0819 124.251 41.4613 123.874 40.4703C123.227 38.7723 123.173 38.6985 122.929 39.1832C122.787 39.4664 121.766 42.0917 120.659 45.0173L118.646 50.3367L117.895 50.2726L117.144 50.2085L114.28 42.7177C112.679 38.5325 111.208 35.0062 110.945 34.7274C110.686 34.4526 110.26 34.228 109.998 34.228ZM153.041 34.319C153.005 34.2375 153.005 33.9447 153.005 33.9447C153.005 33.9447 152.997 33.8391 153.041 33.7827C153.085 33.7266 153.101 33.7251 153.259 33.71L153.261 33.7099C153.842 33.6546 155.008 33.5615 155.981 33.5191C156.07 33.5152 156.169 33.5107 156.277 33.5058L156.279 33.5057L156.281 33.5056L156.281 33.5056C157.352 33.457 159.269 33.392 160.586 33.4578C163.114 33.5841 164.911 34.8058 165.524 36.8246C166.137 38.8434 165.813 40.7384 164.978 41.9446C164.142 43.1509 162.738 44.1895 160.404 44.1219C158.478 44.0661 157.962 43.7053 157.55 43.4171C157.463 43.3562 157.381 43.2984 157.291 43.2476V45.8221C157.311 47.5779 157.326 48.4212 157.462 48.7334C157.645 49.1536 158.059 49.4125 158.866 49.611C158.866 49.611 159.231 49.6966 159.325 49.7878C159.419 49.879 159.419 50.0817 159.419 50.0817C159.419 50.0817 159.438 50.2711 159.363 50.3677C159.287 50.4643 159.141 50.445 159.141 50.445L155.568 50.4161L153.414 50.4105C153.414 50.4105 153.188 50.4538 153.103 50.3629C153.018 50.2718 153.026 50.0822 153.026 50.0822C153.026 50.0822 153.045 49.8779 153.144 49.7865C153.242 49.6949 153.61 49.5927 153.61 49.5927C154.441 49.3594 154.801 49.1127 154.99 48.6478C155.141 48.273 155.142 47.5781 155.141 41.9068C155.139 36.5286 155.131 35.5254 155.008 35.2368C154.826 34.8097 154.369 34.6966 153.718 34.5354L153.718 34.5354C153.589 34.5034 153.452 34.4696 153.309 34.4311C153.309 34.4311 153.077 34.4005 153.041 34.319ZM163.444 38.7075C163.444 39.5894 163.429 40.9702 162.49 41.8527C161.551 42.7353 159.703 42.9769 158.448 42.7312C158.052 42.6537 157.826 42.5344 157.652 42.4423L157.634 42.4331L157.313 42.264L157.294 39.1654C157.283 37.2239 157.303 35.959 157.349 35.7781C157.391 34.7544 158.901 34.6271 159.638 34.665C162.795 34.665 163.352 37.3246 163.444 38.7075ZM143.129 33.4901C143.129 33.4901 142.974 33.5493 142.741 33.6379L141.898 34.0733L141.291 35.5885C140.957 36.4218 140.347 37.9516 139.934 38.9881C139.183 40.8758 138.687 42.116 138.165 43.4104C138.011 43.7912 137.547 44.9507 137.134 45.9871C136.721 47.0234 136.308 48.0097 136.217 48.1788C136.201 48.2069 136.185 48.2373 136.168 48.2692C135.937 48.7034 135.536 49.4576 134.827 49.5717C134.827 49.5717 134.438 49.61 134.293 49.7525C134.149 49.8952 134.163 50.0117 134.163 50.0117V50.1914C134.163 50.1914 134.176 50.2785 134.258 50.3217C134.339 50.3652 134.45 50.3677 134.45 50.3677L137.043 50.3382H139.722C139.722 50.3382 139.912 50.3604 139.985 50.2998C140.058 50.2392 140.078 50.1493 140.078 50.1493V49.9601C140.078 49.9601 140.041 49.755 139.935 49.6749C139.829 49.595 139.431 49.5402 139.431 49.5402C138.358 49.3992 138.173 48.5879 138.306 47.8583C138.371 47.4999 138.802 46.1739 139.287 44.839L139.455 44.3776L142.263 44.3561C143.807 44.3443 145.141 44.3523 145.226 44.3739C145.348 44.4047 145.518 44.7512 146.019 45.9853C146.778 47.855 146.839 48.0827 146.671 48.4325C146.661 48.4539 146.65 48.4773 146.638 48.5026C146.48 48.841 146.174 49.4983 145.403 49.5652C145.403 49.5652 144.993 49.5794 144.891 49.7017C144.79 49.8243 144.812 49.9651 144.812 49.9651V50.1523C144.812 50.1523 144.839 50.262 144.891 50.3054C144.944 50.3489 145.033 50.3379 145.033 50.3379L147.581 50.3196L151.164 50.3194C151.164 50.3194 151.304 50.3344 151.343 50.2805C151.381 50.2263 151.389 50.1627 151.389 50.1627V49.9142C151.389 49.9142 151.373 49.782 151.304 49.7091C151.236 49.6363 150.771 49.5594 150.771 49.5594C150.177 49.4636 149.882 48.9738 149.662 48.609C149.606 48.516 149.554 48.4311 149.505 48.363C149.402 48.2239 149.038 47.4621 148.753 46.7293C148.468 45.9966 147.824 44.3413 147.323 43.0512C146.821 41.761 146.121 39.9612 145.768 39.0518C145.414 38.1423 144.741 36.4117 144.273 35.2061C144.197 35.0083 144.128 34.8305 144.066 34.6714L144.066 34.6707C143.752 33.8611 143.626 33.5344 143.591 33.4901C143.478 33.3466 143.129 33.4901 143.129 33.4901ZM142.962 38.4168C142.849 38.1419 142.65 37.6488 142.52 37.321C142.283 36.7251 142.193 36.5878 142.12 36.7109C142.099 36.7469 141.95 37.1541 141.79 37.616C140.751 40.6062 140.28 41.9526 140.186 42.2064C140.126 42.3659 140.078 42.5302 140.078 42.5717C140.078 42.6193 140.923 42.6471 142.371 42.6471C143.632 42.6471 144.664 42.6314 144.664 42.6123C144.664 42.5931 144.551 42.3078 144.414 41.9778C144.276 41.6478 143.94 40.8241 143.666 40.1473C143.392 39.4706 143.075 38.6919 142.962 38.4168Z" fill="#FF007A"/>
</svg>
