<svg width="80" height="80" viewBox="0 0 80 80" fill="none" xmlns="http://www.w3.org/2000/svg">
<path d="M79.9954 19.2945C79.9954 19.2945 69.5479 7.94781 61.1172 5.33594L38.7031 37.9592V59.6629L79.9954 19.2945Z" fill="#F9CFFB"/>
<path d="M0.00463104 19.2945C0.00463104 19.2945 10.4521 7.94781 18.8828 5.33594L41.2969 37.9592V59.6629L0.00463104 19.2945Z" fill="#F9CFFB"/>
<circle cx="40.0026" cy="43.8464" r="26.6667" fill="#3055FE"/>
<path d="M38.3316 32.7026C39.0648 31.4019 40.9379 31.4018 41.671 32.7026L44.2913 37.3514C44.4102 37.5624 44.615 37.7112 44.8524 37.7591L50.0834 38.8145C51.547 39.1098 52.1259 40.8913 51.1154 41.9905L47.5038 45.9191C47.3399 46.0974 47.2616 46.3381 47.2895 46.5787L47.9021 51.8798C48.0735 53.3631 46.5582 54.4641 45.2005 53.8427L40.3481 51.6219C40.1279 51.5211 39.8748 51.5211 39.6545 51.6219L34.8022 53.8427C33.4445 54.4641 31.9291 53.3631 32.1006 51.8798L32.7132 46.5787C32.741 46.3381 32.6628 46.0974 32.4989 45.9191L28.8873 41.9905C27.8768 40.8913 28.4556 39.1098 29.9193 38.8145L35.1502 37.7591C35.3876 37.7112 35.5925 37.5624 35.7114 37.3514L38.3316 32.7026Z" fill="#F9CFFB"/>
</svg>
