<svg width="60" height="66" viewBox="0 0 60 66" fill="none" xmlns="http://www.w3.org/2000/svg">
<path d="M30.0013 65.4519C51.6255 57.3167 58.6644 46.8917 59.1331 14.3832C59.1613 12.4273 57.475 10.751 55.5445 10.4347C51.3494 9.74736 43.3547 7.59334 30.7979 0.969801C30.3057 0.710159 29.697 0.710159 29.2048 0.969801C16.6478 7.59339 8.65295 9.74739 4.45779 10.4348C2.52737 10.751 0.841001 12.4273 0.869202 14.3832C1.33791 46.8917 8.37717 57.3167 30.0013 65.4519Z" fill="#3055FE"/>
<path fill-rule="evenodd" clip-rule="evenodd" d="M29.9972 24.0829C28.2 24.0829 26.7431 25.5399 26.7431 27.3371V28.2278H23.1632V27.3371C23.1632 23.5627 26.2229 20.5031 29.9972 20.5031C33.7715 20.5031 36.8312 23.5627 36.8312 27.3371V28.2278H33.2513V27.3371C33.2513 25.5399 31.7944 24.0829 29.9972 24.0829ZM19.2578 31.923C19.2578 30.476 19.2578 29.7524 19.5922 29.2256C19.7616 28.9586 19.9879 28.7323 20.2548 28.5629C20.7817 28.2285 21.5052 28.2285 22.9523 28.2285H37.0427C38.4897 28.2285 39.2132 28.2285 39.7401 28.5629C40.0071 28.7323 40.2334 28.9586 40.4028 29.2256C40.7371 29.7524 40.7371 30.476 40.7371 31.923V39.9162C40.7371 41.1322 40.7371 41.7403 40.4527 42.2365C40.3137 42.4788 40.1044 42.7161 39.8813 42.8841C39.4243 43.2282 38.8478 43.3006 37.6949 43.4453C35.662 43.7006 32.8468 43.969 29.9975 43.969C27.1482 43.969 24.333 43.7006 22.3001 43.4453C21.1471 43.3006 20.5706 43.2282 20.1137 42.8841C19.8905 42.7161 19.6812 42.4788 19.5423 42.2365C19.2578 41.7403 19.2578 41.1322 19.2578 39.9162V31.923ZM29.9995 32.6524C29.0117 32.6524 28.2109 33.4531 28.2109 34.441V37.5459C28.2109 38.4079 28.8258 39.1473 29.6734 39.3045C29.889 39.3445 30.1101 39.3445 30.3257 39.3045C31.1732 39.1473 31.7881 38.4079 31.7881 37.5459V34.441C31.7881 33.4531 30.9873 32.6524 29.9995 32.6524Z" fill="#F9CFFB"/>
</svg>
