<svg width="68" height="62" viewBox="0 0 68 62" fill="none" xmlns="http://www.w3.org/2000/svg">
<path d="M14.1918 18.1877C9.39224 12.3709 6.99247 9.46251 7.31096 6.69435C7.46354 5.36818 8.08169 4.01096 8.98202 3.02536C10.8613 0.968069 14.5362 0.871887 21.8861 0.679522C25.565 0.583237 29.6278 0.521484 33.9976 0.521484C38.3675 0.521484 42.4303 0.583237 46.1091 0.679522C53.459 0.871887 57.134 0.968069 59.0133 3.02536C59.9136 4.01096 60.5317 5.36818 60.6843 6.69435C61.0028 9.46251 58.603 12.3709 53.8035 18.1877L42.6876 31.6597C39.3503 35.7043 37.6817 37.7266 35.597 38.2515C34.5471 38.5158 33.4482 38.5158 32.3983 38.2515C30.3136 37.7266 28.6449 35.7043 25.3077 31.6597L14.1918 18.1877Z" fill="#3055FE"/>
<path d="M14.1918 43.8103C9.39224 49.6271 6.99247 52.5355 7.31096 55.3037C7.46354 56.6299 8.08169 57.9871 8.98202 58.9727C10.8613 61.03 14.5362 61.1262 21.8861 61.3185C25.565 61.4148 29.6278 61.4766 33.9976 61.4766C38.3675 61.4766 42.4303 61.4148 46.1091 61.3185C53.459 61.1262 57.134 61.03 59.0133 58.9727C59.9136 57.9871 60.5317 56.6299 60.6843 55.3037C61.0028 52.5355 58.603 49.6271 53.8035 43.8103L36.7233 23.11C35.3099 21.397 32.6854 21.397 31.2719 23.11L14.1918 43.8103Z" fill="#3055FE"/>
<path d="M23.6004 47.9456C21.8274 49.4838 20.9408 50.2529 20.9444 51.0181C20.9461 51.3862 21.0792 51.7632 21.309 52.0508C21.7866 52.6486 22.9426 52.69 25.2546 52.7729C27.6747 52.8596 30.644 52.9277 34.0019 52.9277C37.3598 52.9277 40.329 52.8596 42.7492 52.7729C45.0611 52.69 46.2171 52.6486 46.6948 52.0508C46.9246 51.7632 47.0577 51.3862 47.0594 51.0181C47.0629 50.2529 46.1764 49.4838 44.4033 47.9456L35.8804 40.5515C35.1354 39.9051 34.7629 39.5819 34.3331 39.4947C34.1145 39.4504 33.8892 39.4504 33.6706 39.4947C33.2409 39.5819 32.8684 39.9051 32.1233 40.5515L23.6004 47.9456Z" fill="#F9CFFB"/>
</svg>
