<svg width="40" height="40" viewBox="0 0 40 40" fill="none" xmlns="http://www.w3.org/2000/svg">
<g clip-path="url(#clip0_1_15212)">
<circle cx="20" cy="20" r="20" fill="#3055FE"/>
<path d="M18.4541 10.1644C19.254 9.19761 20.7363 9.19761 21.5361 10.1644L22.3628 11.1637L23.5784 10.7117C24.7545 10.2743 26.0382 11.0154 26.2474 12.2527L26.4637 13.5314L27.7425 13.7477C28.9797 13.957 29.7208 15.2407 29.2835 16.4168L28.8314 17.6323L29.8307 18.459C30.7975 19.2589 30.7975 20.7411 29.8307 21.541L28.8314 22.3677L29.2835 23.5832C29.7208 24.7593 28.9797 26.043 27.7425 26.2523L26.4637 26.4686L26.2474 27.7473C26.0382 28.9846 24.7545 29.7257 23.5783 29.2883L22.3628 28.8363L21.5361 29.8356C20.7363 30.8024 19.254 30.8024 18.4541 29.8356L17.6274 28.8363L16.4119 29.2883C15.2358 29.7257 13.9521 28.9846 13.7428 27.7473L13.5265 26.4686L12.2478 26.2523C11.0105 26.043 10.2694 24.7593 10.7068 23.5832L11.1588 22.3677L10.1596 21.541C9.19273 20.7411 9.19273 19.2589 10.1596 18.459L11.1588 17.6323L10.7068 16.4168C10.2694 15.2407 11.0105 13.957 12.2478 13.7477L13.5265 13.5314L13.7428 12.2527C13.9521 11.0154 15.2358 10.2743 16.4119 10.7117L17.6274 11.1637L18.4541 10.1644Z" fill="white"/>
<path d="M16.1758 19.8962L19.2384 22.2523L23.8255 17.6499" stroke="#3055FE" stroke-width="2" stroke-linecap="round"/>
</g>
<defs>
<clipPath id="clip0_1_15212">
<rect width="40" height="40" fill="white"/>
</clipPath>
</defs>
</svg>
