<svg width="14" height="14" viewBox="0 0 14 14" fill="none" xmlns="http://www.w3.org/2000/svg">
<path d="M5.45752 13.2891C5.04736 13.2891 4.73975 13.1353 4.46143 12.791L0.66748 8.11816C0.455078 7.86182 0.367188 7.62012 0.367188 7.36377C0.367188 6.77783 0.799316 6.35303 1.3999 6.35303C1.75879 6.35303 2.00781 6.48486 2.24951 6.78516L5.42822 10.8135L11.6318 0.984375C11.8809 0.588867 12.1299 0.442383 12.54 0.442383C13.1333 0.442383 13.5581 0.859863 13.5581 1.43848C13.5581 1.66553 13.4922 1.8999 13.3164 2.16357L6.46094 12.769C6.22656 13.1206 5.88965 13.2891 5.45752 13.2891Z" fill="#2F54FE"/>
</svg>
