<svg width="120" height="120" viewBox="0 0 120 120" fill="none" xmlns="http://www.w3.org/2000/svg">
<path fill-rule="evenodd" clip-rule="evenodd" d="M22.1018 40.303L59.9967 56.8853L97.898 40.3002C97.7963 38.9219 97.5848 37.912 97.1448 37.0337C96.4023 35.5517 95.2015 34.3234 93.7367 33.5475C92.0648 32.662 89.8991 32.6129 85.5675 32.5148C77.7244 32.337 67.6635 32.1504 60 32.1504C52.3365 32.1504 42.2756 32.337 34.4325 32.5148C30.1009 32.6129 27.9352 32.662 26.2633 33.5475C24.7985 34.3234 23.5977 35.5517 22.8552 37.0337C22.4149 37.9126 22.2034 38.9233 22.1018 40.303ZM97.9922 46.8083L62.0011 62.5575C60.7233 63.1166 59.27 63.1166 57.9923 62.5575L22.0078 46.8112V75.1198C22.0078 79.3317 22.0078 81.4376 22.8419 83.1181C23.5636 84.5723 24.7737 85.8257 26.2016 86.5981C27.8518 87.4907 29.9148 87.5632 34.0409 87.7083H34.0409C40.765 87.9447 49.8319 88.1696 60 88.1696C70.1681 88.1696 79.235 87.9447 85.9591 87.7083H85.9591C90.0852 87.5632 92.1482 87.4907 93.7984 86.5981C95.2263 85.8257 96.4364 84.5723 97.1581 83.1181C97.9922 81.4376 97.9922 79.3317 97.9922 75.1198V46.8083Z" fill="#3055FE"/>
<circle cx="97.9916" cy="37.4752" r="13.3285" fill="#F9CFFB" stroke="white" stroke-width="4"/>
</svg>
