<svg width="40" height="40" viewBox="0 0 40 40" fill="none" xmlns="http://www.w3.org/2000/svg">
<g clip-path="url(#clip0_1_15201)">
<circle cx="20" cy="20" r="20" fill="#3055FE"/>
<path d="M19.9994 29.9455C15.6332 29.9455 13.7202 29.6971 12.492 27.7671C12.0228 27.1219 11.9641 26.3008 12.2574 25.5383C13.4304 22.5471 16.539 20.5529 19.9994 20.5529C23.4599 20.5529 26.5684 22.5471 27.7415 25.5383C28.0347 26.2421 27.9761 27.1219 27.5069 27.7671C26.2787 29.6971 24.3656 29.9455 19.9994 29.9455ZM19.9994 19.4385C17.4187 19.4385 15.3073 17.327 15.3073 14.7464C15.3073 12.1657 17.4187 10.0542 19.9994 10.0542C22.5801 10.0542 24.6916 12.1657 24.6916 14.7464C24.6916 17.327 22.5801 19.4385 19.9994 19.4385Z" fill="white"/>
</g>
<defs>
<clipPath id="clip0_1_15201">
<rect width="40" height="40" fill="white"/>
</clipPath>
</defs>
</svg>
