<svg width="55" height="22" viewBox="0 0 55 22" fill="none" xmlns="http://www.w3.org/2000/svg">
<path fill-rule="evenodd" clip-rule="evenodd" d="M16.3813 17.7852H12.5724L9.71615 6.56797C9.58058 6.05197 9.29273 5.59581 8.86931 5.38081C7.81261 4.84051 6.6482 4.41052 5.37793 4.19365V3.76179H11.5138C12.3607 3.76179 12.9958 4.41052 13.1017 5.16394L14.5837 13.2553L18.3907 3.76179H22.0938L16.3813 17.7852ZM24.213 17.7854H20.6157L23.5778 3.76196H27.1751L24.213 17.7854ZM31.8291 7.64668C31.935 6.89139 32.5701 6.45953 33.3111 6.45953C34.4755 6.35109 35.7439 6.56796 36.8025 7.10639L37.4376 4.08708C36.379 3.65522 35.2146 3.43835 34.1579 3.43835C30.6665 3.43835 28.126 5.3808 28.126 8.07668C28.126 10.1276 29.9256 11.2044 31.1958 11.8531C32.5701 12.5 33.0994 12.9319 32.9935 13.5787C32.9935 14.549 31.935 14.9809 30.8783 14.9809C29.608 14.9809 28.3377 14.6574 27.1752 14.1172L26.54 17.1383C27.8103 17.6768 29.1846 17.8936 30.4548 17.8936C34.3696 18.0002 36.8025 16.0596 36.8025 13.1469C36.8025 9.47883 31.8291 9.26383 31.8291 7.64668ZM49.392 17.7854L46.5358 3.76196H43.4678C42.8327 3.76196 42.1976 4.19383 41.9858 4.84069L36.6968 17.7854H40.3999L41.139 15.7363H45.6889L46.1124 17.7854H49.392ZM43.9948 7.53851L45.0515 12.8237H42.0894L43.9948 7.53851Z" fill="#172B85"/>
</svg>
