<svg width="24" height="24" viewBox="0 0 24 24" fill="none" xmlns="http://www.w3.org/2000/svg">
<circle cx="12" cy="12" r="8.35156" stroke="white"/>
<path d="M15.1888 12C15.1888 14.3948 14.7834 16.5394 14.147 18.0667C13.8284 18.8314 13.4617 19.4177 13.0801 19.8051C12.7002 20.1907 12.3357 20.3516 12.0007 20.3516C11.6656 20.3516 11.3012 20.1907 10.9213 19.8051C10.5396 19.4177 10.1729 18.8314 9.85427 18.0667C9.2179 16.5394 8.8125 14.3948 8.8125 12C8.8125 9.60522 9.2179 7.46061 9.85427 5.93331C10.1729 5.16856 10.5396 4.58233 10.9213 4.19493C11.3012 3.80929 11.6656 3.64844 12.0007 3.64844C12.3357 3.64844 12.7002 3.80929 13.0801 4.19493C13.4617 4.58233 13.8284 5.16856 14.147 5.93331C14.7834 7.46061 15.1888 9.60522 15.1888 12Z" stroke="white"/>
<path d="M3.89062 9.14844H20.1185" stroke="white"/>
<path d="M3.89062 14.8516H20.1185" stroke="white"/>
</svg>
