<svg width="16" height="16" viewBox="0 0 16 16" fill="none" xmlns="http://www.w3.org/2000/svg">
<path d="M5.17811 13.9756C4.25283 13.9756 3.77832 13.4892 3.77832 12.4868V8.19844C3.77832 7.30874 4.15793 6.8283 4.89934 6.7334V5.34547C4.89934 3.18647 6.33472 2.02393 8.00736 2.02393C9.67406 2.02393 11.1154 3.18647 11.1154 5.34547V6.7334C11.8509 6.8283 12.2305 7.31467 12.2305 8.19844V12.4868C12.2305 13.4892 11.756 13.9756 10.8307 13.9756H5.17811ZM6.13899 5.2565V6.72154H9.88166V5.2565C9.88166 3.94568 9.02755 3.21019 8.00736 3.21019C6.98124 3.21019 6.13899 3.94568 6.13899 5.2565Z" fill="#2F54FE"/>
</svg>
