<svg width="15" height="14" viewBox="0 0 15 14" fill="none" xmlns="http://www.w3.org/2000/svg">
<path d="M11.4833 4.59069C11.2275 4.44351 10.8985 4.44351 10.6061 4.59069L8.55905 5.80493L7.17002 6.57764L5.15957 7.79188C4.9037 7.93906 4.57472 7.93906 4.28229 7.79188L2.71049 6.8352C2.45461 6.68802 2.27185 6.39366 2.27185 6.0625V4.22274C2.27185 3.92838 2.41806 3.63402 2.71049 3.45004L4.28229 2.53016C4.53817 2.38298 4.86715 2.38298 5.15957 2.53016L6.73138 3.48683C6.98725 3.63402 7.17002 3.92838 7.17002 4.25953V5.47378L8.55905 4.66428V3.41324C8.55905 3.11888 8.41284 2.82452 8.12041 2.64054L5.19613 0.911167C4.94025 0.763986 4.61127 0.763986 4.31884 0.911167L1.32145 2.67734C1.02903 2.82452 0.882812 3.11888 0.882812 3.41324V6.872C0.882812 7.16636 1.02903 7.46072 1.32145 7.6447L4.28229 9.37407C4.53817 9.52126 4.86715 9.52126 5.15957 9.37407L7.17002 8.19663L8.55905 7.38713L10.5695 6.20968C10.8254 6.0625 11.1544 6.0625 11.4468 6.20968L13.0186 7.12956C13.2745 7.27675 13.4572 7.57111 13.4572 7.90226V9.74203C13.4572 10.0364 13.311 10.3308 13.0186 10.5147L11.4833 11.4346C11.2275 11.5818 10.8985 11.5818 10.6061 11.4346L9.03425 10.5147C8.77837 10.3675 8.59561 10.0732 8.59561 9.74203V8.56458L7.20657 9.37407V10.5883C7.20657 10.8827 7.35279 11.177 7.64522 11.361L10.6061 13.0904C10.8619 13.2376 11.1909 13.2376 11.4833 13.0904L14.4442 11.361C14.7 11.2138 14.8828 10.9195 14.8828 10.5883V7.09277C14.8828 6.79841 14.7366 6.50405 14.4442 6.32007L11.4833 4.59069Z" fill="#8247E5"/>
</svg>
