<svg width="25" height="24" viewBox="0 0 25 24" fill="none" xmlns="http://www.w3.org/2000/svg">
<path fill-rule="evenodd" clip-rule="evenodd" d="M12.8828 24C6.28281 24 0.882812 18.6001 0.882812 11.9402C0.942813 5.34038 6.28281 -0.0595036 12.9428 0.000495204C19.5428 0.060494 24.8828 5.40038 24.8828 12.1202C24.8228 18.6601 19.4828 24 12.8828 24Z" fill="#EBEBEB"/>
<path fill-rule="evenodd" clip-rule="evenodd" d="M8.36825 7.1875C8.15022 6.05 9.02232 5 10.1561 5C11.159 5 11.9875 5.83125 11.9875 6.8375V9.1125C12.2491 9.1125 12.5107 9.06875 12.7724 9.06875C13.034 9.06875 13.252 9.06875 13.5136 9.1125V6.8375C13.5136 5.83125 14.3421 5 15.345 5C16.4788 5 17.3509 6.05 17.1765 7.1875L16.6968 9.85625C18.3974 10.6 19.7055 11.9125 19.7055 13.5312V14.5375C19.7055 15.8938 18.8334 17.0312 17.5689 17.775C16.3044 18.5625 14.6474 19 12.7724 19C10.8973 19 9.24035 18.5625 7.9758 17.775C6.75486 17.0312 5.88276 15.8938 5.88276 14.5375V13.5312C5.88276 11.9125 7.14731 10.6 8.8479 9.85625L8.36825 7.1875ZM16.0423 10.2062L16.6091 7.05615C16.7399 6.26865 16.1731 5.5249 15.3446 5.5249C14.6469 5.5249 14.08 6.09365 14.08 6.79365V9.68115C13.9056 9.6374 13.6876 9.6374 13.5132 9.6374C13.2515 9.6374 13.0335 9.59365 12.7719 9.59365C12.5103 9.59365 12.2486 9.59365 11.987 9.6374C11.8126 9.6374 11.5946 9.68115 11.4201 9.68115V6.8374C11.4201 6.1374 10.8533 5.56865 10.1556 5.56865C9.3707 5.56865 8.76023 6.3124 8.93465 7.0999L9.50152 10.2499C7.67011 10.9499 6.44917 12.1749 6.44917 13.5749V14.5812C6.44917 16.7249 9.28349 18.4749 12.7719 18.4749C16.2603 18.4749 19.0946 16.7249 19.0946 14.5812V13.5749C19.1382 12.1312 17.9173 10.9062 16.0423 10.2062Z" fill="#633001"/>
<path d="M19.1297 14.5253C19.1297 16.6962 16.2796 18.4684 12.7718 18.4684C9.26407 18.4684 6.41401 16.6962 6.41401 14.5253V13.5063H19.1735V14.5253H19.1297Z" fill="#FEDC90"/>
<path fill-rule="evenodd" clip-rule="evenodd" d="M8.87792 7.05957C8.70192 6.27383 9.3179 5.53174 10.1099 5.53174C10.8138 5.53174 11.3858 6.09922 11.3858 6.79765V9.6787C11.8258 9.63505 12.2658 9.5914 12.7498 9.5914C13.1897 9.5914 13.6297 9.63505 14.0697 9.6787V6.79765C14.0697 6.09922 14.6417 5.53174 15.3457 5.53174C16.1376 5.53174 16.7536 6.27383 16.6216 7.05957L16.0496 10.2025C17.8976 10.901 19.1735 12.1232 19.1735 13.5201C19.1735 15.6591 16.3136 17.4052 12.7938 17.4052C9.2739 17.4052 6.41401 15.6591 6.41401 13.5201C6.41401 12.1232 7.64596 10.901 9.49389 10.2025L8.87792 7.05957Z" fill="#D1884F"/>
<path d="M11.0192 13.3289C11.0192 13.9049 10.7091 14.3922 10.3104 14.3922C9.91164 14.3922 9.60151 13.9049 9.60151 13.3289C9.60151 12.753 9.91164 12.2656 10.3104 12.2656C10.7091 12.2656 11.0192 12.753 11.0192 13.3289Z" fill="#633001"/>
<path d="M15.984 13.3292C15.984 13.9051 15.6739 14.3925 15.2752 14.3925C14.8764 14.3925 14.5663 13.9051 14.5663 13.3292C14.5663 12.7532 14.8764 12.2659 15.2752 12.2659C15.6739 12.2659 15.984 12.7532 15.984 13.3292Z" fill="#633001"/>
</svg>
