<svg width="25" height="24" viewBox="0 0 25 24" fill="none" xmlns="http://www.w3.org/2000/svg">
<circle cx="12.8828" cy="12" r="12" fill="#EBEBEB"/>
<path d="M16.4833 9.58984C16.2274 9.44266 15.8984 9.44266 15.606 9.58984L13.559 10.8041L12.17 11.5768L10.1595 12.791C9.90367 12.9382 9.57469 12.9382 9.28226 12.791L7.71046 11.8343C7.45458 11.6872 7.27182 11.3928 7.27182 11.0616V9.22189C7.27182 8.92752 7.41803 8.63316 7.71046 8.44918L9.28226 7.5293C9.53813 7.38212 9.86712 7.38212 10.1595 7.5293L11.7313 8.48598C11.9872 8.63316 12.17 8.92752 12.17 9.25868V10.4729L13.559 9.66343V8.41239C13.559 8.11803 13.4128 7.82367 13.1204 7.63969L10.1961 5.91031C9.94022 5.76313 9.61124 5.76313 9.31881 5.91031L6.32142 7.67648C6.029 7.82367 5.88278 8.11803 5.88278 8.41239V11.8711C5.88278 12.1655 6.029 12.4599 6.32142 12.6438L9.28226 14.3732C9.53813 14.5204 9.86712 14.5204 10.1595 14.3732L12.17 13.1958L13.559 12.3863L15.5695 11.2088C15.8253 11.0616 16.1543 11.0616 16.4468 11.2088L18.0186 12.1287C18.2744 12.2759 18.4572 12.5703 18.4572 12.9014V14.7412C18.4572 15.0355 18.311 15.3299 18.0186 15.5139L16.4833 16.4338C16.2274 16.5809 15.8984 16.5809 15.606 16.4338L14.0342 15.5139C13.7783 15.3667 13.5956 15.0723 13.5956 14.7412V13.5637L12.2065 14.3732V15.5875C12.2065 15.8818 12.3528 16.1762 12.6452 16.3602L15.606 18.0895C15.8619 18.2367 16.1909 18.2367 16.4833 18.0895L19.4441 16.3602C19.7 16.213 19.8828 15.9186 19.8828 15.5875V12.0919C19.8828 11.7976 19.7366 11.5032 19.4441 11.3192L16.4833 9.58984Z" fill="#8247E5"/>
</svg>
