<svg width="25" height="24" viewBox="0 0 25 24" fill="none" xmlns="http://www.w3.org/2000/svg">
<path d="M24.5211 14.9029C22.9184 21.3315 16.4072 25.2438 9.97785 23.6407C3.55115 22.0381 -0.361196 15.5265 1.24219 9.09837C2.84418 2.66903 9.35534 -1.24361 15.7827 0.359081C22.2117 1.96177 26.1238 8.47405 24.5209 14.903L24.521 14.9029H24.5211Z" fill="#50AF95"/>
<path fill-rule="evenodd" clip-rule="evenodd" d="M14.4013 13.3605V13.3605C14.3164 13.3668 13.878 13.393 12.9001 13.393C12.1223 13.393 11.5701 13.3696 11.3764 13.3605V13.3605C8.37051 13.2282 6.12692 12.705 6.12692 12.0785C6.12692 11.452 8.37051 10.9295 11.3764 10.7951V12.8393C11.5729 12.8535 12.1358 12.8867 12.9136 12.8867C13.8469 12.8867 14.3143 12.8478 14.3985 12.84V10.7965C17.3979 10.9302 19.6366 11.4534 19.6366 12.0785C19.6366 12.7036 17.3986 13.2268 14.3985 13.3597V13.3597L14.4013 13.3605ZM14.4013 10.5851V8.7559H18.5873V5.96643H7.19038V8.7559H11.3756V10.5844C7.97383 10.7407 5.41558 11.4146 5.41558 12.2221C5.41558 13.0296 7.97383 13.7027 11.3756 13.8597V19.7215H14.4006V13.8576C17.7946 13.7013 20.3486 13.0281 20.3486 12.2214C20.3486 11.4146 17.7967 10.7414 14.4006 10.5844V10.5844L14.4013 10.5851Z" fill="white"/>
</svg>
