<svg width="25" height="24" viewBox="0 0 25 24" fill="none" xmlns="http://www.w3.org/2000/svg">
<path d="M12.8828 24C19.5329 24 24.8828 18.65 24.8828 12C24.8828 5.34996 19.5329 0 12.8828 0C6.23277 0 0.882812 5.34996 0.882812 12C0.882812 18.65 6.23277 24 12.8828 24Z" fill="#2775CA"/>
<path d="M16.1828 13.9C16.1828 12.15 15.1328 11.55 13.0328 11.3001C11.5328 11.1 11.2328 10.7001 11.2328 9.99998C11.2328 9.2999 11.7328 8.85002 12.7328 8.85002C13.6328 8.85002 14.1328 9.15002 14.3828 9.90002C14.4328 10.05 14.5828 10.15 14.7328 10.15H15.5328C15.7328 10.15 15.8828 9.99998 15.8828 9.80006V9.75002C15.6828 8.64998 14.7828 7.80002 13.6328 7.70006V6.50006C13.6328 6.30002 13.4828 6.15002 13.2328 6.09998H12.4828C12.2828 6.09998 12.1328 6.24998 12.0828 6.50006V7.65002C10.5828 7.85006 9.63285 8.85002 9.63285 10.1001C9.63285 11.7501 10.6328 12.4 12.7328 12.6501C14.1328 12.9 14.5828 13.2 14.5828 14.0001C14.5828 14.8001 13.8828 15.3501 12.9328 15.3501C11.6328 15.3501 11.1828 14.8 11.0328 14.05C10.9828 13.8501 10.8328 13.75 10.6828 13.75H9.83277C9.63285 13.75 9.48285 13.9 9.48285 14.1V14.1501C9.68277 15.4 10.4828 16.3 12.1328 16.5501V17.7501C12.1328 17.95 12.2828 18.1 12.5328 18.15H13.2828C13.4828 18.15 13.6328 18 13.6828 17.7501V16.5501C15.1828 16.3 16.1828 15.25 16.1828 13.9V13.9Z" fill="white"/>
<path fill-rule="evenodd" clip-rule="evenodd" d="M5.88285 9.54992C4.43277 13.4 6.43281 17.75 10.3328 19.1499C10.4828 19.25 10.6328 19.4499 10.6328 19.5999V20.3C10.6328 20.4 10.6328 20.45 10.5828 20.4999C10.5329 20.7 10.3328 20.7999 10.1328 20.7C7.33281 19.8 5.18277 17.6499 4.28277 14.85C2.78277 10.1 5.38281 5.04992 10.1328 3.54992C10.1828 3.5 10.2828 3.5 10.3328 3.5C10.5329 3.54992 10.6328 3.69992 10.6328 3.89996V4.59992C10.6328 4.85 10.5329 5 10.3328 5.09996C8.28285 5.84996 6.63285 7.44992 5.88285 9.54992ZM15.1829 3.75002C15.2328 3.54998 15.4328 3.45002 15.6329 3.54998C18.3828 4.44998 20.5829 6.60002 21.4829 9.45002C22.9829 14.2 20.3828 19.2501 15.6329 20.7501C15.5828 20.8 15.4829 20.8 15.4328 20.8C15.2328 20.7501 15.1328 20.6001 15.1328 20.4V19.7001C15.1328 19.45 15.2328 19.3 15.4328 19.2C17.4828 18.45 19.1328 16.8501 19.8828 14.7501C21.3329 10.9 19.3328 6.54998 15.4328 5.15006C15.2828 5.04998 15.1328 4.85006 15.1328 4.65002V3.95006C15.1328 3.84998 15.1328 3.80006 15.1829 3.75002Z" fill="white"/>
</svg>
