<svg width="26" height="26" viewBox="0 0 26 26" fill="none" xmlns="http://www.w3.org/2000/svg">
<g clip-path="url(#clip0_39_862)">
<g clip-path="url(#clip1_39_862)">
<path d="M-3.36328 0.727295H29.364V25.2728H-3.36328V0.727295Z" fill="#00008B"/>
<path d="M-1.44567 0.727295L4.79297 5.35514L11.006 0.727295H13.0004V2.31252L6.86399 6.88923L13.0004 11.4404V13H10.9549L4.81854 8.42332L-1.29226 13H-3.36328V11.4659L2.74751 6.9148L-3.36328 2.36366V0.727295H-1.44567Z" fill="white"/>
<path d="M7.47763 7.91195L13.0004 11.9773V13L6.07138 7.91195H7.47763ZM2.77308 8.42332L2.92649 9.3182L-1.9826 13H-3.36328L2.77308 8.42332ZM13.0004 0.727295V0.803999L6.63388 5.61082L6.68501 4.48582L11.7219 0.727295H13.0004ZM-3.36328 0.727295L2.74751 5.2273H1.21342L-3.36328 1.80116V0.727295Z" fill="#FF0000"/>
<path d="M2.79865 0.727295V13H6.88956V0.727295H2.79865ZM-3.36328 4.8182V8.90911H13.0004V4.8182H-3.36328Z" fill="white"/>
<path d="M-3.36328 5.66195V8.1165H13.0004V5.66195H-3.36328ZM3.61683 0.727295V13H6.07138V0.727295H3.61683Z" fill="#FF0000"/>
<path d="M23.5851 21.013L22.5368 21.146L22.6493 22.1943L21.8925 21.4579L21.1408 22.1994L21.243 21.1511L20.1947 21.0284L21.0794 20.4556L20.522 19.5608L21.5243 19.8931L21.8771 18.896L22.2402 19.888L23.2374 19.5454L22.6902 20.4454L23.58 21.013H23.5851ZM23.3959 15.0198L23.534 14.3551L23.0328 13.8948L23.7078 13.8181L23.9891 13.1994L24.2703 13.8181L24.9453 13.8948L24.4442 14.3551L24.5822 15.0198L23.9891 14.6823L23.3959 15.0198ZM18.0726 11.9517L17.0345 12.0642L17.1266 13.1022L16.3902 12.3608L15.6334 13.0818L15.7561 12.0437L14.7232 11.9056L15.6078 11.3534L15.0709 10.4585L16.0578 10.8062L16.426 9.8295L16.7686 10.8164L17.7607 10.4943L17.2033 11.3789L18.0777 11.9517H18.0726ZM28.4942 10.2744L27.4254 10.4125L27.543 11.4812L26.7709 10.7295L26.0038 11.4863L26.1112 10.4125L25.0425 10.2897L25.9476 9.70166L25.38 8.78632L26.4027 9.12893L26.7607 8.11643L27.1288 9.12893L28.1465 8.77609L27.584 9.69654L28.4942 10.2744ZM23.58 6.0045L22.5215 6.12211L22.6186 7.18575L21.8669 6.42893L21.0947 7.16529L21.2175 6.10677L20.1589 5.96359L21.0641 5.40109L20.5169 4.48575L21.5243 4.83859L21.8976 3.84143L22.2453 4.84882L23.2578 4.51643L22.6902 5.41643L23.58 6.0045ZM8.60213 20.4505L6.26009 20.7267L6.49531 23.0738L4.81804 21.417L3.13054 23.0636L3.38111 20.7164L1.03906 20.4198L3.02827 19.1517L1.80099 17.1369L4.03054 17.9039L4.83849 15.6846L5.63111 17.909L7.86577 17.1573L6.62315 19.1619L8.60724 20.4454L8.60213 20.4505Z" fill="white"/>
</g>
</g>
<path d="M13 0.5C6.09644 0.5 0.5 6.09644 0.5 13C0.5 19.9036 6.09644 25.5 13 25.5C19.9036 25.5 25.5 19.9036 25.5 13C25.5 6.09644 19.9036 0.5 13 0.5Z" stroke="black" stroke-opacity="0.08"/>
<defs>
<clipPath id="clip0_39_862">
<path d="M1 13C1 6.37258 6.37258 1 13 1C19.6274 1 25 6.37258 25 13C25 19.6274 19.6274 25 13 25C6.37258 25 1 19.6274 1 13Z" fill="white"/>
</clipPath>
<clipPath id="clip1_39_862">
<rect width="32.7273" height="24.5455" fill="white" transform="translate(-3.36328 0.727295)"/>
</clipPath>
</defs>
</svg>
