<svg width="60" height="45" viewBox="0 0 60 45" fill="none" xmlns="http://www.w3.org/2000/svg">
<g clip-path="url(#clip0_2714_11462)">
<path d="M0 30H60V45H0V30Z" fill="black"/>
<path d="M0 15H60V30H0V15Z" fill="white"/>
<path d="M0 0H60V15H0V0Z" fill="#CE1126"/>
<path d="M30.06 22.68L35.1975 27.45L34.83 18.7875C34.7775 17.475 33.6375 17.775 32.805 18.2475C31.9725 18.7875 31.005 18.7875 30 18.435C28.9875 18.7875 28.0275 18.7875 27.195 18.2475C26.37 17.775 25.2225 17.475 25.17 18.7875L24.8025 27.45L30.06 22.68Z" fill="white"/>
<path fill-rule="evenodd" clip-rule="evenodd" d="M25.889 17.7995C26.3008 17.7683 26.8048 17.9678 27.2191 18.2052C27.2199 18.2056 27.2207 18.2061 27.2214 18.2066C28.0373 18.7358 28.9804 18.7383 29.9839 18.3889C29.9943 18.3853 30.0056 18.3853 30.016 18.389C31.0119 18.7382 31.9625 18.7358 32.7784 18.2066C32.7792 18.206 32.78 18.2055 32.7808 18.2051C33.1988 17.9678 33.7027 17.7683 34.1136 17.7995C34.3212 17.8152 34.5079 17.8902 34.6455 18.0513C34.7823 18.2115 34.8652 18.4509 34.8786 18.7855L35.2461 27.4479C35.247 27.4676 35.2358 27.4859 35.2178 27.4942C35.1999 27.5025 35.1787 27.4991 35.1642 27.4857L30.0595 22.7461L24.8352 27.4861C24.8206 27.4993 24.7995 27.5025 24.7817 27.4941C24.7639 27.4858 24.7529 27.4675 24.7537 27.4479L25.1212 18.7855C25.1212 18.7855 25.1212 18.7855 25.1212 18.7855C25.1346 18.4508 25.218 18.2114 25.3554 18.0512C25.4936 17.8901 25.681 17.8152 25.889 17.7995ZM30.0599 22.68L30.0931 22.6442L35.1437 27.3336L34.7812 18.7895L34.7812 18.7894C34.7683 18.4678 34.6891 18.2525 34.5714 18.1146C34.4544 17.9776 34.2943 17.911 34.1062 17.8967C33.7262 17.8679 33.2445 18.0542 32.8302 18.2892C31.9859 18.8362 31.0079 18.8365 29.9999 18.4866C28.9846 18.8365 28.0139 18.8362 27.1695 18.2891C26.7592 18.0542 26.2774 17.8679 25.8964 17.8967C25.7078 17.911 25.547 17.9776 25.4295 18.1147C25.3112 18.2526 25.2315 18.4679 25.2186 18.7894L25.2186 18.7895L24.8561 27.3355L30.0272 22.6439L30.0599 22.68Z" fill="#C09300"/>
<path d="M25.7625 18.4875L25.4025 26.91L24.8025 27.45L25.17 18.7875C25.3472 18.6516 25.5481 18.5499 25.7625 18.4875ZM26.4825 19.0875L26.1825 26.1375L25.5825 26.7525L25.9425 18.615C26.0625 18.735 26.415 19.0275 26.4825 19.0875ZM27.135 19.6275L26.9025 25.5075L26.415 25.98L26.715 19.275C26.835 19.3875 27.075 19.56 27.135 19.6275ZM27.8475 19.9275L27.615 24.9375L27.1425 25.32L27.375 19.7475C27.495 19.8 27.7275 19.9275 27.8475 19.9275ZM28.5075 19.9275L28.335 24.105L27.8475 24.5775L28.035 19.98C28.1475 19.98 28.455 19.98 28.5075 19.9275Z" fill="#C09300"/>
<path d="M30.2398 23.625L30.9598 26.91L30.7198 27.15L30.4723 26.9625L30.0673 24.0375L30.2398 26.9625L29.9998 27.2625L29.7673 26.9625L29.9398 24.0375L29.5273 26.9625L29.2798 27.15L29.0398 26.91L29.7598 23.6325H30.2398V23.625Z" fill="#C09300"/>
<path fill-rule="evenodd" clip-rule="evenodd" d="M29.7268 23.5912H30.24V23.6205L30.2803 23.6162L31.0051 26.9232L30.7238 27.2046L30.434 26.9851L30.1704 25.0813L30.2821 26.9759L29.9995 27.3292L29.7254 26.9755L29.839 25.0488L29.566 26.9851L29.2763 27.2046L28.9949 26.9232L29.7268 23.5912ZM30.2085 23.6737H29.7932L29.0851 26.8968L29.2838 27.0954L29.489 26.9399L29.8992 24.0317L29.9812 24.0399L29.8096 26.9495L30.0005 27.1958L30.1979 26.9491L30.0263 24.0399L30.1084 24.0318L30.511 26.9399L30.7163 27.0954L30.9149 26.8968L30.2085 23.6737Z" fill="#C09300"/>
<path d="M28.3873 22.1849L26.9548 27.2624L28.9273 27.5624L29.7598 23.7449L28.3873 22.1849Z" fill="white"/>
<path fill-rule="evenodd" clip-rule="evenodd" d="M28.3774 22.1411C28.3935 22.1374 28.4103 22.1429 28.4212 22.1552L29.7937 23.7152C29.8031 23.726 29.8069 23.7406 29.8039 23.7545L28.9714 27.572C28.9663 27.5952 28.9441 27.6105 28.9206 27.6069L26.9481 27.3069C26.9354 27.305 26.9241 27.2977 26.9171 27.2868C26.9101 27.276 26.9081 27.2627 26.9116 27.2502L28.3441 22.1727C28.3486 22.1569 28.3614 22.1447 28.3774 22.1411ZM28.4083 22.2768L27.0121 27.2256L28.8924 27.5116L29.7111 23.7576L28.4083 22.2768Z" fill="#C09300"/>
<path fill-rule="evenodd" clip-rule="evenodd" d="M29.051 23.4877L28.121 24.3727C28.1093 24.3838 28.093 24.3884 28.0773 24.3851C28.0616 24.3818 28.0486 24.371 28.0424 24.3562L27.8699 23.9437L27.9598 23.9061L28.105 24.2533L28.9837 23.4171L29.051 23.4877Z" fill="#C09300"/>
<path fill-rule="evenodd" clip-rule="evenodd" d="M28.7064 24.7026L28.5114 22.8801L28.6083 22.8698L28.7903 24.5702L29.3085 23.8879L29.3862 23.9469L29.1642 24.2391L29.4037 25.0744L29.5166 24.9031L29.598 24.9568L29.4391 25.1979L29.4767 25.329L29.383 25.3559L29.3684 25.3051L28.9511 25.9384L29.155 26.8998L29.0596 26.9201L28.874 26.0449L28.4882 26.6366C28.4779 26.6523 28.4595 26.6607 28.4409 26.6583C28.4223 26.6558 28.4067 26.6428 28.4009 26.6249L28.2009 26.0054L27.8213 26.6205C27.8111 26.6371 27.792 26.646 27.7728 26.6432C27.7536 26.6404 27.7378 26.6264 27.7328 26.6076L27.4253 25.4676C27.4208 25.451 27.4254 25.4332 27.4375 25.4209L28.0525 24.7909C28.0647 24.7784 28.0826 24.7734 28.0995 24.7777C28.1164 24.7821 28.1297 24.7952 28.1343 24.812L28.2954 25.3984L28.6783 24.8858C28.6899 24.8702 28.7096 24.863 28.7286 24.8675C28.7475 24.872 28.7619 24.8872 28.7653 24.9063L28.9254 25.8001L29.333 25.1817L29.0906 24.336L28.7937 24.7269C28.7816 24.7428 28.761 24.7498 28.7418 24.7444C28.7225 24.739 28.7085 24.7225 28.7064 24.7026ZM28.8459 25.9095L28.6892 25.0341L28.3139 25.5366C28.3028 25.5515 28.2841 25.5588 28.2658 25.5553C28.2475 25.5519 28.2328 25.5383 28.2278 25.5204L28.0628 24.9198L27.5266 25.4691L27.7975 26.4734L28.1733 25.8643C28.1833 25.8482 28.2018 25.8393 28.2207 25.8415C28.2396 25.8438 28.2554 25.8569 28.2612 25.875L28.4623 26.4977L28.8459 25.9095Z" fill="#C09300"/>
<path fill-rule="evenodd" clip-rule="evenodd" d="M27.7805 26.5394C27.7989 26.5424 27.814 26.5557 27.8193 26.5736L28.0428 27.3297L28.3457 26.8249C28.3556 26.8085 28.3741 26.7993 28.3931 26.8015C28.4121 26.8037 28.428 26.8168 28.4339 26.835L28.6664 27.555L28.5736 27.5849L28.3741 26.9671L28.0693 27.475C28.0594 27.4916 28.0406 27.5007 28.0214 27.4983C28.0022 27.4959 27.9863 27.4823 27.9808 27.4638L27.7543 26.6977L27.4148 27.1781L27.3352 27.1218L27.7327 26.5593C27.7435 26.5441 27.762 26.5363 27.7805 26.5394Z" fill="#C09300"/>
<path d="M29.9999 29.535C31.4999 29.535 32.9249 29.415 33.7649 29.1825C34.1174 29.115 34.1174 28.935 34.1174 28.695C34.4774 28.575 34.2974 28.155 34.5449 28.155C34.2899 28.23 34.2449 27.7425 33.9449 27.8025C33.9449 27.3825 33.5174 27.33 33.1649 27.45C32.4524 27.6825 31.1924 27.7425 29.9999 27.7425C28.7999 27.6825 27.5549 27.6825 26.8349 27.4425C26.4824 27.33 26.0624 27.3825 26.0624 27.8025C25.7624 27.7425 25.7099 28.2225 25.4624 28.155C25.7099 28.155 25.5224 28.5825 25.8824 28.695C25.8824 28.935 25.8824 29.115 26.2424 29.1825C27.0674 29.415 28.5074 29.535 29.9999 29.535Z" fill="white"/>
<path fill-rule="evenodd" clip-rule="evenodd" d="M26.287 27.3378C26.461 27.2776 26.6754 27.2972 26.8622 27.3568L26.8633 27.3571L26.8633 27.3571C27.2115 27.4732 27.6927 27.5328 28.2434 27.5702C28.5827 27.5933 28.9432 27.6078 29.3112 27.6225C29.5397 27.6317 29.7711 27.641 30.0021 27.6525C31.1959 27.6524 32.44 27.5917 33.1364 27.3646C33.3236 27.301 33.5398 27.2795 33.7156 27.3384C33.8052 27.3685 33.8865 27.4203 33.9451 27.5001C33.988 27.5586 34.0161 27.6286 34.0281 27.7092C34.0867 27.7155 34.1377 27.7381 34.1817 27.7697C34.2446 27.8148 34.294 27.8787 34.3331 27.9296L34.3345 27.9314C34.3769 27.9866 34.4076 28.0266 34.4403 28.0516C34.4553 28.0631 34.4686 28.0699 34.4828 28.0721C34.5026 28.0673 34.5234 28.065 34.5448 28.065C34.5896 28.065 34.6275 28.0979 34.6339 28.1422C34.6403 28.1865 34.6131 28.2287 34.5702 28.2414C34.5509 28.247 34.5322 28.2505 34.5142 28.252C34.5112 28.2544 34.5072 28.2587 34.5024 28.2671C34.4888 28.2909 34.4806 28.3233 34.4674 28.3751C34.4652 28.3837 34.4629 28.3928 34.4604 28.4025C34.4447 28.4635 34.4227 28.5402 34.376 28.6101C34.3372 28.6681 34.2831 28.7189 34.2072 28.7556C34.2063 28.8529 34.1996 28.957 34.1528 29.0455C34.0913 29.162 33.9733 29.2336 33.7854 29.2702C32.9328 29.5054 31.4997 29.625 29.9998 29.625C28.5079 29.625 27.0598 29.5055 26.2217 29.2702C26.0308 29.2338 25.9109 29.1626 25.8481 29.0462C25.8004 28.9578 25.7934 28.8537 25.7925 28.7566C25.7168 28.7212 25.6629 28.6709 25.6245 28.6128C25.5783 28.5427 25.5574 28.4653 25.5426 28.4039C25.5401 28.3934 25.5378 28.3836 25.5356 28.3744C25.5235 28.3231 25.5158 28.2907 25.5028 28.2667C25.4974 28.257 25.4932 28.2529 25.4904 28.2509C25.4738 28.2497 25.4565 28.2467 25.4386 28.2418C25.3951 28.23 25.3671 28.1878 25.3731 28.1431C25.3791 28.0984 25.4172 28.065 25.4623 28.065C25.4817 28.065 25.5004 28.0669 25.5184 28.0708C25.5328 28.0687 25.5468 28.0616 25.563 28.049C25.5951 28.024 25.6252 27.9856 25.666 27.9335C25.6679 27.931 25.6698 27.9286 25.6718 27.9261C25.7116 27.8752 25.7617 27.8123 25.8254 27.7679C25.8696 27.7371 25.9206 27.7151 25.9789 27.709C25.9907 27.6288 26.0183 27.5591 26.0605 27.5006C26.1181 27.4206 26.1984 27.3684 26.287 27.3378ZM25.6682 28.1951C25.6895 28.24 25.7019 28.2939 25.7121 28.3382C25.714 28.3464 25.7159 28.3543 25.7176 28.3618C25.7319 28.4213 25.7472 28.4718 25.7747 28.5136C25.8003 28.5523 25.839 28.5872 25.9092 28.6091C25.9467 28.6209 25.9723 28.6557 25.9723 28.695C25.9723 28.822 25.9745 28.9014 26.0065 28.9607C26.0333 29.0103 26.0921 29.0628 26.2589 29.0941C26.2615 29.0946 26.2642 29.0952 26.2667 29.0959C27.0793 29.3249 28.509 29.445 29.9998 29.445C31.4979 29.445 32.913 29.3249 33.7408 29.0958C33.7432 29.0951 33.7455 29.0946 33.7479 29.0941C33.9103 29.063 33.9675 29.011 33.9937 28.9614C34.0252 28.9017 34.0273 28.8219 34.0273 28.695C34.0273 28.6563 34.0521 28.6219 34.0889 28.6096C34.1597 28.586 34.1997 28.5498 34.2264 28.51C34.2549 28.4674 34.2709 28.4166 34.2861 28.3576C34.288 28.3503 34.2899 28.3427 34.2918 28.3348C34.3024 28.2925 34.3151 28.2415 34.3356 28.1981C34.3341 28.197 34.3325 28.1958 34.331 28.1946C34.2786 28.1546 34.2344 28.0968 34.1984 28.0497C34.1956 28.0461 34.1929 28.0426 34.1903 28.0392C34.1488 27.9851 34.1147 27.9431 34.0769 27.916C34.0437 27.8922 34.0096 27.8813 33.9625 27.8908C33.936 27.8961 33.9086 27.8892 33.8878 27.8721C33.8669 27.855 33.8548 27.8295 33.8548 27.8025C33.8548 27.7133 33.8323 27.6508 33.8 27.6066C33.7674 27.5623 33.7198 27.5297 33.6584 27.5091C33.5325 27.4669 33.3589 27.479 33.1938 27.5352L33.1927 27.5356L33.1927 27.5356C32.4644 27.7732 31.19 27.8325 29.9998 27.8325C29.9983 27.8325 29.9968 27.8325 29.9953 27.8324C29.7677 27.821 29.5371 27.8118 29.3084 27.8026C28.938 27.7877 28.5723 27.773 28.2312 27.7498C27.6797 27.7123 27.1787 27.6519 26.8069 27.5281C26.6414 27.4753 26.4698 27.465 26.3458 27.5079C26.2853 27.5288 26.2385 27.5614 26.2064 27.6059C26.1745 27.6502 26.1523 27.7129 26.1523 27.8025C26.1523 27.8295 26.1402 27.855 26.1194 27.8721C26.0985 27.8892 26.0711 27.8961 26.0447 27.8908C25.997 27.8812 25.9621 27.8921 25.9283 27.9156C25.89 27.9423 25.8552 27.9839 25.8135 28.0371C25.8102 28.0412 25.8069 28.0455 25.8036 28.0498C25.7676 28.0959 25.7241 28.1517 25.6736 28.191C25.6718 28.1924 25.67 28.1938 25.6682 28.1951Z" fill="#C09300"/>
<path d="M27.9673 27.2625C28.4473 27.33 28.9873 27.3825 29.4073 27.33C29.6473 27.33 29.8198 27.7425 29.3398 27.8025C28.9273 27.855 28.2673 27.8025 27.9148 27.7425C27.4509 27.6613 26.9905 27.5612 26.5348 27.4425C26.1148 27.2625 26.4148 26.9175 26.6548 26.9625C27.0829 27.0997 27.522 27.2 27.9673 27.2625ZM32.0323 27.2625C31.5523 27.33 31.0123 27.3825 30.6073 27.33C30.3523 27.33 30.1798 27.7425 30.6598 27.8025C31.0798 27.855 31.7323 27.8025 32.0848 27.7425C32.3848 27.6825 33.0448 27.57 33.4648 27.4425C33.8848 27.2625 33.5848 26.9175 33.3448 26.9625C32.9166 27.0997 32.4775 27.2001 32.0323 27.2625Z" fill="white"/>
<path fill-rule="evenodd" clip-rule="evenodd" d="M26.5506 27.3963C26.4542 27.3543 26.4066 27.3063 26.3865 27.2642C26.3668 27.223 26.3702 27.1805 26.3906 27.1402C26.4116 27.099 26.4505 27.0613 26.4982 27.0364C26.5448 27.0121 26.5964 27.0019 26.6429 27.0099C27.0727 27.1474 27.5135 27.2481 27.9604 27.3108M26.5506 27.3963C27.0038 27.5142 27.4617 27.6137 27.923 27.6945C28.2732 27.754 28.9278 27.8058 29.3335 27.7541L29.3337 27.7541C29.4472 27.7399 29.5148 27.7057 29.5522 27.6687C29.5885 27.6328 29.5999 27.5907 29.595 27.5495C29.5847 27.4621 29.5021 27.3804 29.41 27.3788C28.9835 27.4315 28.4394 27.3781 27.9604 27.3108M26.4531 26.95C26.5161 26.9171 26.591 26.9009 26.6637 26.9146C26.6657 26.915 26.6676 26.9154 26.6696 26.9161C27.0951 27.0524 27.5315 27.1521 27.974 27.2142L27.9672 27.2625L27.974 27.2142C28.4538 27.2817 28.9882 27.3332 29.4012 27.2816C29.4032 27.2814 29.4052 27.2812 29.4072 27.2812C29.554 27.2812 29.6761 27.405 29.6919 27.538C29.7001 27.6074 29.6797 27.6797 29.6208 27.738C29.5631 27.7952 29.4723 27.835 29.3458 27.8509C28.9267 27.9042 28.2614 27.851 27.9065 27.7906L27.9063 27.7905C27.4411 27.7091 26.9794 27.6087 26.5224 27.4897C26.5201 27.4891 26.5177 27.4883 26.5155 27.4873C26.4041 27.4396 26.3326 27.3776 26.2985 27.3062C26.2638 27.2335 26.2718 27.1589 26.3038 27.096C26.3353 27.0341 26.3902 26.9828 26.4531 26.95ZM33.7009 27.3062C33.6668 27.3776 33.5953 27.4396 33.4839 27.4873C33.4823 27.488 33.4806 27.4886 33.4789 27.4891C33.1423 27.5913 32.6531 27.6839 32.3174 27.7474C32.2312 27.7637 32.155 27.7781 32.0943 27.7903L32.0929 27.7906C31.738 27.851 31.0802 27.9042 30.6537 27.8509C30.5272 27.8351 30.4363 27.7952 30.3788 27.7379C30.32 27.6795 30.3001 27.6068 30.3095 27.5372C30.3277 27.4032 30.4545 27.2812 30.6072 27.2812C30.6093 27.2812 30.6114 27.2814 30.6135 27.2816C31.0113 27.3332 31.5454 27.2817 32.0254 27.2142L32.0322 27.2625L32.0254 27.2142C32.4679 27.1522 32.9043 27.0524 33.3298 26.9161C33.3318 26.9154 33.3337 26.915 33.3357 26.9146C33.4085 26.9009 33.4833 26.9171 33.5463 26.95C33.6092 26.9828 33.6641 27.0341 33.6956 27.096C33.7277 27.1589 33.7356 27.2335 33.7009 27.3062ZM32.039 27.3108C31.5603 27.3781 31.0161 27.4315 30.6043 27.3788C30.5032 27.3804 30.4178 27.4639 30.4061 27.5503C30.4006 27.5913 30.4116 27.633 30.4475 27.6688C30.4846 27.7057 30.5522 27.7399 30.6657 27.7541C31.0789 27.8058 31.7256 27.7541 32.0758 27.6945C32.1383 27.6821 32.2158 27.6674 32.303 27.6509C32.638 27.5875 33.1173 27.4967 33.4479 27.3966C33.5449 27.3546 33.5927 27.3064 33.6129 27.2642C33.6326 27.223 33.6293 27.1805 33.6088 27.1402C33.5878 27.099 33.5489 27.0613 33.5012 27.0364C33.4546 27.0121 33.403 27.002 33.3565 27.0099C32.9267 27.1475 32.4859 27.2481 32.039 27.3108" fill="#C09300"/>
<path d="M26.4748 27.03C26.1148 26.9625 25.9498 27.3825 26.0623 27.6225C26.1148 27.5025 26.3623 27.5025 26.4148 27.3825C26.4823 27.2025 26.3623 27.2025 26.4823 27.03H26.4748ZM27.9148 28.1325C27.9148 27.8925 28.1473 27.9225 28.1473 27.6825C28.1473 27.57 28.0873 27.3825 27.9673 27.3825C27.9048 27.3861 27.8458 27.4125 27.8015 27.4568C27.7573 27.501 27.7309 27.56 27.7273 27.6225C27.6748 27.855 27.9148 27.8925 27.9148 28.1325ZM29.6173 27.45C29.9698 27.45 29.9323 27.9225 29.7673 28.1625C29.7673 27.99 29.4673 27.9225 29.4673 27.8025C29.4673 27.6225 29.7373 27.6225 29.6173 27.45ZM33.5173 27.03C33.8848 26.9625 34.0573 27.3825 33.9373 27.6225C33.8848 27.5025 33.6373 27.5025 33.5848 27.3825C33.5173 27.2025 33.6373 27.2025 33.5173 27.03ZM32.0998 28.125C32.0998 27.885 31.8598 27.915 31.8598 27.675C31.8598 27.5625 31.9198 27.375 32.0398 27.375C32.1023 27.3786 32.1612 27.405 32.2055 27.4493C32.2498 27.4935 32.2762 27.5525 32.2798 27.615C32.3323 27.8475 32.0923 27.885 32.0923 28.125H32.0998ZM30.3748 27.45C30.0223 27.45 30.0598 27.9225 30.2248 28.1625C30.2248 27.99 30.5248 27.9225 30.5248 27.8025C30.5248 27.6225 30.2548 27.6225 30.3748 27.45Z" fill="white"/>
<path fill-rule="evenodd" clip-rule="evenodd" d="M26.4791 26.9812C26.2774 26.9453 26.1288 27.0466 26.0489 27.1868C25.9701 27.3249 25.9541 27.5067 26.0181 27.6432C26.0262 27.6605 26.0437 27.6715 26.0628 27.6712C26.082 27.671 26.0992 27.6595 26.1069 27.642C26.1142 27.6252 26.1298 27.6094 26.157 27.5931C26.1845 27.5767 26.2182 27.5631 26.2566 27.5477L26.2584 27.547C26.2946 27.5325 26.3351 27.5163 26.3698 27.4956C26.4054 27.4744 26.4405 27.4452 26.4594 27.402C26.4597 27.4012 26.46 27.4004 26.4603 27.3996C26.479 27.3498 26.4855 27.3104 26.4856 27.2759C26.4857 27.2493 26.4818 27.2257 26.4788 27.2078C26.4782 27.2036 26.4775 27.1998 26.477 27.1962C26.4741 27.1771 26.4733 27.1625 26.4779 27.1442C26.4826 27.1249 26.4942 27.0981 26.5222 27.0578C26.5326 27.0429 26.5338 27.0235 26.5254 27.0074C26.517 26.9913 26.5004 26.9812 26.4822 26.9812H26.4791ZM26.4011 27.0715C26.2785 27.0709 26.1883 27.1392 26.1336 27.2351C26.0829 27.324 26.0653 27.4329 26.0824 27.5256C26.0905 27.5197 26.0987 27.5143 26.1071 27.5094C26.1418 27.4886 26.1823 27.4724 26.2185 27.458L26.2203 27.4572C26.2587 27.4419 26.2924 27.4283 26.3199 27.4119C26.3466 27.3959 26.362 27.3804 26.3696 27.364C26.3842 27.3245 26.388 27.2968 26.3881 27.2755C26.3882 27.2578 26.3859 27.2442 26.3832 27.2273C26.3823 27.2221 26.3814 27.2166 26.3805 27.2106C26.3768 27.1856 26.3743 27.1567 26.3832 27.1208C26.3871 27.1052 26.3929 27.0889 26.4011 27.0715ZM33.5172 27.03L33.4772 27.0578C33.5052 27.0981 33.5168 27.1249 33.5216 27.1442C33.5261 27.1625 33.5253 27.1771 33.5224 27.1962C33.5219 27.1998 33.5213 27.2036 33.5206 27.2078C33.5176 27.2257 33.5137 27.2493 33.5138 27.2759C33.5139 27.3104 33.5204 27.3498 33.5391 27.3996C33.5394 27.4004 33.5397 27.4012 33.54 27.402C33.5589 27.4452 33.594 27.4744 33.6296 27.4956C33.6643 27.5163 33.7048 27.5325 33.741 27.547L33.7428 27.5477C33.7812 27.5631 33.8149 27.5767 33.8424 27.5931C33.8696 27.6094 33.8852 27.6252 33.8925 27.642C33.9001 27.6593 33.917 27.6707 33.936 27.6712C33.9549 27.6717 33.9723 27.6612 33.9808 27.6443C34.0494 27.5072 34.0331 27.3246 33.9521 27.1863C33.8694 27.0449 33.7155 26.944 33.5084 26.982L33.5172 27.03ZM33.8679 27.2355C33.8128 27.1413 33.7217 27.073 33.5983 27.0715C33.6065 27.0889 33.6123 27.1052 33.6162 27.1208C33.6251 27.1567 33.6226 27.1856 33.6189 27.2106C33.618 27.2166 33.6171 27.2221 33.6162 27.2273C33.6135 27.2442 33.6112 27.2578 33.6113 27.2755C33.6114 27.2968 33.6152 27.3245 33.6298 27.364C33.6374 27.3804 33.6529 27.3959 33.6795 27.4119C33.707 27.4283 33.7407 27.4419 33.7791 27.4572L33.7809 27.458C33.8171 27.4724 33.8576 27.4886 33.8923 27.5094C33.9013 27.5147 33.9101 27.5205 33.9187 27.5269C33.9379 27.4343 33.9203 27.325 33.8679 27.2355ZM31.9484 27.5043C31.922 27.5581 31.9085 27.6257 31.9085 27.675C31.9085 27.7259 31.9209 27.7598 31.9381 27.7863C31.9563 27.8144 31.981 27.8364 32.0118 27.8633L32.0136 27.8649C32.0384 27.8865 32.0671 27.9117 32.0913 27.9438C32.1117 27.9077 32.1357 27.8771 32.1575 27.8495C32.1608 27.8453 32.164 27.8412 32.1672 27.8372C32.1939 27.8029 32.2147 27.7741 32.227 27.7417C32.2386 27.711 32.2432 27.6749 32.2321 27.6257C32.2316 27.6231 32.2312 27.6204 32.231 27.6178C32.2281 27.5672 32.2068 27.5195 32.171 27.4837C32.1355 27.4483 32.0884 27.427 32.0384 27.4237C32.0076 27.4244 31.9757 27.449 31.9484 27.5043ZM32.1452 28.0756C32.1574 28.0078 32.1944 27.9606 32.2365 27.9069C32.239 27.9036 32.2415 27.9004 32.2441 27.8972C32.2708 27.8629 32.3001 27.8238 32.3181 27.7762C32.3364 27.728 32.3422 27.6735 32.3281 27.6081C32.323 27.5352 32.2917 27.4665 32.2399 27.4148C32.1872 27.3621 32.1169 27.3306 32.0425 27.3263C32.042 27.3263 32.0415 27.3263 32.0409 27.3262C32.0405 27.3262 32.0401 27.3262 32.0397 27.3262C31.9509 27.3262 31.8934 27.3954 31.861 27.4613C31.8274 27.5293 31.811 27.6118 31.811 27.675C31.811 27.744 31.8285 27.7964 31.8563 27.8393C31.8825 27.8797 31.9169 27.9098 31.9458 27.9351L31.9476 27.9367C31.9784 27.9636 32.0031 27.9856 32.0213 28.0137C32.0323 28.0307 32.0414 28.0507 32.0465 28.0764C32.0445 28.0918 32.0435 28.1079 32.0435 28.125C32.0435 28.1519 32.0653 28.1737 32.0922 28.1737H32.0997C32.1266 28.1737 32.1485 28.1519 32.1485 28.125C32.1485 28.1075 32.1473 28.0911 32.1452 28.0756ZM27.9644 27.3338C27.9653 27.3337 27.9663 27.3337 27.9672 27.3337C28.056 27.3337 28.1135 27.4029 28.1459 27.4688C28.1795 27.5368 28.196 27.6193 28.196 27.6825C28.196 27.7512 28.1791 27.8034 28.1522 27.8462C28.1267 27.8867 28.0934 27.9168 28.0654 27.9421L28.0636 27.9436C28.0339 27.9705 28.01 27.9925 27.9923 28.0206C27.9756 28.0471 27.9635 28.0812 27.9635 28.1325H27.866C27.866 28.0363 27.822 27.9802 27.7704 27.9144C27.7679 27.9111 27.7654 27.9079 27.7628 27.9047C27.7361 27.8704 27.7068 27.8313 27.6888 27.7837C27.6705 27.7355 27.6647 27.681 27.6788 27.6156C27.6839 27.5427 27.7152 27.474 27.767 27.4223C27.8197 27.3696 27.89 27.3381 27.9644 27.3338ZM27.9182 27.956C27.8973 27.9178 27.8721 27.8858 27.8494 27.857C27.8461 27.8528 27.8429 27.8487 27.8397 27.8447C27.813 27.8104 27.7922 27.7816 27.7799 27.7492C27.7683 27.7185 27.7637 27.6824 27.7748 27.6332C27.7753 27.6306 27.7757 27.6279 27.7759 27.6253C27.7788 27.5747 27.8001 27.527 27.8359 27.4912C27.8714 27.4558 27.9185 27.4345 27.9685 27.4312C27.9993 27.4319 28.0312 27.4565 28.0585 27.5118C28.0849 27.5656 28.0985 27.6332 28.0985 27.6825C28.0985 27.7337 28.0863 27.7678 28.0696 27.7943C28.0519 27.8224 28.028 27.8444 27.9983 27.8713L27.9965 27.8729C27.9715 27.8954 27.9423 27.9219 27.9182 27.956ZM29.574 27.4274C29.5824 27.4113 29.599 27.4012 29.6172 27.4012C29.7172 27.4012 29.7948 27.4353 29.8487 27.4948C29.9014 27.5531 29.9271 27.6309 29.9348 27.7116C29.95 27.8719 29.8959 28.0613 29.8074 28.1901C29.7953 28.2077 29.7731 28.2154 29.7527 28.209C29.7323 28.2027 29.7185 28.1838 29.7185 28.1625C29.7185 28.1348 29.7068 28.1092 29.6835 28.0822C29.6596 28.0546 29.6264 28.0292 29.5889 28.0025C29.5827 27.9981 29.5763 27.9936 29.5699 27.989C29.5393 27.9675 29.5067 27.9445 29.4811 27.921C29.4505 27.8928 29.4185 27.8538 29.4185 27.8025C29.4185 27.6969 29.4925 27.6372 29.5405 27.5986C29.546 27.5941 29.5512 27.59 29.5559 27.5861C29.5826 27.5636 29.5941 27.5499 29.5978 27.538C29.6001 27.5307 29.6024 27.5141 29.5772 27.4778C29.5668 27.4629 29.5656 27.4435 29.574 27.4274ZM29.6953 27.5094C29.73 27.5201 29.7563 27.5381 29.7764 27.5603C29.8106 27.5981 29.8313 27.6534 29.8377 27.7208C29.8475 27.8235 29.823 27.9438 29.7774 28.0445C29.7711 28.0354 29.7643 28.0267 29.7572 28.0184C29.7249 27.9811 29.683 27.9498 29.6455 27.9231C29.6381 27.9178 29.6309 27.9127 29.6239 27.9078C29.5936 27.8864 29.5676 27.8681 29.5471 27.8492C29.5214 27.8256 29.516 27.8111 29.516 27.8025C29.516 27.7458 29.5515 27.7164 29.6027 27.6739C29.6078 27.6697 29.6131 27.6653 29.6185 27.6608C29.6443 27.6392 29.6778 27.6093 29.6909 27.567C29.6968 27.548 29.6981 27.5289 29.6953 27.5094ZM30.1432 27.4948C30.1971 27.4353 30.2747 27.4012 30.3747 27.4012C30.3929 27.4012 30.4095 27.4113 30.4179 27.4274C30.4263 27.4435 30.4251 27.4629 30.4147 27.4778C30.3895 27.5141 30.3918 27.5307 30.3941 27.538C30.3978 27.5499 30.4093 27.5636 30.436 27.5861C30.4407 27.59 30.4459 27.5941 30.4514 27.5986C30.4994 27.6372 30.5735 27.6969 30.5735 27.8025C30.5735 27.8538 30.5414 27.8928 30.5108 27.921C30.4852 27.9445 30.4526 27.9675 30.422 27.989C30.4156 27.9936 30.4092 27.9981 30.403 28.0025C30.3655 28.0292 30.3324 28.0546 30.3084 28.0822C30.2851 28.1092 30.2735 28.1348 30.2735 28.1625C30.2735 28.1838 30.2596 28.2027 30.2392 28.209C30.2188 28.2154 30.1966 28.2077 30.1845 28.1901C30.096 28.0613 30.0419 27.8719 30.0571 27.7116C30.0648 27.6309 30.0905 27.5531 30.1432 27.4948ZM30.2145 28.0445C30.1689 27.9438 30.1444 27.8235 30.1542 27.7208C30.1606 27.6534 30.1813 27.5981 30.2155 27.5603C30.2356 27.5381 30.2619 27.5201 30.2966 27.5094C30.2938 27.5289 30.2951 27.548 30.301 27.567C30.3141 27.6093 30.3476 27.6392 30.3734 27.6608C30.3788 27.6653 30.3841 27.6697 30.3892 27.6739C30.4404 27.7164 30.476 27.7458 30.476 27.8025C30.476 27.8111 30.4705 27.8256 30.4448 27.8492C30.4243 27.8681 30.3983 27.8864 30.368 27.9078C30.361 27.9127 30.3538 27.9178 30.3464 27.9231C30.3089 27.9498 30.2671 27.9811 30.2347 28.0184C30.2276 28.0267 30.2208 28.0354 30.2145 28.0445Z" fill="#C09300"/>
<path d="M26.6023 27.15C26.7223 27.15 26.9023 27.2025 26.9548 27.27L26.6023 27.15ZM27.1948 27.33C27.2548 27.33 27.4948 27.3825 27.6073 27.45L27.1948 27.33ZM29.3398 27.57C29.2273 27.57 28.9873 27.57 28.9273 27.6225L29.3398 27.5625V27.57ZM28.6873 27.57C28.6198 27.5025 28.3873 27.5025 28.2673 27.57H28.6873ZM33.3973 27.15C33.27 27.1516 33.1466 27.1936 33.0448 27.27L33.3973 27.15ZM32.8123 27.33C32.7373 27.33 32.5123 27.3825 32.3923 27.45L32.8123 27.33ZM30.6598 27.57C30.7723 27.57 31.0123 27.57 31.0798 27.6225L30.6598 27.5625V27.57ZM31.3123 27.57C31.3798 27.5025 31.6123 27.5025 31.7323 27.57H31.3123Z" fill="white"/>
<path fill-rule="evenodd" clip-rule="evenodd" d="M33.4306 27.1443C33.4334 27.1607 33.4239 27.1766 33.4082 27.182L33.0557 27.302C33.04 27.3073 33.0228 27.3005 33.015 27.2858C33.0073 27.2711 33.0113 27.253 33.0246 27.243C33.1321 27.1624 33.2625 27.118 33.3969 27.1163C33.4135 27.1161 33.4278 27.1279 33.4306 27.1443ZM26.5691 27.1445C26.5718 27.1282 26.5858 27.1163 26.6024 27.1163C26.6665 27.1163 26.7451 27.1302 26.8143 27.1526C26.8491 27.1639 26.8823 27.1775 26.9108 27.1932C26.9388 27.2087 26.9644 27.2273 26.9815 27.2493C26.9907 27.2611 26.991 27.2775 26.9823 27.2896C26.9737 27.3017 26.9581 27.3068 26.944 27.302L26.5915 27.182C26.5758 27.1767 26.5664 27.1608 26.5691 27.1445ZM27.1614 27.3253C27.1638 27.3086 27.1781 27.2963 27.1949 27.2963C27.2296 27.2963 27.3084 27.3105 27.39 27.3321C27.4722 27.3538 27.5642 27.3848 27.6247 27.4211C27.6393 27.4298 27.6451 27.448 27.6383 27.4635C27.6315 27.4791 27.6142 27.4872 27.5979 27.4824L27.1854 27.3624C27.1693 27.3577 27.1591 27.3419 27.1614 27.3253ZM32.6105 27.3321C32.6916 27.3104 32.7702 27.2963 32.8124 27.2963C32.8292 27.2963 32.8434 27.3087 32.8458 27.3253C32.8481 27.342 32.8378 27.3578 32.8216 27.3625L32.4016 27.4825C32.3852 27.4872 32.3678 27.4788 32.3612 27.463C32.3546 27.4472 32.3609 27.429 32.3758 27.4206C32.4394 27.3848 32.5288 27.3539 32.6105 27.3321ZM28.6185 27.4993C28.6542 27.5084 28.6881 27.5231 28.7112 27.5462C28.7209 27.5558 28.7238 27.5703 28.7185 27.5829C28.7133 27.5955 28.701 27.6038 28.6874 27.6038H28.2674C28.252 27.6038 28.2386 27.5934 28.2347 27.5786C28.2308 27.5637 28.2374 27.5481 28.2508 27.5406C28.3176 27.503 28.4121 27.4856 28.497 27.4856C28.54 27.4856 28.582 27.4901 28.6185 27.4993ZM31.5027 27.4856C31.5877 27.4856 31.6821 27.503 31.7489 27.5406C31.7623 27.5481 31.7689 27.5637 31.765 27.5786C31.7611 27.5934 31.7477 27.6038 31.7324 27.6038H31.3124C31.2987 27.6038 31.2864 27.5955 31.2812 27.5829C31.276 27.5703 31.2788 27.5558 31.2885 27.5462C31.3116 27.5231 31.3455 27.5084 31.3813 27.4993C31.4177 27.4901 31.4598 27.4856 31.5027 27.4856ZM29.3619 27.537C29.3693 27.5434 29.3736 27.5527 29.3736 27.5625V27.57C29.3736 27.5887 29.3585 27.6038 29.3399 27.6038C29.3251 27.6038 29.3082 27.6038 29.2899 27.6039L28.9322 27.6559C28.9174 27.6581 28.903 27.6502 28.8967 27.6366C28.8904 27.6231 28.8939 27.607 28.9051 27.5971C28.9269 27.5781 28.9604 27.5668 28.9939 27.5592C29.0288 27.5514 29.0697 27.5463 29.1112 27.5429C29.1707 27.5382 29.2334 27.5368 29.2848 27.5364L29.335 27.5291C29.3447 27.5277 29.3545 27.5306 29.3619 27.537ZM30.6377 27.537C30.6451 27.5306 30.6549 27.5277 30.6646 27.5291L30.7159 27.5364C30.7671 27.5368 30.8296 27.5382 30.8894 27.5429C30.9314 27.5463 30.9729 27.5514 31.0088 27.5592C31.0435 27.5668 31.0774 27.5779 31.1006 27.5959C31.1127 27.6053 31.1169 27.6216 31.1109 27.6357C31.1049 27.6498 31.0902 27.6581 31.0751 27.6559L30.7108 27.6039C30.6921 27.6038 30.6749 27.6038 30.6599 27.6038C30.6412 27.6038 30.6261 27.5887 30.6261 27.57V27.5625C30.6261 27.5527 30.6304 27.5434 30.6377 27.537Z" fill="#C09300"/>
<path d="M26.4975 28.095C26.46 28.0875 26.4375 28.05 26.4525 28.02C26.46 27.9675 26.4975 27.945 26.5275 27.96C26.5575 27.96 26.595 28.005 26.595 28.02L26.565 28.0725L26.55 28.08C26.55 28.095 26.52 28.095 26.4975 28.095ZM30.6225 28.3875C30.6075 28.3875 30.5775 28.35 30.5775 28.335C30.5775 28.305 30.6225 28.26 30.6525 28.26L30.7125 28.29C30.735 28.3125 30.735 28.3575 30.705 28.38C30.69 28.395 30.645 28.395 30.6225 28.38V28.3875ZM30.645 28.575C30.615 28.56 30.6075 28.545 30.6 28.515C30.6 28.4775 30.6 28.47 30.6375 28.4475L30.6675 28.4325L30.6975 28.4475C30.7275 28.4625 30.75 28.4775 30.75 28.5075C30.75 28.53 30.7275 28.5525 30.6975 28.5675C30.675 28.5825 30.6675 28.5825 30.645 28.5675V28.575Z" fill="#C09300"/>
<path d="M26.8348 27.75C26.8048 27.75 26.7673 27.78 26.7448 27.795C26.6998 27.8025 26.6398 27.8325 26.5948 27.795C26.5498 27.7875 26.4898 27.795 26.4823 27.855C26.4898 27.9075 26.5573 27.93 26.6023 27.9C26.6323 27.8625 26.7148 27.8325 26.7298 27.9C26.6923 27.96 26.6998 28.0275 26.6698 28.08C26.6698 28.1175 26.6473 28.1475 26.6323 28.1775C26.5948 28.1775 26.5573 28.1775 26.5273 28.2C26.5041 28.2 26.4811 28.2054 26.4603 28.2158C26.4394 28.2263 26.4213 28.2414 26.4073 28.26C26.3773 28.305 26.3473 28.35 26.3398 28.41C26.3473 28.455 26.4148 28.47 26.4598 28.4775L26.6098 28.5225L26.8498 28.59C26.9698 28.6275 27.0898 28.6425 27.2098 28.6725L27.2473 28.68C27.2998 28.695 27.3223 28.6425 27.3223 28.605L27.3973 28.335C27.4123 28.2975 27.4348 28.2225 27.3673 28.2375C27.3298 28.26 27.2923 28.2975 27.2473 28.2975C27.1798 28.2975 27.2173 28.3725 27.2473 28.395C27.2473 28.44 27.2323 28.4925 27.2098 28.53C27.1648 28.5525 27.1198 28.53 27.0748 28.515C27.0373 28.515 26.9473 28.4925 26.9848 28.44L27.0223 28.305C27.0448 28.26 27.0448 28.2075 27.0598 28.155C27.0298 28.1025 26.9848 28.1775 26.9473 28.185C26.9173 28.2 26.8273 28.2075 26.8723 28.26C26.9173 28.29 26.8873 28.3425 26.8723 28.3875C26.8723 28.44 26.8123 28.4625 26.7673 28.44C26.7223 28.44 26.6548 28.4025 26.6923 28.3575L26.7298 28.2225L26.7823 28.0725C26.7823 28.02 26.8048 27.9825 26.8273 27.9375C26.8273 27.885 26.8648 27.84 26.8648 27.7875C26.8648 27.765 26.8498 27.7575 26.8348 27.7575V27.75ZM26.5573 28.2975C26.5608 28.2955 26.5646 28.2945 26.5686 28.2945C26.5725 28.2945 26.5764 28.2955 26.5798 28.2975C26.5948 28.3125 26.5948 28.3275 26.5798 28.3425L26.5573 28.3575C26.5198 28.3575 26.5123 28.35 26.5123 28.335C26.5123 28.3275 26.5123 28.32 26.5348 28.3125C26.544 28.3059 26.5541 28.3009 26.5648 28.2975H26.5573ZM26.4823 28.6725C26.4448 28.6425 26.4523 28.62 26.5048 28.575C26.5348 28.56 26.5423 28.56 26.5723 28.5825C26.6173 28.62 26.6173 28.6425 26.5723 28.68C26.5573 28.695 26.5498 28.695 26.5348 28.695C26.5123 28.695 26.5048 28.695 26.4823 28.68V28.6725ZM26.7073 28.7475C26.6906 28.7423 26.6765 28.7308 26.6681 28.7154C26.6597 28.7 26.6577 28.6819 26.6623 28.665C26.6773 28.635 26.6848 28.6275 26.7298 28.6275C26.7823 28.6275 26.7898 28.635 26.7973 28.68C26.7973 28.71 26.7973 28.7175 26.7748 28.7325C26.7665 28.7391 26.7568 28.7439 26.7465 28.7465C26.7361 28.7491 26.7253 28.7494 26.7148 28.7475H26.7073ZM33.3973 28.7475C33.3823 28.74 33.3748 28.7325 33.3748 28.71C33.3748 28.68 33.3898 28.6575 33.4348 28.6425C33.4798 28.62 33.5098 28.62 33.5248 28.6575C33.5473 28.7025 33.5473 28.7175 33.5173 28.7475C33.5023 28.77 33.4948 28.77 33.4573 28.77C33.4198 28.77 33.4123 28.77 33.3973 28.755V28.7475ZM27.0223 28.8375C26.9923 28.8375 26.9773 28.8075 26.9773 28.7775C26.9773 28.755 26.9773 28.7475 26.9923 28.7325L27.0373 28.7175L27.0823 28.725C27.1198 28.755 27.1273 28.785 27.1048 28.815C27.0823 28.845 27.0598 28.845 27.0148 28.8375H27.0223ZM28.6573 28.9125L28.6423 28.89C28.6423 28.845 28.6423 28.8075 28.6573 28.7625C28.6648 28.725 28.6573 28.6875 28.6723 28.65L28.7023 28.44C28.7023 28.4025 28.7023 28.365 28.7173 28.335C28.7248 28.275 28.7173 28.2225 28.7323 28.17C28.7323 28.1475 28.7548 28.095 28.7773 28.125C28.8073 28.17 28.8448 28.2 28.8823 28.2375C28.9123 28.26 28.8823 28.29 28.8598 28.2975C28.8298 28.305 28.8223 28.3425 28.8223 28.3725L28.8073 28.4625C28.8073 28.515 28.8073 28.56 28.7923 28.6125L28.7848 28.7475L28.7698 28.8375C28.7698 28.8675 28.7698 28.905 28.7398 28.92C28.7173 28.935 28.6798 28.935 28.6648 28.9125H28.6573ZM30.8848 28.1775L30.7873 28.2675C30.7423 28.305 30.8248 28.32 30.8323 28.35C30.8473 28.395 30.8473 28.44 30.8473 28.485C30.8623 28.53 30.8698 28.5675 30.8623 28.6125C30.8623 28.665 30.8023 28.65 30.7723 28.68C30.7348 28.695 30.7198 28.7325 30.6973 28.755C30.6795 28.7926 30.6693 28.8334 30.6673 28.875C30.6673 28.9125 30.6448 28.95 30.6673 28.98L30.6748 28.995H30.7123L30.8248 28.9875C30.9148 28.9725 31.0123 28.9725 31.1023 28.965L31.2673 28.95C31.3123 28.9575 31.3348 28.9125 31.3348 28.875C31.3048 28.8225 31.3273 28.77 31.3048 28.725C31.2898 28.665 31.2973 28.6125 31.2898 28.56C31.2898 28.515 31.2373 28.5 31.2148 28.53C31.1848 28.56 31.1398 28.5675 31.1248 28.5975C31.1023 28.6425 31.1698 28.6425 31.1848 28.6725L31.1923 28.785C31.1998 28.83 31.1548 28.83 31.1173 28.8375C31.0798 28.8525 31.0273 28.86 31.0048 28.815C30.9898 28.7775 30.9898 28.74 30.9898 28.7025C30.9898 28.6275 30.9673 28.5675 30.9673 28.5C30.9673 28.425 30.9448 28.3425 30.9448 28.26C30.9448 28.2225 30.9373 28.17 30.8848 28.1775ZM30.8398 28.7925H30.8623V28.8525L30.8398 28.86C30.83 28.8631 30.82 28.8656 30.8098 28.8675C30.8048 28.8677 30.7998 28.8677 30.7948 28.8675C30.7798 28.8525 30.7798 28.83 30.8023 28.8075L30.8398 28.7925ZM28.5898 28.1025C28.5673 28.1025 28.5298 28.155 28.4998 28.1475C28.4323 28.155 28.4398 28.2225 28.4923 28.245V28.305C28.4998 28.365 28.4623 28.4175 28.4698 28.4775C28.4698 28.5375 28.4473 28.605 28.4473 28.6725C28.4248 28.74 28.4248 28.8075 28.4173 28.875C28.4098 28.935 28.3648 28.9125 28.3273 28.8975V28.8225C28.3348 28.755 28.2898 28.74 28.2373 28.7325C28.1848 28.7325 28.1623 28.695 28.1773 28.65C28.1998 28.62 28.2523 28.6275 28.2898 28.6275C28.3648 28.6425 28.3573 28.545 28.3198 28.5075C28.2898 28.4625 28.2298 28.4325 28.2148 28.3875C28.2148 28.3275 28.1773 28.26 28.1248 28.23C28.0423 28.2225 27.9748 28.29 27.9523 28.365C27.9148 28.365 27.8773 28.38 27.8473 28.395C27.7948 28.41 27.7198 28.5 27.7948 28.5375C27.8323 28.545 27.9598 28.575 27.8998 28.6275C27.8698 28.6875 27.8098 28.6875 27.7573 28.6725C27.7048 28.6725 27.6448 28.6425 27.6448 28.5825C27.6373 28.5225 27.6373 28.4625 27.6148 28.41C27.5998 28.35 27.5323 28.365 27.5248 28.425C27.4723 28.4625 27.4798 28.53 27.5173 28.575C27.5398 28.6275 27.5173 28.695 27.4948 28.74C27.4798 28.815 27.4048 28.815 27.3523 28.83C27.3298 28.845 27.2323 28.83 27.2698 28.8825C27.3261 28.9084 27.389 28.9163 27.4498 28.905C27.5098 28.905 27.5623 28.8525 27.5998 28.8C27.6373 28.7625 27.7048 28.785 27.7648 28.785C27.8173 28.785 27.8773 28.8225 27.9373 28.7925C27.9523 28.755 28.0273 28.68 28.0498 28.755C28.0498 28.8225 28.1023 28.8525 28.1623 28.845C28.2298 28.845 28.1998 28.89 28.1998 28.935C28.1998 29.0025 28.2523 29.04 28.3123 29.07H28.3723C28.4248 29.0475 28.4848 29.025 28.5073 28.965C28.5298 28.9125 28.5298 28.8525 28.5448 28.8C28.5598 28.7175 28.5748 28.6275 28.5748 28.545C28.5973 28.47 28.5898 28.3875 28.6048 28.305L28.6273 28.1325C28.6273 28.095 28.6123 28.095 28.5898 28.1025ZM28.0873 28.41C28.0948 28.41 28.1023 28.425 28.1023 28.4475C28.1023 28.4775 28.1173 28.5 28.1398 28.5075V28.53L28.0798 28.545C28.0423 28.545 28.0123 28.53 27.9898 28.5075L27.9748 28.4925L27.9973 28.4775L28.0348 28.44C28.0573 28.4175 28.0723 28.41 28.0873 28.41ZM33.0373 27.8175C32.9942 27.8206 32.9515 27.8281 32.9098 27.84C32.8348 27.84 32.7973 27.915 32.8723 27.96C32.9173 28.0725 32.9848 27.93 33.0598 27.945C33.1648 27.96 33.1723 28.08 33.1948 28.17C33.1948 28.2525 33.2248 28.335 33.2473 28.4175C33.3223 28.5 33.1948 28.5525 33.1423 28.4925C33.0973 28.44 32.9923 28.38 32.9398 28.4475C32.8723 28.4775 32.8648 28.5675 32.8123 28.5975C32.7223 28.62 32.7148 28.5075 32.6623 28.4625C32.6173 28.395 32.5348 28.3875 32.4673 28.3725C32.4373 28.305 32.4523 28.1925 32.3923 28.1475C32.3323 28.17 32.2273 28.275 32.3173 28.3275C32.3923 28.4025 32.2798 28.4325 32.2423 28.4775C32.1823 28.545 32.1673 28.6275 32.1673 28.7025C32.0698 28.755 32.0548 28.6425 32.0398 28.575C32.0398 28.4925 31.9648 28.515 31.9123 28.545C31.8373 28.575 31.8073 28.6425 31.7623 28.695V28.845C31.7773 28.9125 31.8523 28.8825 31.8973 28.875C31.9723 28.845 32.0023 28.9275 31.9423 28.9725C31.8973 29.0175 31.7773 28.995 31.7923 29.0775H31.9123C31.9873 29.055 32.0773 28.995 32.0848 28.905C32.0998 28.83 32.2123 28.8375 32.2723 28.8225C32.3473 28.8 32.4448 28.7925 32.4673 28.8975C32.5198 28.95 32.6323 29.01 32.6923 28.935C32.7209 28.9169 32.7438 28.8911 32.7584 28.8606C32.773 28.8301 32.7787 28.7961 32.7748 28.7625C32.7673 28.7025 32.8723 28.7025 32.9023 28.74C32.9398 28.8 33.0598 28.785 33.1198 28.74C33.1798 28.7025 33.1948 28.62 33.2848 28.62L33.6898 28.5075C33.7948 28.485 33.6748 28.4175 33.6448 28.3725C33.5698 28.335 33.4948 28.5 33.4048 28.4175C33.3298 28.365 33.3373 28.2675 33.3148 28.185C33.2923 28.08 33.2998 27.96 33.2248 27.885C33.1798 27.8325 33.1048 27.8175 33.0373 27.8175ZM32.5273 28.53C32.5348 28.53 32.5498 28.53 32.5648 28.545C32.5948 28.56 32.6173 28.59 32.6173 28.62C32.6173 28.635 32.6173 28.635 32.5948 28.6425L32.5573 28.6575C32.5423 28.6575 32.5048 28.635 32.5048 28.62V28.59C32.4898 28.56 32.4898 28.56 32.5048 28.545L32.5273 28.53ZM33.0148 28.56C33.0448 28.56 33.0598 28.56 33.0748 28.5825C33.0823 28.6125 33.0748 28.6275 33.0448 28.6425L33.0073 28.6575L32.9773 28.635C32.9623 28.6275 32.9548 28.62 32.9548 28.605C32.9548 28.5825 32.9848 28.56 33.0148 28.5525V28.56ZM32.3398 28.56C32.3548 28.56 32.3623 28.56 32.3698 28.575C32.3848 28.59 32.3923 28.5975 32.3923 28.62V28.665C32.3923 28.6875 32.3923 28.68 32.3473 28.68C32.3023 28.68 32.2948 28.68 32.2948 28.635C32.2948 28.605 32.2948 28.5975 32.3173 28.5825C32.3248 28.5675 32.3398 28.5675 32.3473 28.5675L32.3398 28.56ZM31.9348 28.6725C31.9419 28.6746 31.9484 28.6785 31.9536 28.6837C31.9588 28.689 31.9627 28.6954 31.9648 28.7025C31.9648 28.725 31.9648 28.74 31.9498 28.7475C31.9273 28.755 31.8898 28.7625 31.8748 28.7475C31.8746 28.745 31.8746 28.7425 31.8748 28.74C31.8598 28.7325 31.8598 28.725 31.8748 28.7175V28.71L31.8898 28.6875C31.8945 28.6802 31.9015 28.6747 31.9097 28.672C31.9179 28.6692 31.9268 28.6694 31.9348 28.6725ZM32.6248 28.7625L32.6623 28.77V28.815H32.5723L32.5648 28.8C32.5648 28.785 32.5648 28.7775 32.5798 28.77L32.6248 28.7625ZM31.3423 29.1225C31.3348 29.1225 31.3198 29.115 31.3348 29.1075C31.3423 29.085 31.3723 29.0775 31.3948 29.0625C31.4357 29.0469 31.4719 29.0211 31.4998 28.9875C31.4998 28.9575 31.5298 28.9425 31.5298 28.9125L31.5223 28.8075C31.5122 28.776 31.4909 28.7493 31.4623 28.7325C31.4398 28.725 31.4098 28.7175 31.4023 28.6875C31.4023 28.665 31.4248 28.6425 31.4323 28.62L31.4773 28.53C31.4998 28.5075 31.5298 28.53 31.5373 28.545L31.5748 28.62C31.5973 28.6425 31.6123 28.665 31.6198 28.695C31.6348 28.725 31.6498 28.7475 31.6498 28.77L31.6648 28.8675C31.6648 28.905 31.6648 28.95 31.6498 28.9875L31.6048 29.0475C31.5823 29.07 31.5598 29.0925 31.5298 29.1C31.5073 29.1075 31.4923 29.13 31.4623 29.13H31.3498L31.3423 29.1225ZM30.8248 29.1525C30.8098 29.1375 30.8023 29.13 30.8023 29.1075C30.8023 29.085 30.8023 29.085 30.8248 29.0625C30.8548 29.0325 30.8698 29.0325 30.9298 29.0625C30.9823 29.0925 31.0048 29.0925 31.0048 29.07C31.0123 29.055 31.0423 29.0325 31.0798 29.0325C31.0937 29.033 31.107 29.0383 31.1173 29.0475C31.1323 29.0625 31.1398 29.07 31.1398 29.1C31.1398 29.1375 31.1398 29.1375 31.1173 29.16C31.0948 29.175 31.0948 29.175 31.0648 29.175C31.0515 29.1743 31.0387 29.1696 31.028 29.1616C31.0173 29.1536 31.0093 29.1426 31.0048 29.13C31.0048 29.115 31.0048 29.1075 30.9898 29.1225L30.9748 29.13C30.9598 29.13 30.9298 29.1525 30.9148 29.1675L30.8773 29.175C30.8473 29.175 30.8473 29.175 30.8248 29.1525ZM29.3398 28.485C29.2873 28.485 29.2348 28.53 29.2273 28.5825C29.2423 28.635 29.2873 28.695 29.2573 28.7475C29.2798 28.8225 29.1973 28.8525 29.1448 28.815C29.1148 28.74 29.0998 28.665 29.0473 28.59C28.9873 28.575 28.9648 28.6725 28.9198 28.71C28.9423 28.7625 29.0023 28.815 29.0098 28.8825C29.0248 28.9575 28.9798 29.0325 28.9273 29.0625C28.8748 29.115 28.7998 29.1 28.7398 29.1075C28.6648 29.1525 28.7923 29.1675 28.8298 29.1675C28.9048 29.175 28.9873 29.1675 29.0548 29.1075C29.1073 29.085 29.0998 28.98 29.1673 28.9725L29.5273 28.995C29.5873 29.01 29.6848 28.9875 29.7298 29.0325C29.7298 29.1075 29.8048 29.1675 29.8723 29.1975C29.9098 29.2125 29.9473 29.16 29.9848 29.1525C30.0598 29.13 30.0373 29.04 30.0823 29.0025H30.4573C30.4723 29.0025 30.4798 28.965 30.5023 28.95L30.4873 28.8075C30.4648 28.7475 30.4873 28.6725 30.4498 28.62C30.3823 28.605 30.3298 28.6575 30.2698 28.665C30.1948 28.695 30.1423 28.7625 30.1348 28.8375C30.0973 28.905 30.0298 28.8225 30.0598 28.7625L30.0523 28.6875C30.0148 28.65 29.9473 28.665 29.8948 28.6575L29.6698 28.6425C29.5948 28.6425 29.5273 28.65 29.4673 28.635C29.3923 28.635 29.3923 28.56 29.3923 28.5C29.3773 28.4886 29.3586 28.4832 29.3398 28.485ZM29.4898 28.7625L29.5648 28.77H29.6623C29.7373 28.785 29.8123 28.785 29.8873 28.785C29.9023 28.785 29.9173 28.8 29.9323 28.815V28.965C29.9323 28.9875 29.9323 29.0175 29.9173 29.025C29.9134 29.031 29.9083 29.0361 29.9023 29.04C29.8914 29.0381 29.8809 29.0337 29.8719 29.0272C29.8628 29.0207 29.8553 29.0123 29.8498 29.0025V28.8975C29.835 28.8849 29.8167 28.8771 29.7973 28.875L29.6023 28.8675L29.4523 28.86C29.4298 28.8525 29.3998 28.86 29.3848 28.83C29.3698 28.815 29.3923 28.785 29.4148 28.7775C29.4384 28.767 29.464 28.7618 29.4898 28.7625ZM30.3373 28.785C30.3448 28.785 30.3523 28.785 30.3523 28.8075L30.3673 28.845C30.3673 28.8525 30.3673 28.86 30.3523 28.86C30.3148 28.875 30.2773 28.875 30.2623 28.86C30.2623 28.8525 30.2623 28.8225 30.2773 28.815L30.3373 28.785Z" fill="#C09300"/>
<path d="M29.9999 24.54C32.4449 22.665 32.2349 19.905 32.2349 19.905L32.0474 19.92C31.5299 19.92 30.3074 19.62 30.0224 19.2525C29.7224 19.59 28.4624 19.9275 27.9524 19.9275L27.7649 19.905C27.7649 19.905 27.5474 22.6575 29.9999 24.54Z" fill="white"/>
<path fill-rule="evenodd" clip-rule="evenodd" d="M30.0246 19.188L30.055 19.2272C30.1204 19.3115 30.2432 19.3957 30.4045 19.4748C30.5646 19.5533 30.758 19.6245 30.9595 19.6845C31.3625 19.8046 31.7923 19.8784 32.0458 19.8788L32.2729 19.8606L32.2761 19.9019L32.2349 19.905C32.2761 19.9019 32.2761 19.9018 32.2761 19.9019L32.2761 19.9025L32.2762 19.9042L32.2766 19.9105C32.277 19.916 32.2774 19.924 32.2779 19.9346C32.2789 19.9557 32.2799 19.9867 32.2804 20.0268C32.2814 20.1068 32.28 20.223 32.2707 20.3682C32.252 20.6585 32.2015 21.0649 32.0741 21.5303C31.8192 22.4612 31.2563 23.6285 30.025 24.5727L29.9999 24.592L29.9748 24.5727C28.7399 23.6248 28.1769 22.4575 27.923 21.5274C27.796 21.0625 27.7462 20.6568 27.7281 20.3671C27.7191 20.2222 27.718 20.1063 27.7191 20.0264C27.7197 19.9864 27.7209 19.9555 27.7219 19.9344C27.7224 19.9239 27.7229 19.9158 27.7232 19.9103L27.7236 19.9041L27.7238 19.9024L27.7238 19.902L27.7238 19.9018C27.7238 19.9018 27.7238 19.9018 27.7649 19.905L27.7238 19.9018L27.7272 19.8589L27.9549 19.8863C28.2043 19.8857 28.6408 19.8028 29.0542 19.6771C29.261 19.6142 29.4606 19.541 29.6266 19.463C29.7938 19.3844 29.9224 19.3029 29.9916 19.2251L30.0246 19.188ZM27.8037 19.9512C27.8029 19.9705 27.8021 19.9961 27.8016 20.0276C27.8005 20.1055 27.8015 20.2194 27.8104 20.3619C27.8282 20.6471 27.8773 21.0472 28.0025 21.5057C28.2512 22.4162 28.7999 23.5569 29.9999 24.4879C31.1963 23.5606 31.7449 22.42 31.9945 21.5085C32.1202 21.0495 32.17 20.6487 32.1884 20.3629C32.1976 20.22 32.1989 20.1059 32.1979 20.0278C32.1975 19.9953 32.1968 19.9691 32.196 19.9495L32.0491 19.9613H32.0474C31.7832 19.9613 31.344 19.8852 30.936 19.7636C30.7316 19.7027 30.5336 19.63 30.3681 19.5489C30.2238 19.4781 30.1006 19.3992 30.0205 19.3136C29.9369 19.3924 29.81 19.468 29.6617 19.5377C29.4911 19.6179 29.2876 19.6924 29.0782 19.756C28.6605 19.8831 28.2134 19.9688 27.9524 19.9688H27.95L27.8037 19.9512Z" fill="#C09300"/>
<path d="M32.04 20.1H31.98C31.515 20.1 30.435 19.8675 30.015 19.5075C29.58 19.8375 28.4775 20.1075 28.02 20.1075C27.9998 20.1067 27.9797 20.1042 27.96 20.1C27.9641 20.574 28.0296 21.0454 28.155 21.5025C28.4558 22.6038 29.1026 23.5793 30 24.285C30.8979 23.5766 31.5446 22.5986 31.845 21.495C31.9697 21.0403 32.0352 20.5715 32.04 20.1Z" fill="white"/>
<path fill-rule="evenodd" clip-rule="evenodd" d="M30.0162 19.4641L30.0369 19.4818C30.2408 19.6566 30.6095 19.8032 30.9893 19.9061C31.3683 20.0088 31.7514 20.0662 31.9799 20.0662H32.0399V20.1L32.0736 20.1003C32.0689 20.5746 32.0029 21.0464 31.8774 21.5039C31.5752 22.6144 30.9244 23.5986 30.0208 24.3114L29.9999 24.3279L29.979 24.3115C29.076 23.6013 28.4251 22.6196 28.1223 21.5113C27.9962 21.0514 27.9303 20.5771 27.9261 20.1002L27.9258 20.0582L27.9669 20.0669C27.9846 20.0707 28.0025 20.073 28.0206 20.0737C28.2449 20.0736 28.6311 20.007 29.0167 19.8987C29.4032 19.7902 29.7824 19.6415 29.9945 19.4806L30.0162 19.4641ZM32.0057 20.1337H31.9799C31.7434 20.1337 31.354 20.0749 30.9717 19.9713C30.6022 19.8712 30.2328 19.7276 30.0137 19.5503C29.7878 19.7129 29.4106 19.8582 29.035 19.9637C28.6466 20.0728 28.2532 20.1412 28.0199 20.1412H28.0186L28.0186 20.1412C28.0104 20.1409 28.0023 20.1403 27.9941 20.1395C28.0014 20.5971 28.0664 21.052 28.1874 21.4935L28.1875 21.4936C28.484 22.5793 29.119 23.542 29.9999 24.2419C30.8813 23.5393 31.5162 22.5741 31.8123 21.4861L31.8123 21.486C31.9333 21.0451 31.9982 20.5908 32.0057 20.1337Z" fill="#C09300"/>
<path d="M29.205 19.875C28.8021 20.0062 28.3833 20.0819 27.96 20.1L27.9675 20.4075C27.9931 20.7754 28.0559 21.1398 28.155 21.495C28.3566 22.2326 28.7147 22.9182 29.205 23.505V19.875ZM30.75 19.875V23.565C31.2638 22.9647 31.6379 22.2576 31.845 21.495C31.9439 21.1397 32.0067 20.7754 32.0325 20.4075L32.04 20.1075H31.98C31.695 20.1075 31.2 20.0175 30.75 19.8675V19.875Z" fill="#C09300"/>
<path d="M30.9223 18.975C30.9748 18.9825 30.8548 18.7125 30.8548 18.7125C30.9898 18.8475 31.4848 18.885 31.4848 18.885C31.1848 18.75 30.8848 17.7525 30.9223 16.95C30.9523 16.155 30.8098 15.84 30.6973 15.72C30.5473 15.57 30.0598 15.435 29.7448 15.42C29.5573 15.4125 29.5948 15.555 29.5948 15.555C29.2573 15.4725 28.9198 15.435 28.7698 15.54C28.6348 15.63 28.6048 16.1025 28.7098 16.02C28.9573 15.8175 29.1748 16.005 29.3248 16.2225C29.4598 16.41 29.4523 16.95 29.2573 17.5875C29.0847 18.0694 28.831 18.5183 28.5073 18.915C28.8073 18.915 29.2273 18.6525 29.2273 18.6525L29.1298 19.065C29.4448 18.915 29.6923 18.6825 29.6923 18.6825L29.9923 18.9975C30.0898 18.8625 30.2923 18.6825 30.2923 18.6825C30.2923 18.6825 30.5398 18.945 30.9223 18.9825V18.975Z" fill="white"/>
<path fill-rule="evenodd" clip-rule="evenodd" d="M29.621 15.3983C29.6531 15.381 29.6945 15.3729 29.7467 15.375L29.747 15.375C29.909 15.3827 30.1133 15.4211 30.296 15.4763C30.3876 15.5039 30.4746 15.5361 30.5489 15.5713C30.6224 15.6061 30.6864 15.6453 30.7292 15.6882L30.7297 15.6887L30.7302 15.6892C30.8556 15.823 30.9975 16.1539 30.9674 16.9517L30.9674 16.9521C30.9489 17.3476 31.0137 17.7926 31.1203 18.1551C31.1736 18.3363 31.2369 18.4954 31.3045 18.6166C31.3733 18.7399 31.4423 18.8165 31.5034 18.8439L31.4815 18.9299L31.4849 18.885C31.4815 18.9299 31.4815 18.9299 31.4815 18.9299L31.4814 18.9298L31.4811 18.9298L31.4799 18.9297L31.4755 18.9294C31.4718 18.929 31.4662 18.9286 31.4592 18.9279C31.4451 18.9266 31.4249 18.9246 31.4003 18.9217C31.3511 18.916 31.2839 18.907 31.2123 18.8936C31.1408 18.8803 31.0639 18.8624 30.9957 18.8389C30.9791 18.8332 30.9627 18.8271 30.9468 18.8205C30.9482 18.8242 30.9495 18.8279 30.9508 18.8316C30.9626 18.8652 30.9739 18.9015 30.9784 18.93C30.9805 18.9431 30.9824 18.961 30.9781 18.9772C30.9765 18.9834 30.9735 18.9916 30.9674 18.9993V19.0321L30.918 19.0273C30.7176 19.0076 30.5533 18.9292 30.4397 18.8563C30.3828 18.8198 30.3382 18.7845 30.3076 18.7581C30.3018 18.7531 30.2965 18.7484 30.2917 18.744C30.2911 18.7446 30.2904 18.7452 30.2898 18.7457C30.2696 18.7645 30.2415 18.7909 30.2105 18.8214C30.148 18.883 30.0753 18.9596 30.0289 19.0238L29.9972 19.0677L29.6899 18.7451C29.6863 18.7483 29.6823 18.7517 29.6781 18.7553C29.6494 18.7799 29.6079 18.8143 29.5565 18.8533C29.4538 18.9313 29.3105 19.0288 29.1493 19.1056L29.0645 19.146L29.1597 18.7435C29.1168 18.7669 29.0614 18.7958 28.9987 18.8246C28.8554 18.8906 28.6678 18.96 28.5074 18.96H28.4126L28.4725 18.8865C28.7928 18.4942 29.0438 18.05 29.2147 17.5733C29.3111 17.2579 29.3608 16.9678 29.3699 16.7345C29.3745 16.6176 29.369 16.516 29.3544 16.433C29.3398 16.3493 29.3166 16.2879 29.2884 16.2488L29.2879 16.248C29.2142 16.1412 29.1279 16.0481 29.0349 16.0045C28.9893 15.9831 28.9428 15.974 28.8951 15.9802C28.8474 15.9864 28.795 16.0085 28.7384 16.0548L28.7377 16.0554C28.7174 16.0713 28.6859 16.084 28.6542 16.0657C28.6294 16.0512 28.6183 16.0242 28.6128 16.0049C28.6006 15.9627 28.5993 15.9018 28.6051 15.8404C28.611 15.7778 28.6248 15.7091 28.6465 15.6492C28.6674 15.5916 28.6985 15.5337 28.7445 15.5028C28.8325 15.4415 28.9674 15.4256 29.1141 15.4322C29.2471 15.4382 29.3978 15.4632 29.5493 15.4979C29.551 15.4883 29.5537 15.4781 29.5579 15.4678C29.5685 15.4416 29.5882 15.416 29.621 15.3983ZM29.2036 18.6143L29.2964 18.5563L29.196 18.9808C29.3152 18.9163 29.4212 18.8431 29.5021 18.7816C29.5519 18.7438 29.592 18.7107 29.6195 18.687C29.6333 18.6752 29.6439 18.6658 29.651 18.6593C29.6546 18.6561 29.6573 18.6537 29.6591 18.652L29.661 18.6502L29.6616 18.6497M29.2036 18.6143L29.2033 18.6144L29.2025 18.615L29.1992 18.617C29.1962 18.6189 29.1917 18.6216 29.1858 18.6251C29.174 18.6321 29.1568 18.6421 29.1352 18.6542C29.0918 18.6784 29.031 18.7106 28.9611 18.7429C28.852 18.7931 28.7246 18.8414 28.6081 18.8609C28.9037 18.481 29.1372 18.0563 29.2998 17.6027L29.3001 17.6017L29.3004 17.6006C29.3989 17.2789 29.4503 16.9807 29.4599 16.738C29.4646 16.6167 29.459 16.5084 29.4431 16.4174C29.4273 16.3274 29.4009 16.2512 29.3617 16.1966C29.2854 16.086 29.188 15.9768 29.0731 15.923C29.0146 15.8956 28.9509 15.8822 28.8835 15.891C28.8215 15.8991 28.7592 15.9256 28.6974 15.9726C28.6914 15.9455 28.6897 15.9015 28.6947 15.8489C28.7 15.7924 28.7125 15.7313 28.7311 15.6799C28.7505 15.6264 28.7736 15.5916 28.7949 15.5774L28.7957 15.5768C28.8577 15.5334 28.9664 15.5156 29.1101 15.5221C29.2513 15.5285 29.4169 15.5578 29.5842 15.5987L29.6577 15.6166L29.6385 15.5439C29.6385 15.5438 29.6385 15.5438 29.6385 15.5437C29.6384 15.5433 29.6382 15.5425 29.638 15.5413C29.6376 15.539 29.6371 15.5353 29.6369 15.5308C29.6365 15.5216 29.6375 15.511 29.6413 15.5016C29.6447 15.4931 29.6509 15.4844 29.6637 15.4775C29.6774 15.4702 29.7015 15.4633 29.7429 15.4649C29.896 15.4722 30.0928 15.5089 30.27 15.5624C30.3585 15.5892 30.4411 15.6198 30.5103 15.6526C30.5799 15.6855 30.6329 15.7193 30.6651 15.7513C30.7646 15.858 30.9073 16.1573 30.8774 16.9481C30.8585 17.355 30.9249 17.8099 31.0339 18.1805C31.0884 18.3659 31.154 18.5316 31.2259 18.6605C31.2604 18.7224 31.2975 18.7778 31.3367 18.8228" fill="#C09300"/>
<path fill-rule="evenodd" clip-rule="evenodd" d="M29.9287 17.0296L29.9774 17.0325C30.0261 17.0354 30.0261 17.0354 30.0261 17.0354L30.0258 17.0391L30.0252 17.0498C30.0246 17.0592 30.0236 17.0729 30.0224 17.0905C30.0199 17.1257 30.0162 17.1764 30.011 17.2385C30.0006 17.3625 29.9846 17.5322 29.962 17.7144C29.9394 17.8966 29.9102 18.0919 29.8732 18.2671C29.8365 18.4411 29.7914 18.5995 29.7355 18.7053L29.6493 18.6597C29.6984 18.5667 29.7414 18.4196 29.7778 18.2469C29.814 18.0755 29.8429 17.8831 29.8653 17.7024C29.8877 17.5219 29.9035 17.3536 29.9138 17.2304C29.919 17.1688 29.9227 17.1185 29.9251 17.0837C29.9264 17.0663 29.9273 17.0527 29.9279 17.0435L29.9285 17.0331L29.9287 17.0296ZM29.6591 17.0635L29.7074 17.07C29.7557 17.0765 29.7557 17.0765 29.7557 17.0765L29.7556 17.0775L29.7552 17.0802L29.7537 17.0907C29.7524 17.0999 29.7505 17.1135 29.7479 17.1307C29.7427 17.1653 29.735 17.215 29.7248 17.2757C29.7043 17.397 29.6736 17.5626 29.633 17.7391C29.5925 17.9154 29.5418 18.1036 29.4811 18.2701C29.4209 18.4351 29.3489 18.5843 29.2634 18.6779L29.1914 18.6121C29.2634 18.5333 29.3302 18.3993 29.3895 18.2367C29.4483 18.0755 29.4979 17.8915 29.538 17.7172C29.5781 17.5431 29.6084 17.3795 29.6286 17.2595C29.6388 17.1995 29.6464 17.1504 29.6515 17.1163C29.654 17.0993 29.6559 17.0861 29.6572 17.0771L29.6586 17.0669L29.659 17.0643L29.6591 17.0635ZM30.1612 17.085C30.1612 17.085 30.1612 17.085 30.2099 17.085C30.2587 17.085 30.2587 17.085 30.2587 17.085L30.2587 17.1003C30.2587 17.1103 30.2587 17.1251 30.2588 17.1439C30.2589 17.1816 30.2592 17.2358 30.2598 17.3015C30.261 17.4329 30.2633 17.6105 30.268 17.7953C30.2727 17.9802 30.2797 18.1719 30.2902 18.3316C30.2954 18.4115 30.3015 18.4829 30.3085 18.5413C30.3157 18.6006 30.3235 18.6433 30.3313 18.6675L30.2385 18.6975C30.2276 18.6636 30.219 18.6128 30.2117 18.5529C30.2044 18.4921 30.1982 18.4188 30.1929 18.338C30.1823 18.1764 30.1752 17.9832 30.1705 17.7978C30.1658 17.6123 30.1635 17.4341 30.1623 17.3024C30.1617 17.2365 30.1614 17.1822 30.1613 17.1443C30.1612 17.1254 30.1612 17.1106 30.1612 17.1005L30.1612 17.085ZM30.4612 17.1551C30.4612 17.1551 30.4612 17.1551 30.5099 17.1525L30.5586 17.15L30.5586 17.1507L30.5588 17.1531L30.5593 17.1626C30.5598 17.171 30.5606 17.1834 30.5617 17.1993C30.5639 17.2312 30.5673 17.2773 30.5723 17.334C30.5823 17.4473 30.5986 17.6026 30.6237 17.7706C30.6489 17.9387 30.6828 18.1187 30.7278 18.2818C30.773 18.4457 30.8285 18.5885 30.895 18.6848L30.8148 18.7402C30.7389 18.6303 30.6799 18.475 30.6338 18.3077C30.5874 18.1395 30.5528 17.9553 30.5273 17.785C30.5018 17.6146 30.4853 17.4572 30.4752 17.3425C30.4701 17.2852 30.4666 17.2384 30.4644 17.2059C30.4633 17.1897 30.4625 17.177 30.462 17.1684L30.4614 17.1585L30.4613 17.156L30.4612 17.1551Z" fill="#C09300"/>
<path d="M29.4 16.47C29.3933 16.383 29.3677 16.2985 29.325 16.2225C29.175 15.9975 28.9575 15.8175 28.71 16.02C28.71 16.02 28.7925 15.7575 28.98 15.75C29.115 15.7425 29.4375 15.855 29.7225 16.335C29.7225 16.335 29.5125 16.29 29.46 16.335C29.37 16.41 29.4075 16.47 29.4075 16.47H29.4Z" fill="#C09300"/>
<path fill-rule="evenodd" clip-rule="evenodd" d="M29.6999 16.3192C29.4194 15.8596 29.108 15.7542 28.9806 15.7612L28.9805 15.7612C28.8923 15.7648 28.8275 15.8284 28.7841 15.894C28.7625 15.9266 28.7466 15.959 28.7362 15.9833C28.7356 15.9847 28.735 15.986 28.7344 15.9874C28.7867 15.9509 28.8379 15.9304 28.8879 15.9234C28.9478 15.915 29.0051 15.926 29.0588 15.9507C29.1657 15.9998 29.259 16.1032 29.3344 16.2163L29.3349 16.217C29.3653 16.2712 29.3871 16.3296 29.3999 16.3901C29.4094 16.3705 29.4258 16.3489 29.4528 16.3264C29.4688 16.3127 29.495 16.3069 29.5223 16.3048C29.5503 16.3026 29.5822 16.3041 29.612 16.3069C29.6419 16.3098 29.6701 16.314 29.6908 16.3176C29.694 16.3181 29.697 16.3187 29.6999 16.3192ZM29.4171 16.4641L29.417 16.4639C29.4168 16.4636 29.4166 16.4631 29.4162 16.4624C29.4156 16.4611 29.4147 16.459 29.4138 16.4561C29.412 16.4505 29.4104 16.442 29.4112 16.4315C29.4128 16.4107 29.4241 16.3796 29.4672 16.3436L29.4673 16.3435C29.4775 16.3348 29.4972 16.3293 29.5241 16.3272C29.5502 16.3252 29.5806 16.3265 29.6099 16.3293C29.639 16.3321 29.6666 16.3363 29.687 16.3398C29.6971 16.3415 29.7055 16.3431 29.7112 16.3442C29.7141 16.3448 29.7164 16.3452 29.7179 16.3455L29.7196 16.3459L29.72 16.346L29.7201 16.346L29.7453 16.3514L29.7322 16.3293C29.446 15.8472 29.1202 15.731 28.9795 15.7388C28.8802 15.7428 28.81 15.8141 28.7653 15.8816C28.7428 15.9156 28.7263 15.9493 28.7155 15.9744C28.7101 15.987 28.706 15.9975 28.7034 16.0049C28.702 16.0085 28.701 16.0114 28.7003 16.0134L28.6996 16.0158L28.6994 16.0164L28.6993 16.0166C28.6993 16.0166 28.6993 16.0166 28.71 16.02L28.6993 16.0166L28.688 16.0526L28.7171 16.0287C28.7777 15.9791 28.8359 15.9535 28.891 15.9457C28.9461 15.938 28.999 15.948 29.0494 15.9712C29.1505 16.0176 29.2408 16.1166 29.3154 16.2284C29.3572 16.3029 29.3822 16.3857 29.3888 16.4709L29.3896 16.4812H29.4278L29.4171 16.4641C29.4171 16.4641 29.4171 16.4641 29.4171 16.4641Z" fill="#C09300"/>
<path d="M28.6799 15.6975C28.7024 15.6225 28.7324 15.5625 28.7774 15.54C28.9274 15.435 29.2574 15.465 29.5949 15.555C29.5949 15.555 29.5649 15.4125 29.7449 15.42C30.0599 15.435 30.5399 15.57 30.6899 15.72C30.738 15.7727 30.7761 15.8337 30.8024 15.9C30.7274 15.795 30.5174 15.8025 30.4649 15.81C30.3899 15.8175 30.3374 15.81 30.2324 15.84C30.1799 15.855 30.1049 15.87 30.0599 15.9C30.0299 15.93 29.9999 16.02 29.9549 16.02C29.8799 16.02 29.8799 16.005 29.8574 15.9825C29.8349 15.945 29.8199 15.9 29.7899 15.9075C29.7149 15.915 29.5799 15.855 29.4149 15.72C29.2424 15.585 29.1749 15.555 28.9649 15.57C28.7399 15.585 28.6799 15.7125 28.6799 15.7125V15.6975Z" fill="#C09300"/>
<path fill-rule="evenodd" clip-rule="evenodd" d="M29.606 15.5527L29.6059 15.5525L29.6058 15.5515C29.6056 15.5506 29.6054 15.5493 29.6052 15.5475C29.6048 15.544 29.6043 15.5389 29.6043 15.5328C29.6043 15.5206 29.6061 15.5046 29.6128 15.4891C29.6194 15.4738 29.6309 15.4588 29.651 15.4478C29.6712 15.4367 29.7009 15.4294 29.7445 15.4312C29.9008 15.4387 30.0986 15.476 30.276 15.5301C30.3647 15.5572 30.4481 15.5884 30.5185 15.6221C30.5889 15.6558 30.6456 15.6916 30.6818 15.7278C30.7158 15.7651 30.7447 15.8066 30.7679 15.8513C30.7274 15.8236 30.6756 15.809 30.6269 15.8017C30.5575 15.7912 30.491 15.7949 30.4636 15.7988C30.4637 15.7988 30.4638 15.7988 30.4638 15.7988L30.465 15.81L30.4634 15.7988C30.4634 15.7988 30.4635 15.7988 30.4636 15.7988M29.8664 15.9755C29.8621 15.9682 29.858 15.9607 29.854 15.9531C29.8532 15.9516 29.8523 15.9501 29.8515 15.9486C29.8465 15.9392 29.8413 15.9298 29.8358 15.9217C29.8303 15.9137 29.8239 15.9062 29.816 15.9012C29.8079 15.8961 29.7985 15.894 29.7881 15.8964C29.7537 15.8996 29.7038 15.8875 29.6411 15.857C29.5784 15.8266 29.5041 15.7784 29.4221 15.7113L29.4221 15.7113L29.4219 15.7111C29.3356 15.6436 29.2743 15.6013 29.2077 15.5781C29.1409 15.5549 29.0697 15.5512 28.9642 15.5588C28.8495 15.5664 28.7761 15.6028 28.7311 15.638C28.7202 15.6466 28.7109 15.6551 28.7032 15.663C28.7113 15.6412 28.7201 15.6216 28.73 15.6047C28.7453 15.5786 28.7627 15.56 28.7825 15.55L28.7832 15.5497L28.7839 15.5492C28.8558 15.4989 28.9726 15.48 29.1154 15.4856C29.2578 15.4912 29.4238 15.521 29.5921 15.5659L29.6097 15.5706L29.606 15.5527L29.606 15.5527L29.606 15.5527M28.6912 15.6991C28.695 15.6866 28.699 15.6745 28.7032 15.663C28.6952 15.6713 28.6888 15.679 28.6838 15.6856C28.6808 15.6896 28.6783 15.6933 28.6763 15.6964L28.6692 15.6943C28.6806 15.6563 28.694 15.6216 28.7106 15.5934C28.7269 15.5654 28.7468 15.543 28.7717 15.5303C28.7714 15.5305 28.7712 15.5306 28.771 15.5308L28.7775 15.54L28.7724 15.5299C28.7722 15.53 28.7719 15.5302 28.7717 15.5303C28.8499 15.476 28.9727 15.4575 29.1163 15.4631C29.2564 15.4686 29.4182 15.4971 29.582 15.5399C29.5822 15.544 29.5825 15.5475 29.5828 15.5502C29.5831 15.5524 29.5834 15.5541 29.5836 15.5553L29.5838 15.5567L29.5839 15.5571L29.5839 15.5572L29.5839 15.5573L29.5839 15.5573C29.5839 15.5573 29.5839 15.5573 29.595 15.555L29.5979 15.5441C29.5926 15.5427 29.5873 15.5413 29.582 15.5399C29.5819 15.5377 29.5818 15.5353 29.5818 15.5328C29.5818 15.5186 29.5838 15.4994 29.5921 15.4802C29.6005 15.4608 29.6152 15.4417 29.6402 15.428C29.665 15.4145 29.699 15.4068 29.7454 15.4087L29.7455 15.4087V15.4087C29.9041 15.4163 30.1038 15.454 30.2826 15.5086C30.3721 15.5359 30.4565 15.5675 30.5282 15.6018C30.5996 15.636 30.6591 15.6732 30.6979 15.712L30.6983 15.7124L30.6983 15.7124C30.7472 15.7661 30.786 15.8283 30.8129 15.8958L30.7933 15.9065C30.7586 15.8579 30.6914 15.8341 30.6236 15.8239C30.5564 15.8138 30.4918 15.8175 30.4665 15.8211L30.4661 15.8212L30.4661 15.8212C30.4438 15.8234 30.4239 15.8243 30.4042 15.8253C30.3558 15.8275 30.3093 15.8297 30.2355 15.8508C30.2242 15.854 30.2123 15.8572 30.2001 15.8604C30.1829 15.8649 30.1649 15.8696 30.1467 15.8751C30.1164 15.8843 30.0881 15.895 30.0671 15.9087C30.0609 15.9152 30.0543 15.9251 30.0468 15.9373C30.0441 15.9417 30.0413 15.9464 30.0384 15.9513C30.0333 15.9599 30.0279 15.9689 30.0225 15.9773C30.014 15.9907 30.0044 16.0038 29.9938 16.0137C29.9831 16.0236 29.9702 16.0312 29.955 16.0312C29.9172 16.0312 29.896 16.0275 29.8812 16.0196C29.8736 16.0155 29.8682 16.0106 29.8635 16.0056C29.8612 16.0032 29.8594 16.0012 29.8577 15.9992C29.8552 15.9965 29.8529 15.9938 29.8495 15.9904L29.8485 15.9895L29.8478 15.9883C29.8429 15.9801 29.8383 15.9716 29.8341 15.9636C29.8333 15.9621 29.8325 15.9606 29.8317 15.9592C29.8267 15.9498 29.822 15.9414 29.8172 15.9345C29.8124 15.9275 29.8081 15.9228 29.804 15.9203C29.8004 15.918 29.797 15.9173 29.7927 15.9184L29.7919 15.9186L29.7911 15.9187C29.7505 15.9227 29.6957 15.9085 29.6313 15.8773C29.5666 15.8459 29.4909 15.7966 29.4079 15.7288C29.3217 15.6613 29.263 15.6212 29.2003 15.5994C29.1378 15.5776 29.0703 15.5737 28.9658 15.5812L28.9657 15.5812C28.8554 15.5886 28.7863 15.6234 28.745 15.6557C28.7243 15.6719 28.7105 15.6876 28.7018 15.6991C28.6975 15.7048 28.6945 15.7095 28.6927 15.7127C28.6917 15.7143 28.691 15.7155 28.6906 15.7163L28.6902 15.7171L28.6901 15.7173C28.6901 15.7173 28.6901 15.7173 28.6901 15.7173L28.6687 15.7125V15.6975H28.6756C28.6758 15.6971 28.6761 15.6968 28.6763 15.6964L28.68 15.6975M28.9642 15.5588C28.9642 15.5588 28.9642 15.5588 28.9642 15.5588L28.965 15.57L28.9642 15.5588C28.9642 15.5588 28.9642 15.5588 28.9642 15.5588ZM29.7881 15.8964C29.7878 15.8964 29.7875 15.8965 29.7872 15.8966L29.79 15.9075L29.7888 15.8963C29.7886 15.8963 29.7883 15.8963 29.7881 15.8964ZM29.8664 15.9755C29.8666 15.9759 29.8669 15.9763 29.8671 15.9767L29.8575 15.9825L29.8654 15.9745C29.8657 15.9749 29.8661 15.9752 29.8664 15.9755Z" fill="#C09300"/>
<path d="M29.9098 15.8925C29.9595 15.8925 29.9998 15.8522 29.9998 15.8025C29.9998 15.7528 29.9595 15.7125 29.9098 15.7125C29.8601 15.7125 29.8198 15.7528 29.8198 15.8025C29.8198 15.8522 29.8601 15.8925 29.9098 15.8925Z" fill="white"/>
</g>
<defs>
<clipPath id="clip0_2714_11462">
<rect width="60" height="45" fill="white"/>
</clipPath>
</defs>
</svg>
