<svg width="26" height="26" viewBox="0 0 26 26" fill="none" xmlns="http://www.w3.org/2000/svg">
<g clip-path="url(#clip0_39_856)">
<g clip-path="url(#clip1_39_856)">
<path d="M-3.36328 0.727295H29.364V25.2728H-3.36328V0.727295Z" fill="#012169"/>
<path d="M0.471946 0.727295L12.9492 9.98298L25.3754 0.727295H29.364V3.89775L17.0913 13.0512L29.364 22.1534V25.2728H25.2731L13.0004 16.1193L0.778764 25.2728H-3.36328V22.2046L8.85831 13.1023L-3.36328 4.00002V0.727295H0.471946Z" fill="white"/>
<path d="M18.3185 15.0966L29.364 23.2273V25.2728L15.506 15.0966H18.3185ZM8.90945 16.1193L9.21626 17.9091L-0.601918 25.2728H-3.36328L8.90945 16.1193ZM29.364 0.727295V0.880704L16.631 10.4943L16.7333 8.24434L26.8072 0.727295H29.364ZM-3.36328 0.727295L8.85831 9.7273H5.79013L-3.36328 2.87502V0.727295Z" fill="#C8102E"/>
<path d="M8.96058 0.727295V25.2728H17.1424V0.727295H8.96058ZM-3.36328 8.90911V17.0909H29.364V8.90911H-3.36328Z" fill="white"/>
<path d="M-3.36328 10.5966V15.5057H29.364V10.5966H-3.36328ZM10.5969 0.727295V25.2728H15.506V0.727295H10.5969Z" fill="#C8102E"/>
</g>
</g>
<path d="M13 0.5C6.09644 0.5 0.5 6.09644 0.5 13C0.5 19.9036 6.09644 25.5 13 25.5C19.9036 25.5 25.5 19.9036 25.5 13C25.5 6.09644 19.9036 0.5 13 0.5Z" stroke="black" stroke-opacity="0.08"/>
<defs>
<clipPath id="clip0_39_856">
<path d="M1 13C1 6.37258 6.37258 1 13 1C19.6274 1 25 6.37258 25 13C25 19.6274 19.6274 25 13 25C6.37258 25 1 19.6274 1 13Z" fill="white"/>
</clipPath>
<clipPath id="clip1_39_856">
<rect width="32.7273" height="24.5455" fill="white" transform="translate(-3.36328 0.727295)"/>
</clipPath>
</defs>
</svg>
