<svg width="20" height="20" viewBox="0 0 20 20" fill="none" xmlns="http://www.w3.org/2000/svg">
<g clip-path="url(#clip0_1_14940)">
<rect width="20" height="20" rx="10" fill="#EBEBEB"/>
<g clip-path="url(#clip1_1_14940)">
<g clip-path="url(#clip2_1_14940)">
<path fill-rule="evenodd" clip-rule="evenodd" d="M-3.63635 -0.227295H35.2273V1.34941H-3.63635V-0.227295ZM-3.63635 2.92185H35.2273V4.49856H-3.63635V2.92185ZM-3.63635 6.06674H35.2273V7.64344H-3.63635V6.06674ZM-3.63635 9.21163H35.2273V10.7883H-3.63635V9.21163ZM-3.63635 12.365H35.2273V13.9332H-3.63635V12.365ZM-3.63635 15.5057H35.2273V17.0824H-3.63635V15.5057ZM-3.63635 18.6505H35.2273V20.2273H-3.63635V18.6505Z" fill="#BD3D44"/>
<path fill-rule="evenodd" clip-rule="evenodd" d="M-3.63635 1.34949H35.2273V2.92193H-3.63635V1.34949ZM-3.63635 4.49437H35.2273V6.06682H-3.63635V4.49437ZM-3.63635 7.63926H35.2273V9.21597H-3.63635V7.63926ZM-3.63635 10.7884H35.2273V12.3651H-3.63635V10.7884ZM-3.63635 13.9333H35.2273V15.51H-3.63635V13.9333ZM-3.63635 17.0782H35.2273V18.6549H-3.63635V17.0782Z" fill="white"/>
<path fill-rule="evenodd" clip-rule="evenodd" d="M-3.63635 -0.227295H11.9091V10.7883H-3.63635V-0.227295Z" fill="#192F5D"/>
<path fill-rule="evenodd" clip-rule="evenodd" d="M-2.34092 0.241455L-2.19603 0.680376H-1.74433L-2.11081 0.948841L-1.97018 1.38776L-2.34092 1.11503L-2.7074 1.3835L-2.57103 0.948841L-2.94177 0.680376H-2.47728L-2.34092 0.241455ZM0.249989 0.241455L0.390614 0.680376H0.850841L0.480103 0.948841L0.616466 1.38776L0.249989 1.11503L-0.12075 1.3835L0.0198753 0.948841L-0.346602 0.680376H0.105103L0.249989 0.241455ZM2.8409 0.241455L2.98152 0.680376H3.43749L3.07101 0.948841L3.21164 1.38776L2.8409 1.11503L2.47016 1.3835L2.61078 0.948841L2.24005 0.680376H2.70027L2.8409 0.241455ZM5.43181 0.241455L5.57243 0.680376H6.03266L5.66192 0.948841L5.80255 1.38776L5.43181 1.11503L5.06107 1.3835L5.20595 0.948841L4.83095 0.680376H5.28692L5.43181 0.241455ZM8.02272 0.241455L8.16334 0.680376H8.61931L8.25283 0.948841L8.39345 1.38776L8.02272 1.11503L7.65198 1.3835L7.7926 0.948841L7.42613 0.680376H7.88209L8.02272 0.241455ZM10.6136 0.241455L10.7543 0.680376H11.2145L10.8395 0.948841L10.9844 1.38776L10.6136 1.11503L10.2429 1.3835L10.3878 0.948841L10.0128 0.680376H10.473L10.6136 0.241455ZM-1.04547 1.34941L-0.904841 1.78407H-0.440352L-0.81109 2.04827L-0.674727 2.48719L-1.03694 2.21873L-1.40768 2.48719L-1.27558 2.04827L-1.63353 1.78407H-1.17757L-1.04547 1.34941ZM1.54544 1.34941L1.69033 1.78407H2.1463L1.7713 2.04827L1.91618 2.48719L1.54544 2.21873L1.17471 2.48719L1.31533 2.04827L0.944591 1.78407H1.40482L1.54544 1.34941ZM4.13635 1.34941L4.27698 1.78407H4.7372L4.36647 2.04827L4.50709 2.48719L4.13635 2.21873L3.76561 2.48719L3.90624 2.04827L3.53976 1.78407H3.99147L4.13635 1.34941ZM6.72726 1.34941L6.87215 1.78407H7.32811L6.95311 2.04827L7.098 2.48719L6.72726 2.21873L6.36078 2.48719L6.49715 2.04827L6.12641 1.78407H6.5909L6.72726 1.34941ZM9.31817 1.34941L9.4588 1.78407H9.91902L9.54828 2.04827L9.68891 2.48719L9.31817 2.21873L8.94743 2.48719L9.08806 2.04827L8.72158 1.78407H9.17755L9.31817 1.34941ZM-2.34092 2.44032L-2.19603 2.8835H-1.74433L-2.11081 3.15197L-1.97018 3.58663L-2.34092 3.31816L-2.7074 3.58663L-2.57103 3.15197L-2.94177 2.8835H-2.47728L-2.34092 2.44032ZM0.249989 2.44032L0.390614 2.8835H0.850841L0.480103 3.15197L0.616466 3.58663L0.249989 3.31816L-0.12075 3.58663L0.0198753 3.1477L-0.346602 2.87924H0.105103L0.249989 2.44032ZM2.8409 2.44032L2.98152 2.87924H3.43749L3.07101 3.1477L3.21164 3.58236L2.8409 3.3139L2.47016 3.58236L2.61078 3.14344L2.24005 2.87498H2.70027L2.8409 2.44032ZM5.43181 2.44032L5.57243 2.87924H6.03266L5.66192 3.1477L5.80255 3.58236L5.43181 3.3139L5.06107 3.58236L5.20595 3.14344L4.83095 2.87498H5.28692L5.43181 2.44032ZM8.02272 2.44032L8.16334 2.87924H8.61931L8.25283 3.1477L8.39345 3.58236L8.02272 3.3139L7.65198 3.58236L7.7926 3.14344L7.42613 2.87498H7.88209L8.02272 2.44032ZM10.6136 2.44032L10.7543 2.87924H11.2145L10.8395 3.1477L10.9844 3.58236L10.6136 3.3139L10.2429 3.58236L10.3878 3.14344L10.0128 2.87498H10.473L10.6136 2.44032ZM-1.04547 3.54827L-0.904841 3.98293H-0.440352L-0.81109 4.2514L-0.670466 4.69032L-1.0412 4.41759L-1.41194 4.68606L-1.27132 4.2514L-1.6378 3.98293H-1.18183L-1.04547 3.54827ZM1.54544 3.54827L1.69033 3.98293H2.1463L1.7713 4.2514L1.91618 4.69032L1.54544 4.41759L1.17471 4.68606L1.31533 4.2514L0.944591 3.98293H1.40482L1.54544 3.54827ZM4.13635 3.54827L4.27698 3.98293H4.7372L4.36647 4.2514L4.50709 4.69032L4.13635 4.41759L3.76561 4.68606L3.90624 4.2514L3.53976 3.98293H3.99147L4.13635 3.54827ZM6.72726 3.54827L6.87215 3.98293H7.32811L6.95738 4.2514L7.098 4.69032L6.72726 4.41759L6.36078 4.68606L6.49715 4.2514L6.12641 3.98293H6.5909L6.72726 3.54827ZM9.31817 3.54827L9.4588 3.98293H9.91902L9.54828 4.2514L9.68891 4.69032L9.31817 4.41759L8.94743 4.68606L9.08806 4.2514L8.72158 3.98293H9.17755L9.31817 3.54827ZM-2.34092 4.65197L-2.19603 5.08663H-1.74433L-2.11081 5.35509L-1.97018 5.79401L-2.34092 5.52128L-2.7074 5.78975L-2.57103 5.35509L-2.94177 5.08663H-2.47728L-2.34092 4.65197ZM0.249989 4.65197L0.390614 5.08663H0.850841L0.480103 5.35509L0.616466 5.78975L0.249989 5.52128L-0.12075 5.78975L0.0198753 5.35509L-0.346602 5.08663H0.105103L0.249989 4.65197ZM2.8409 4.65197L2.98152 5.08663H3.43749L3.07101 5.35509L3.21164 5.79401L2.8409 5.52128L2.47016 5.78975L2.61078 5.35509L2.24005 5.08663H2.70027L2.8409 4.65197ZM5.43181 4.65197L5.57243 5.08663H6.03266L5.66192 5.35509L5.80255 5.79401L5.43181 5.52128L5.06107 5.78975L5.20595 5.35509L4.83095 5.08663H5.28692L5.43181 4.65197ZM8.02272 4.65197L8.16334 5.08663H8.61931L8.25283 5.35509L8.39345 5.79401L8.02272 5.52128L7.65198 5.78975L7.7926 5.35509L7.42613 5.08663H7.88209L8.02272 4.65197ZM10.6136 4.65197L10.7543 5.08663H11.2145L10.8395 5.35509L10.9844 5.79401L10.6136 5.52128L10.2429 5.78975L10.3835 5.35509L10.0085 5.08663H10.4687L10.6136 4.65197ZM-1.04547 5.7514L-0.904841 6.19032H-0.440352L-0.81109 6.45452L-0.670466 6.89344L-1.0412 6.62072L-1.41194 6.89344L-1.27132 6.45452L-1.6378 6.18606H-1.18183L-1.04547 5.7514ZM1.54544 5.7514L1.69033 6.19032H2.1463L1.7713 6.45452L1.91618 6.89344L1.54544 6.62072L1.17471 6.89344L1.31533 6.45452L0.944591 6.18606H1.40482L1.54544 5.7514ZM4.13635 5.7514L4.27698 6.19032H4.7372L4.36647 6.45452L4.50709 6.89344L4.13635 6.62072L3.76561 6.89344L3.90624 6.45452L3.53976 6.18606H3.99147L4.13635 5.7514ZM6.72726 5.7514L6.87215 6.19032H7.32811L6.95738 6.45452L7.098 6.89344L6.72726 6.62072L6.36078 6.89344L6.49715 6.45452L6.12641 6.18606H6.5909L6.72726 5.7514ZM9.31817 5.7514L9.4588 6.19032H9.91902L9.54828 6.45452L9.68891 6.89344L9.31817 6.62072L8.94743 6.89344L9.08806 6.45452L8.72158 6.18606H9.17755L9.31817 5.7514ZM-2.34092 6.85083L-2.19603 7.28975H-1.74433L-2.11081 7.55822L-1.97018 7.98861L-2.34092 7.72441L-2.7074 7.98861L-2.57103 7.55396L-2.94177 7.28549H-2.47728L-2.34092 6.85083ZM0.249989 6.85083L0.390614 7.28975H0.850841L0.480103 7.55822L0.620728 7.98861L0.249989 7.72441L-0.12075 7.98861L0.0241369 7.55396L-0.346602 7.28549H0.105103L0.249989 6.85083ZM2.8409 6.85083L2.98152 7.28975H3.43749L3.07101 7.55822L3.21164 7.98861L2.8409 7.72441L2.47016 7.98861L2.61078 7.55396L2.24005 7.28549H2.70027L2.8409 6.85083ZM5.43181 6.85083L5.57243 7.28975H6.03266L5.66192 7.55822L5.80255 7.98861L5.43181 7.72441L5.06107 7.98861L5.20595 7.55396L4.83095 7.28549H5.28692L5.43181 6.85083ZM8.02272 6.85083L8.16334 7.28975H8.61931L8.25283 7.55822L8.39345 7.98861L8.02272 7.72441L7.65198 7.98861L7.7926 7.55396L7.42613 7.28549H7.88209L8.02272 6.85083ZM10.6136 6.85083L10.7543 7.28975H11.2145L10.8395 7.55822L10.9844 7.98861L10.6136 7.72441L10.2429 7.98861L10.3878 7.55396L10.0128 7.28549H10.473L10.6136 6.85083ZM-1.04547 7.95452L-0.904841 8.38918H-0.440352L-0.81109 8.65765L-0.670466 9.09657L-1.0412 8.82384L-1.41194 9.09231L-1.27132 8.65765L-1.6378 8.38918H-1.18183L-1.04547 7.95452ZM1.54544 7.95452L1.69033 8.38918H2.1463L1.7713 8.65765L1.91618 9.09657L1.54544 8.82384L1.17471 9.09231L1.31533 8.65765L0.944591 8.38918H1.40482L1.54544 7.95452ZM4.13635 7.95452L4.27698 8.38918H4.7372L4.36647 8.65765L4.50709 9.09657L4.13635 8.82384L3.76561 9.09231L3.90624 8.65765L3.53976 8.38918H3.99147L4.13635 7.95452ZM6.72726 7.95452L6.87215 8.38918H7.32811L6.95738 8.65765L7.098 9.09657L6.72726 8.82384L6.36078 9.09231L6.49715 8.65765L6.12641 8.38918H6.5909L6.72726 7.95452ZM9.31817 7.95452L9.4588 8.38918H9.91902L9.54828 8.65765L9.68891 9.09657L9.31817 8.82384L8.94743 9.09231L9.08806 8.65765L8.72158 8.38918H9.17755L9.31817 7.95452ZM-2.34092 9.05822L-2.19603 9.49288H-1.74433L-2.11081 9.76134L-1.97018 10.196L-2.34092 9.92753L-2.7074 10.196L-2.57103 9.75708L-2.94177 9.48861H-2.47728L-2.34092 9.05822ZM0.249989 9.05822L0.390614 9.49288H0.850841L0.480103 9.76134L0.620728 10.196L0.249989 9.92753L-0.12075 10.196L0.0241369 9.75708L-0.346602 9.48861H0.105103L0.249989 9.05822ZM2.8409 9.05822L2.98152 9.49288H3.43749L3.07953 9.76134L3.22016 10.196L2.84942 9.92753L2.47868 10.196L2.61931 9.75708L2.24857 9.48861H2.7088L2.8409 9.05822ZM5.43181 9.05822L5.57243 9.49288H6.03266L5.66192 9.76134L5.80255 10.196L5.43181 9.92753L5.06107 10.196L5.20595 9.75708L4.83095 9.48861H5.28692L5.43181 9.05822ZM8.02272 9.05822L8.16334 9.49288H8.61931L8.25283 9.76134L8.39345 10.196L8.02272 9.92753L7.65198 10.196L7.7926 9.75708L7.42613 9.48861H7.88209L8.02272 9.05822ZM10.6136 9.05822L10.7543 9.49288H11.2145L10.8395 9.76134L10.9844 10.196L10.6136 9.92753L10.2429 10.196L10.3878 9.75708L10.0128 9.48861H10.473L10.6136 9.05822Z" fill="white"/>
</g>
</g>
</g>
<defs>
<clipPath id="clip0_1_14940">
<rect width="20" height="20" rx="10" fill="white"/>
</clipPath>
<clipPath id="clip1_1_14940">
<rect width="20" height="20" rx="10" fill="white"/>
</clipPath>
<clipPath id="clip2_1_14940">
<rect width="27.2727" height="20.4545" fill="white" transform="translate(-3.63635 -0.227295)"/>
</clipPath>
</defs>
</svg>
