<svg width="224" height="52" viewBox="0 0 224 52" fill="none" xmlns="http://www.w3.org/2000/svg">
<path d="M8.98386 41.4238L11.0004 39.4189C13.1398 41.0758 15.6671 42.2605 18.4218 42.8214V41.5705C11.6427 40.0838 6.3992 34.5121 5.45385 27.6073C6.38476 27.2889 7.0565 26.4115 7.0565 25.3792C7.0565 24.3466 6.38446 23.4691 5.45321 23.1508C6.39145 16.2312 11.6448 10.6667 18.4218 9.21781V7.96835C15.6684 8.51449 13.1407 9.68907 11.0002 11.3393L8.98386 9.33455C11.6651 7.19173 14.892 5.69853 18.4218 5.09699V3.85596C7.99149 5.53006 0 14.5435 0 25.3792C0 36.2148 7.99149 45.2282 18.4218 46.9024V45.6613C14.892 45.0598 11.6651 43.5666 8.98386 41.4238ZM5.82522 25.3792C5.82522 26.0043 5.31385 26.5127 4.68524 26.5127C4.05663 26.5127 3.54517 26.0043 3.54517 25.3792C3.54517 24.7541 4.05663 24.2457 4.68524 24.2457C5.31385 24.2457 5.82522 24.7541 5.82522 25.3792ZM8.0527 10.1232L10.0604 12.1195C9.54332 12.5774 9.05368 13.0649 8.59303 13.579L6.58501 11.5825C7.04958 11.0722 7.53947 10.5851 8.0527 10.1232ZM1.23128 25.3792C1.23128 20.5122 2.94044 16.0354 5.79181 12.5083L7.80804 14.513C5.91399 16.9416 4.64214 19.8716 4.22367 23.0671C3.1364 23.2813 2.31389 24.2362 2.31389 25.3792C2.31389 26.5225 3.13691 27.4776 4.22467 27.6915C4.64644 30.881 5.91907 33.8095 7.81291 36.2408L5.79196 38.2502C2.9405 34.7231 1.23128 30.2462 1.23128 25.3792ZM6.58501 39.1758L8.59734 37.175C9.05744 37.6896 9.54681 38.1775 10.0633 38.6364L8.05289 40.6353C7.53958 40.1733 7.04965 39.6862 6.58501 39.1758Z" fill="black"/>
<path d="M25.4504 3.85718V5.09821C28.9773 5.7006 32.2016 7.19329 34.8809 9.33464L32.8475 11.3565C30.7136 9.71232 28.195 8.53615 25.4504 7.97794V9.22967C32.2266 10.7142 37.4666 16.2684 38.4104 23.1512C37.4797 23.4698 36.8081 24.347 36.8081 25.3791C36.8081 26.4117 37.4802 27.2892 38.4114 27.6075C37.4734 34.5246 32.2238 40.0876 25.4504 41.5389V42.7883C28.2009 42.2415 30.7259 41.0677 32.8645 39.4189L34.8808 41.4237C32.2015 43.565 28.9773 45.0577 25.4504 45.66V46.9011C35.877 45.2238 43.8646 36.2122 43.8646 25.3791C43.8646 14.5461 35.877 5.53443 25.4504 3.85718ZM33.7869 12.1366L35.8119 10.1231C36.3252 10.5851 36.8151 11.0723 37.2798 11.5826L35.2564 13.5944C34.7952 13.0809 34.3045 12.5944 33.7869 12.1366ZM38.0394 25.3791C38.0394 24.7541 38.5508 24.2457 39.1795 24.2457C39.808 24.2457 40.3194 24.7541 40.3194 25.3791C40.3194 26.0042 39.808 26.5127 39.1795 26.5127C38.5508 26.5127 38.0394 26.0042 38.0394 25.3791ZM35.8118 40.6352L33.804 38.6389C34.3212 38.1809 34.8109 37.6934 35.2716 37.1792L37.2797 39.1757C36.815 39.6861 36.3251 40.1732 35.8118 40.6352ZM36.0564 36.2454C37.9505 33.8168 39.2224 30.8868 39.6409 27.6913C40.7282 27.4771 41.5506 26.5222 41.5506 25.3791C41.5506 24.2357 40.7276 23.2806 39.6398 23.0668C39.2179 19.8801 37.9416 16.9547 36.0424 14.5271L38.0728 12.5083C40.9242 16.0353 42.6333 20.5122 42.6333 25.3791C42.6333 30.2461 40.9241 34.723 38.0727 38.2501L36.0564 36.2454Z" fill="black"/>
<path d="M24.2099 39.5562C31.0914 38.4645 36.3676 32.5238 36.3676 25.3791C36.3676 18.2344 31.0914 12.2937 24.2099 11.202V0.00012207H22.9787V3.60141C22.63 3.58495 22.2794 3.57582 21.9267 3.57582C21.5766 3.57582 21.2285 3.58489 20.8823 3.60112V0.00012207H19.651L19.6452 11.2017C12.7629 12.2926 7.48579 18.2338 7.48579 25.3791C7.48579 32.5244 12.7629 38.4655 19.6452 39.5565L19.651 51.1958H20.8823V47.1571C21.2285 47.1733 21.5766 47.1824 21.9267 47.1824C22.2794 47.1824 22.63 47.1732 22.9787 47.1568V51.1958H24.2099V39.5562ZM26.8205 37.5748C27.4388 36.9736 28.0155 36.2554 28.5371 35.4227C28.9823 34.7117 29.3731 33.9383 29.7096 33.1175C30.5352 32.7829 31.313 32.3944 32.0281 31.9517C32.8656 31.4331 33.5879 30.8597 34.1926 30.2449C32.8501 33.5783 30.1731 36.24 26.8205 37.5748ZM21.9267 33.3271C19.4259 33.3271 17.0852 32.9066 15.0894 32.1773C14.3558 30.1929 13.933 27.8656 13.933 25.3791C13.933 22.8926 14.3558 20.5653 15.0894 18.5809C17.0852 17.8516 19.4259 17.4311 21.9267 17.4311C24.4276 17.4311 26.7682 17.8516 28.764 18.5809C29.4976 20.5653 29.9204 22.8926 29.9204 25.3791C29.9204 27.8656 29.4976 30.1929 28.764 32.1773C26.7682 32.9066 24.4275 33.3271 21.9267 33.3271ZM30.2713 31.535C30.8467 29.6359 31.1517 27.5435 31.1517 25.3791C31.1517 23.2146 30.8467 21.1223 30.2713 19.2232C33.2382 20.6819 35.1363 22.8994 35.1363 25.3791C35.1363 27.8588 33.2382 30.0763 30.2713 31.535ZM34.1927 20.5134C33.588 19.8986 32.8657 19.3252 32.0281 18.8066C31.313 18.3639 30.5352 17.9753 29.7096 17.6408C29.3732 16.8199 28.9823 16.0465 28.5371 15.3355C28.0155 14.5028 27.4388 13.7846 26.8205 13.1833C30.1732 14.5181 32.8502 17.1799 34.1927 20.5134ZM20.8823 4.82615C21.2283 4.80897 21.5765 4.80005 21.9267 4.80005C22.2795 4.80005 22.6302 4.80901 22.9787 4.82644V11.063C22.6308 11.038 22.2808 11.0208 21.9267 11.0208C21.5751 11.0208 21.2277 11.0378 20.8823 11.0625V4.82615ZM21.9267 12.245C24.4207 12.245 26.651 14.1323 28.1181 17.0823C26.208 16.5101 24.1036 16.2069 21.9267 16.2069C19.7498 16.2069 17.6454 16.5101 15.7354 17.0823C17.2024 14.1323 19.4327 12.245 21.9267 12.245ZM17.033 13.1833C16.4146 13.7846 15.8379 14.5028 15.3163 15.3355C14.8711 16.0465 14.4803 16.8199 14.1438 17.6408C13.3182 17.9753 12.5404 18.3639 11.8253 18.8066C10.9878 19.3252 10.2654 19.8986 9.66073 20.5134C11.0032 17.1799 13.6802 14.5181 17.033 13.1833ZM13.5821 19.2232C13.0067 21.1223 12.7017 23.2146 12.7017 25.3791C12.7017 27.5435 13.0067 29.6359 13.5821 31.535C10.6152 30.0763 8.71707 27.8588 8.71707 25.3791C8.71707 22.8994 10.6152 20.6819 13.5821 19.2232ZM9.66078 30.2449C10.2655 30.8597 10.9878 31.4331 11.8253 31.9517C12.5404 32.3944 13.3182 32.7829 14.1438 33.1175C14.4803 33.9383 14.8711 34.7117 15.3163 35.4227C15.8379 36.2554 16.4146 36.9736 17.0329 37.5748C13.6803 36.24 11.0033 33.5783 9.66078 30.2449ZM22.9787 45.9317C22.6302 45.9492 22.2795 45.9581 21.9267 45.9581C21.5765 45.9581 21.2283 45.9492 20.8823 45.932V39.6957C21.2277 39.7204 21.5751 39.7374 21.9267 39.7374C22.2804 39.7374 22.63 39.7202 22.9774 39.6953L22.9787 45.9317ZM21.9267 38.5131C19.4327 38.5131 17.2025 36.6259 15.7354 33.6759C17.6454 34.2481 19.7498 34.5513 21.9267 34.5513C24.1036 34.5513 26.208 34.2481 28.118 33.6759C26.6509 36.6259 24.4207 38.5131 21.9267 38.5131Z" fill="black"/>
<path d="M59.5308 19.5302H62.7713C62.4417 21.0429 61.2195 22.0161 59.5308 22.0161C57.5428 22.0161 56.209 20.6748 56.209 18.6831C56.209 16.7065 57.5428 15.3804 59.5308 15.3804C60.5095 15.3804 61.2499 15.7031 61.8889 16.3283L63.0807 15.1383C62.2034 14.2509 60.9254 13.6862 59.5308 13.6862C56.7212 13.6862 54.5051 15.8897 54.5051 18.6831C54.5051 21.4917 56.7212 23.7103 59.5308 23.7103C62.6293 23.7103 64.9824 21.0278 64.4855 17.836H59.5308V19.5302ZM68.5324 23.6397H76.0583V21.9455H70.2364V19.1924H74.6383V17.4982H70.2364V15.451H76.0583V13.7567H68.5324V23.6397ZM85.2171 23.6397V15.451H88.6961V13.7567H80.0342V15.451H83.5131V23.6397H85.2171ZM106.902 22.2682L105.71 21.058C105.071 21.6934 104.331 22.0161 103.383 22.0161C101.405 22.0161 100.056 20.6446 100.056 18.6831C100.056 16.7519 101.405 15.3804 103.383 15.3804C104.331 15.3804 105.071 15.7031 105.71 16.3384L106.902 15.1283C106.01 14.2509 104.757 13.6862 103.383 13.6862C100.583 13.6862 98.3519 15.93 98.3519 18.6831C98.3519 21.4665 100.583 23.7103 103.383 23.7103C104.757 23.7103 106.01 23.1456 106.902 22.2682ZM112.582 23.6397V19.8983H116.117L118.404 23.6397H120.392L117.978 19.6714C119.114 19.2226 119.925 18.1184 119.925 16.8326C119.925 15.1383 118.516 13.7567 116.827 13.7567H110.878V23.6397H112.582ZM112.582 18.2041V15.451H116.827C117.694 15.451 118.221 15.9602 118.221 16.8326C118.221 17.6948 117.694 18.2041 116.827 18.2041H112.582ZM131.666 13.7567L128.668 17.6545L125.676 13.7567H123.516L127.816 19.3336V23.6397H129.52V19.3336L133.826 13.7567H131.666ZM139.506 23.6397V19.8983H143.751C145.439 19.8983 146.844 18.5167 146.844 16.8326C146.844 15.1383 145.439 13.7567 143.751 13.7567H137.802V23.6397H139.506ZM139.506 18.2041V15.451H143.751C144.618 15.451 145.14 15.9602 145.14 16.8326C145.14 17.6948 144.618 18.2041 143.751 18.2041H139.506ZM155.577 23.6397V15.451H159.056V13.7567H150.394V15.451H153.873V23.6397H155.577ZM166.785 22.0161C164.807 22.0161 163.458 20.6597 163.458 18.6831C163.458 16.7216 164.807 15.3804 166.785 15.3804C168.757 15.3804 170.106 16.7216 170.106 18.6831C170.106 20.6597 168.757 22.0161 166.785 22.0161ZM161.754 18.6831C161.754 21.4816 163.985 23.7103 166.785 23.7103C169.579 23.7103 171.81 21.4816 171.81 18.6831C171.81 15.9048 169.579 13.6862 166.785 13.6862C163.985 13.6862 161.754 15.9048 161.754 18.6831ZM183.17 23.6397V19.6159H187.572V17.9217H183.17V15.451H188.992V13.7567H181.466V23.6397H183.17ZM192.968 23.6397L193.607 22.0867H198.577L199.216 23.6397H201.062L197.015 13.7567H195.169L191.122 23.6397H192.968ZM194.302 20.3925L196.092 16.0157L197.882 20.3925H194.302ZM209.85 16.1972H211.554C211.554 14.5887 210.363 13.6862 208.131 13.6862C206.088 13.6862 204.739 14.4778 204.739 16.1972C204.739 17.7503 205.717 18.5167 207.949 18.9957C210.236 19.4899 210.662 19.6311 210.662 20.5034C210.662 21.7337 210.165 22.0161 208.131 22.0161C206.671 22.0161 206.118 21.7892 205.804 21.2396L204.328 22.0564C204.967 23.1859 206.245 23.7103 208.131 23.7103C210.758 23.7103 212.366 22.8077 212.366 20.5034C212.366 18.4007 210.758 17.8662 208.319 17.3267C206.656 16.9738 206.443 16.8477 206.443 16.1972C206.443 15.5216 206.686 15.3804 208.131 15.3804C209.622 15.3804 209.85 15.5367 209.85 16.1972ZM220.531 23.6397V15.451H224.01V13.7567H215.348V15.451H218.827V23.6397H220.531Z" fill="black"/>
<path d="M55.207 33.3525L56.4523 35.1627V36.7849H56.8468V35.1709L58.1002 33.3525H57.6276L56.6577 34.7663L55.6796 33.3525H55.207ZM62.5305 36.4662C61.725 36.4662 61.1496 35.8941 61.1496 35.0687C61.1496 34.2433 61.725 33.6712 62.5305 33.6712C63.3319 33.6712 63.9113 34.2433 63.9113 35.0687C63.9113 35.8941 63.3319 36.4662 62.5305 36.4662ZM60.7551 35.0687C60.7551 36.0412 61.5524 36.8339 62.5305 36.8339C63.5045 36.8339 64.3059 36.0412 64.3059 35.0687C64.3059 34.0962 63.5045 33.3035 62.5305 33.3035C61.5524 33.3035 60.7551 34.0962 60.7551 35.0687ZM68.2717 36.8339C68.9786 36.8339 69.5704 36.2455 69.5704 35.5304V33.3525H69.1759V35.555C69.1759 36.0535 68.7649 36.4662 68.2717 36.4662C67.7662 36.4662 67.3512 36.0535 67.3512 35.555V33.3525H66.9566V35.5304C66.9566 36.2455 67.5484 36.8339 68.2717 36.8339ZM72.2253 36.7849H72.6198V35.3466H73.2321C74.0993 35.3466 74.3911 35.9758 74.3911 36.7849H74.7856C74.7856 36.1761 74.6007 35.5795 74.1404 35.2444C74.4691 35.085 74.6993 34.7418 74.6993 34.3414C74.6993 33.802 74.2472 33.3525 73.7047 33.3525H72.2253V36.7849ZM72.6198 34.9788V33.7203H73.6801C74.0253 33.7203 74.313 34.0063 74.313 34.3495C74.313 34.6969 74.0253 34.9788 73.6801 34.9788H72.6198ZM82.4173 36.8339C82.8981 36.8339 83.3379 36.6419 83.6584 36.3272V36.7849H84.0529V35.0932H82.4748V35.461H83.6584V35.7143C83.4365 36.1556 82.9762 36.4662 82.4173 36.4662C81.6159 36.4662 81.0364 35.8941 81.0364 35.0687C81.0364 34.2433 81.6159 33.6712 82.4173 33.6712C82.8611 33.6712 83.2392 33.8469 83.4858 34.1411L83.7735 33.9327C83.4488 33.5486 82.9598 33.3035 82.4173 33.3035C81.4433 33.3035 80.6419 34.0962 80.6419 35.0687C80.6419 36.0412 81.4433 36.8339 82.4173 36.8339ZM88.0846 33.3525L86.7037 36.7849H87.1188L87.4599 35.935H89.2435L89.5846 36.7849H89.9997L88.6188 33.3525H88.0846ZM87.6078 35.5672L88.3517 33.7203L89.0955 35.5672H87.6078ZM93.7354 36.7849H94.1299V33.7203H95.2149V33.3525H92.6504V33.7203H93.7354V36.7849ZM97.8697 33.3525V36.7849H100.286V36.4171H98.2643V35.2485H99.7931V34.8807H98.2643V33.7203H100.286V33.3525H97.8697ZM103.977 36.7849H104.507L105.436 33.9818L106.36 36.7849H106.895L107.93 33.3525H107.515L106.623 36.3191L105.641 33.3525H105.226L104.248 36.3191L103.352 33.3525H102.941L103.977 36.7849ZM111.966 33.3525L110.585 36.7849H110.996L111.337 35.935H113.125L113.462 36.7849H113.877L112.496 33.3525H111.966ZM111.485 35.5672L112.229 33.7203L112.977 35.5672H111.485ZM116.532 33.3525L117.777 35.1627V36.7849H118.172V35.1709L119.425 33.3525H118.952L117.983 34.7663L117.004 33.3525H116.532ZM126.37 36.7849H126.765V33.7203H127.85V33.3525H125.285V33.7203H126.37V36.7849ZM132.276 36.4662C131.475 36.4662 130.895 35.8941 130.895 35.0687C130.895 34.2433 131.475 33.6712 132.276 33.6712C133.082 33.6712 133.657 34.2433 133.657 35.0687C133.657 35.8941 133.082 36.4662 132.276 36.4662ZM130.501 35.0687C130.501 36.0412 131.302 36.8339 132.276 36.8339C133.254 36.8339 134.051 36.0412 134.051 35.0687C134.051 34.0962 133.254 33.3035 132.276 33.3035C131.302 33.3035 130.501 34.0962 130.501 35.0687ZM139.912 36.7849H140.306V35.2485H141.835V34.8807H140.306V33.7203H142.328V33.3525H139.912V36.7849ZM144.983 33.3525V36.7849H145.378V33.3525H144.983ZM148.029 33.3525V36.7849H148.423V33.7489L150.297 36.7849H150.889V33.3525H150.494V36.3885L148.62 33.3525H148.029ZM154.925 33.3525L153.544 36.7849H153.959L154.296 35.935H156.084L156.425 36.7849H156.836L155.455 33.3525H154.925ZM154.444 35.5672L155.192 33.7203L155.936 35.5672H154.444ZM159.49 33.3525V36.7849H159.885V33.7489L161.759 36.7849H162.351V33.3525H161.956V36.3885L160.082 33.3525H159.49ZM166.781 36.8339C167.508 36.8339 168.145 36.3885 168.413 35.7552H168.002C167.78 36.1965 167.336 36.4662 166.781 36.4662C165.976 36.4662 165.4 35.8941 165.4 35.0687C165.4 34.2433 165.976 33.6712 166.781 33.6712C167.225 33.6712 167.599 33.8469 167.845 34.1411L168.137 33.9327C167.808 33.5486 167.324 33.3035 166.781 33.3035C165.803 33.3035 165.006 34.0962 165.006 35.0687C165.006 36.0412 165.803 36.8339 166.781 36.8339ZM171.063 33.3525V36.7849H171.458V33.3525H171.063ZM175.494 33.3525L174.113 36.7849H174.528L174.869 35.935H176.653L176.994 36.7849H177.409L176.028 33.3525H175.494ZM175.017 35.5672L175.761 33.7203L176.505 35.5672H175.017ZM180.059 33.3525V36.7849H182.476V36.4171H180.454V33.3525H180.059ZM188.336 36.7849H188.731V35.2485H190.26V34.8807H188.731V33.7203H190.753V33.3525H188.336V36.7849ZM193.404 36.7849H193.798V35.3466H194.411C195.278 35.3466 195.569 35.9758 195.569 36.7849H195.964C195.964 36.1761 195.783 35.5795 195.319 35.2444C195.648 35.085 195.882 34.7418 195.882 34.3414C195.882 33.802 195.426 33.3525 194.883 33.3525H193.404V36.7849ZM193.798 34.9788V33.7203H194.858C195.204 33.7203 195.491 34.0063 195.491 34.3495C195.491 34.6969 195.204 34.9788 194.858 34.9788H193.798ZM198.619 33.3525V36.7849H201.035V36.4171H199.013V35.2485H200.542V34.8807H199.013V33.7203H201.035V33.3525H198.619ZM203.686 33.3525V36.7849H206.103V36.4171H204.081V35.2485H205.609V34.8807H204.081V33.7203H206.103V33.3525H203.686ZM208.757 33.3525V36.7849H209.793C210.771 36.7849 211.568 36.0412 211.568 35.0687C211.568 34.0962 210.771 33.3525 209.793 33.3525H208.757ZM209.152 36.4171V33.7203H209.793C210.599 33.7203 211.174 34.2433 211.174 35.0687C211.174 35.8941 210.599 36.4171 209.793 36.4171H209.152ZM215.999 36.4662C215.193 36.4662 214.618 35.8941 214.618 35.0687C214.618 34.2433 215.193 33.6712 215.999 33.6712C216.8 33.6712 217.38 34.2433 217.38 35.0687C217.38 35.8941 216.8 36.4662 215.999 36.4662ZM214.223 35.0687C214.223 36.0412 215.021 36.8339 215.999 36.8339C216.973 36.8339 217.774 36.0412 217.774 35.0687C217.774 34.0962 216.973 33.3035 215.999 33.3035C215.021 33.3035 214.223 34.0962 214.223 35.0687ZM220.425 33.3525V36.7849H220.819V33.945L222.003 36.7849H222.398L223.581 33.945V36.7849H223.976V33.3525H223.433L222.2 36.3109L220.967 33.3525H220.425Z" fill="black"/>
<path d="M26.5976 28.8429V29.1338C26.5976 29.186 26.5914 29.2407 26.5789 29.2979C26.5664 29.3551 26.5388 29.4024 26.4963 29.4397C26.2812 29.6013 26.0486 29.7493 25.7985 29.8836C25.5484 30.0178 25.2783 30.1347 24.9882 30.2342C24.6981 30.3337 24.3855 30.4107 24.0503 30.4654C23.7127 30.5202 23.3513 30.5475 22.9661 30.5475C22.1008 30.5475 21.3105 30.4207 20.5952 30.167C19.8799 29.9134 19.2671 29.5553 18.7569 29.0928C18.2442 28.6278 17.8478 28.0695 17.5677 27.418C17.2851 26.7665 17.1438 26.0428 17.1438 25.2471C17.1438 24.7995 17.2025 24.3568 17.3201 23.9192C17.4351 23.484 17.6052 23.07 17.8303 22.6771C18.0529 22.2842 18.3293 21.9236 18.6594 21.5954C18.987 21.2646 19.3622 20.9787 19.7848 20.7374C20.205 20.4962 20.669 20.3085 21.1767 20.1742C21.6844 20.0399 22.2333 19.9728 22.8236 19.9728C23.0512 19.9728 23.285 19.9827 23.5251 20.0026C23.7627 20.025 23.9978 20.0561 24.2304 20.0959C24.4655 20.1357 24.6906 20.1841 24.9057 20.2413C25.1233 20.2985 25.3296 20.3619 25.5247 20.4316L26.0086 21.7483L25.9524 21.7744C25.7673 21.6103 25.5534 21.4561 25.3108 21.3119C25.0682 21.1701 24.8081 21.047 24.5305 20.9426C24.2554 20.8406 23.9665 20.7598 23.6639 20.7001C23.3613 20.6405 23.0549 20.6106 22.7448 20.6106C22.1446 20.6106 21.5943 20.7039 21.0941 20.8904C20.5939 21.0769 20.165 21.3479 19.8074 21.7035C19.4472 22.0591 19.1671 22.4955 18.967 23.0128C18.7669 23.5275 18.6669 24.1144 18.6669 24.7734C18.6669 25.497 18.7619 26.1697 18.952 26.7913C19.1421 27.4105 19.4259 27.9477 19.8036 28.4027C20.1788 28.8578 20.6489 29.2146 21.2142 29.4733C21.7769 29.7294 22.4347 29.8574 23.1875 29.8574C23.5201 29.8574 23.8177 29.8313 24.0803 29.7791C24.3429 29.7269 24.5643 29.6622 24.7444 29.5852C24.9269 29.5081 25.0645 29.4223 25.157 29.3278C25.2496 29.2358 25.2958 29.1525 25.2958 29.0779V28.8018C25.2958 28.4686 25.2908 28.1814 25.2808 27.9402C25.2708 27.699 25.2571 27.4901 25.2396 27.3135C25.2196 27.1345 25.1983 26.9816 25.1758 26.8547C25.1508 26.7254 25.122 26.6073 25.0895 26.5004V26.4706H26.804V26.5004C26.7739 26.5999 26.7464 26.7167 26.7214 26.851C26.6939 26.9853 26.6714 27.1444 26.6539 27.3285C26.6339 27.515 26.6189 27.7326 26.6089 27.9812C26.6014 28.2299 26.5976 28.5171 26.5976 28.8429Z" fill="black"/>
</svg>
